<svg width="1440" height="1024" viewBox="0 0 1440 1024" fill="none" xmlns="http://www.w3.org/2000/svg">
<g clip-path="url(#clip0_0_286)">
<rect width="1440" height="1024" fill="#08070B"/>
<rect width="1440" height="1024" fill="url(#paint0_linear_0_286)"/>
<rect x="450" y="300" width="540" height="528" fill="#24232C"/>
<rect x="482" y="393" width="476" height="8" fill="#18171F"/>
<rect x="482" y="393" width="238" height="8" fill="#A4FFAF"/>
<circle cx="720" cy="397" r="14" fill="#E6E5EA"/>
<path d="M487.472 352.18C486.632 352.18 485.894 352.024 485.258 351.712C484.634 351.388 484.148 350.938 483.8 350.362C483.464 349.774 483.296 349.084 483.296 348.292V342.568C483.296 341.764 483.464 341.074 483.8 340.498C484.148 339.922 484.634 339.478 485.258 339.166C485.894 338.842 486.632 338.68 487.472 338.68C488.324 338.68 489.056 338.842 489.668 339.166C490.292 339.478 490.778 339.922 491.126 340.498C491.474 341.074 491.648 341.764 491.648 342.568H489.38C489.38 341.944 489.212 341.47 488.876 341.146C488.552 340.822 488.084 340.66 487.472 340.66C486.86 340.66 486.386 340.822 486.05 341.146C485.714 341.47 485.546 341.938 485.546 342.55V348.292C485.546 348.904 485.714 349.378 486.05 349.714C486.386 350.038 486.86 350.2 487.472 350.2C488.084 350.2 488.552 350.038 488.876 349.714C489.212 349.378 489.38 348.904 489.38 348.292H491.648C491.648 349.072 491.474 349.756 491.126 350.344C490.778 350.932 490.292 351.388 489.668 351.712C489.056 352.024 488.324 352.18 487.472 352.18ZM494.179 352V338.86H496.429V342.1L496.375 343.99H496.987L496.375 344.512C496.375 343.696 496.609 343.06 497.077 342.604C497.557 342.148 498.211 341.92 499.039 341.92C500.011 341.92 500.785 342.244 501.361 342.892C501.949 343.54 502.243 344.41 502.243 345.502V352H499.993V345.736C499.993 345.136 499.837 344.674 499.525 344.35C499.213 344.026 498.775 343.864 498.211 343.864C497.659 343.864 497.221 344.032 496.897 344.368C496.585 344.704 496.429 345.184 496.429 345.808V352H494.179ZM507.888 352.18C506.868 352.18 506.064 351.91 505.476 351.37C504.888 350.83 504.594 350.104 504.594 349.192C504.594 348.22 504.918 347.47 505.566 346.942C506.214 346.414 507.132 346.15 508.32 346.15H510.786V345.304C510.786 344.824 510.63 344.452 510.318 344.188C510.006 343.912 509.58 343.774 509.04 343.774C508.548 343.774 508.14 343.882 507.816 344.098C507.492 344.314 507.3 344.608 507.24 344.98H505.044C505.152 344.044 505.572 343.3 506.304 342.748C507.036 342.196 507.972 341.92 509.112 341.92C510.324 341.92 511.278 342.226 511.974 342.838C512.682 343.438 513.036 344.254 513.036 345.286V352H510.858V350.272H510.498L510.858 349.786C510.858 350.518 510.588 351.1 510.048 351.532C509.508 351.964 508.788 352.18 507.888 352.18ZM508.626 350.488C509.262 350.488 509.778 350.326 510.174 350.002C510.582 349.678 510.786 349.258 510.786 348.742V347.536H508.356C507.9 347.536 507.534 347.668 507.258 347.932C506.982 348.196 506.844 348.544 506.844 348.976C506.844 349.444 507 349.816 507.312 350.092C507.636 350.356 508.074 350.488 508.626 350.488ZM516.071 352V342.1H518.195V343.99H518.753L518.087 345.142C518.087 344.074 518.327 343.27 518.807 342.73C519.287 342.19 519.995 341.92 520.931 341.92C521.999 341.92 522.839 342.25 523.451 342.91C524.063 343.57 524.369 344.482 524.369 345.646V346.366H522.011V345.808C522.011 345.172 521.843 344.68 521.507 344.332C521.183 343.984 520.733 343.81 520.157 343.81C519.569 343.81 519.113 343.984 518.789 344.332C518.477 344.68 518.321 345.172 518.321 345.808V352H516.071ZM529.474 352.18C528.454 352.18 527.65 351.91 527.062 351.37C526.474 350.83 526.18 350.104 526.18 349.192C526.18 348.22 526.504 347.47 527.152 346.942C527.8 346.414 528.718 346.15 529.906 346.15H532.372V345.304C532.372 344.824 532.216 344.452 531.904 344.188C531.592 343.912 531.166 343.774 530.626 343.774C530.134 343.774 529.726 343.882 529.402 344.098C529.078 344.314 528.886 344.608 528.826 344.98H526.63C526.738 344.044 527.158 343.3 527.89 342.748C528.622 342.196 529.558 341.92 530.698 341.92C531.91 341.92 532.864 342.226 533.56 342.838C534.268 343.438 534.622 344.254 534.622 345.286V352H532.444V350.272H532.084L532.444 349.786C532.444 350.518 532.174 351.1 531.634 351.532C531.094 351.964 530.374 352.18 529.474 352.18ZM530.212 350.488C530.848 350.488 531.364 350.326 531.76 350.002C532.168 349.678 532.372 349.258 532.372 348.742V347.536H529.942C529.486 347.536 529.12 347.668 528.844 347.932C528.568 348.196 528.43 348.544 528.43 348.976C528.43 349.444 528.586 349.816 528.898 350.092C529.222 350.356 529.66 350.488 530.212 350.488ZM541.419 352.18C540.579 352.18 539.841 352.024 539.205 351.712C538.581 351.388 538.095 350.938 537.747 350.362C537.399 349.774 537.225 349.084 537.225 348.292V345.808C537.225 345.004 537.399 344.314 537.747 343.738C538.095 343.162 538.581 342.718 539.205 342.406C539.841 342.082 540.579 341.92 541.419 341.92C542.667 341.92 543.663 342.244 544.407 342.892C545.151 343.528 545.541 344.398 545.577 345.502H543.327C543.291 344.986 543.105 344.59 542.769 344.314C542.445 344.026 541.995 343.882 541.419 343.882C540.819 343.882 540.345 344.05 539.997 344.386C539.649 344.71 539.475 345.178 539.475 345.79V348.292C539.475 348.904 539.649 349.378 539.997 349.714C540.345 350.05 540.819 350.218 541.419 350.218C541.995 350.218 542.445 350.08 542.769 349.804C543.105 349.516 543.291 349.114 543.327 348.598H545.577C545.541 349.702 545.151 350.578 544.407 351.226C543.663 351.862 542.667 352.18 541.419 352.18ZM553.238 352C552.29 352 551.546 351.736 551.006 351.208C550.478 350.68 550.214 349.954 550.214 349.03V344.134H547.532V342.1H550.214V339.31H552.482V342.1H556.28V344.134H552.482V349.03C552.482 349.654 552.788 349.966 553.4 349.966H556.1V352H553.238ZM562.969 352.18C562.129 352.18 561.397 352.018 560.773 351.694C560.149 351.37 559.663 350.92 559.315 350.344C558.979 349.756 558.811 349.072 558.811 348.292V345.808C558.811 345.028 558.979 344.35 559.315 343.774C559.663 343.186 560.149 342.73 560.773 342.406C561.397 342.082 562.129 341.92 562.969 341.92C563.797 341.92 564.517 342.082 565.129 342.406C565.753 342.73 566.233 343.186 566.569 343.774C566.917 344.35 567.091 345.028 567.091 345.808V347.59H560.989V348.292C560.989 348.988 561.157 349.516 561.493 349.876C561.829 350.224 562.327 350.398 562.987 350.398C563.491 350.398 563.899 350.314 564.211 350.146C564.523 349.966 564.721 349.708 564.805 349.372H567.019C566.851 350.224 566.395 350.908 565.651 351.424C564.919 351.928 564.025 352.18 562.969 352.18ZM564.913 346.33V345.79C564.913 345.106 564.751 344.584 564.427 344.224C564.103 343.852 563.617 343.666 562.969 343.666C562.321 343.666 561.829 343.852 561.493 344.224C561.157 344.596 560.989 345.124 560.989 345.808V346.186L565.075 346.15L564.913 346.33ZM570.036 352V342.1H572.16V343.99H572.718L572.052 345.142C572.052 344.074 572.292 343.27 572.772 342.73C573.252 342.19 573.96 341.92 574.896 341.92C575.964 341.92 576.804 342.25 577.416 342.91C578.028 343.57 578.334 344.482 578.334 345.646V346.366H575.976V345.808C575.976 345.172 575.808 344.68 575.472 344.332C575.148 343.984 574.698 343.81 574.122 343.81C573.534 343.81 573.078 343.984 572.754 344.332C572.442 344.68 572.286 345.172 572.286 345.808V352H570.036ZM591.784 352V338.86H594.034V349.912H599.614V352H591.784ZM606.141 352.18C605.301 352.18 604.569 352.018 603.945 351.694C603.321 351.37 602.835 350.92 602.487 350.344C602.151 349.756 601.983 349.072 601.983 348.292V345.808C601.983 345.028 602.151 344.35 602.487 343.774C602.835 343.186 603.321 342.73 603.945 342.406C604.569 342.082 605.301 341.92 606.141 341.92C606.969 341.92 607.689 342.082 608.301 342.406C608.925 342.73 609.405 343.186 609.741 343.774C610.089 344.35 610.263 345.028 610.263 345.808V347.59H604.161V348.292C604.161 348.988 604.329 349.516 604.665 349.876C605.001 350.224 605.499 350.398 606.159 350.398C606.663 350.398 607.071 350.314 607.383 350.146C607.695 349.966 607.893 349.708 607.977 349.372H610.191C610.023 350.224 609.567 350.908 608.823 351.424C608.091 351.928 607.197 352.18 606.141 352.18ZM608.085 346.33V345.79C608.085 345.106 607.923 344.584 607.599 344.224C607.275 343.852 606.789 343.666 606.141 343.666C605.493 343.666 605.001 343.852 604.665 344.224C604.329 344.596 604.161 345.124 604.161 345.808V346.186L608.247 346.15L608.085 346.33ZM612.902 352V342.1H615.098V343.99H615.71L615.098 344.512C615.098 343.696 615.332 343.06 615.8 342.604C616.28 342.148 616.934 341.92 617.762 341.92C618.734 341.92 619.508 342.244 620.084 342.892C620.672 343.54 620.966 344.41 620.966 345.502V352H618.716V345.736C618.716 345.136 618.56 344.674 618.248 344.35C617.936 344.026 617.498 343.864 616.934 343.864C616.382 343.864 615.944 344.032 615.62 344.368C615.308 344.704 615.152 345.184 615.152 345.808V352H612.902ZM625.045 355.24V353.368H627.979C628.483 353.368 628.861 353.242 629.113 352.99C629.365 352.75 629.491 352.402 629.491 351.946V351.208L629.527 349.354H629.041L629.527 348.868C629.527 349.672 629.287 350.302 628.807 350.758C628.339 351.202 627.703 351.424 626.899 351.424C625.891 351.424 625.087 351.082 624.487 350.398C623.899 349.714 623.605 348.79 623.605 347.626V345.7C623.605 344.548 623.899 343.63 624.487 342.946C625.087 342.262 625.891 341.92 626.899 341.92C627.703 341.92 628.339 342.148 628.807 342.604C629.287 343.048 629.527 343.672 629.527 344.476L629.041 343.99H629.527L629.473 342.1H631.723V352C631.723 352.996 631.393 353.782 630.733 354.358C630.073 354.946 629.167 355.24 628.015 355.24H625.045ZM627.655 349.48C628.231 349.48 628.675 349.312 628.987 348.976C629.311 348.628 629.473 348.148 629.473 347.536V345.808C629.473 345.196 629.311 344.722 628.987 344.386C628.675 344.038 628.231 343.864 627.655 343.864C627.079 343.864 626.635 344.032 626.323 344.368C626.011 344.704 625.855 345.184 625.855 345.808V347.536C625.855 348.16 626.011 348.64 626.323 348.976C626.635 349.312 627.079 349.48 627.655 349.48ZM639.582 352C638.634 352 637.89 351.736 637.35 351.208C636.822 350.68 636.558 349.954 636.558 349.03V344.134H633.876V342.1H636.558V339.31H638.826V342.1H642.624V344.134H638.826V349.03C638.826 349.654 639.132 349.966 639.744 349.966H642.444V352H639.582ZM645.281 352V338.86H647.531V342.1L647.477 343.99H648.089L647.477 344.512C647.477 343.696 647.711 343.06 648.179 342.604C648.659 342.148 649.313 341.92 650.141 341.92C651.113 341.92 651.887 342.244 652.463 342.892C653.051 343.54 653.345 344.41 653.345 345.502V352H651.095V345.736C651.095 345.136 650.939 344.674 650.627 344.35C650.315 344.026 649.877 343.864 649.313 343.864C648.761 343.864 648.323 344.032 647.999 344.368C647.687 344.704 647.531 345.184 647.531 345.808V352H645.281Z" fill="#E6E5EA"/>
<path d="M921.688 357V353.48H927.768V337.192L921.656 341.736V337.512L927.032 333.64H931.768V353.48H936.664V357H921.688ZM947.788 357.32C946.273 357.32 944.961 357.032 943.852 356.456C942.742 355.88 941.878 355.069 941.26 354.024C940.662 352.979 940.364 351.752 940.364 350.344V340.296C940.364 338.888 940.662 337.661 941.26 336.616C941.878 335.571 942.742 334.76 943.852 334.184C944.961 333.608 946.273 333.32 947.788 333.32C949.324 333.32 950.636 333.608 951.724 334.184C952.833 334.76 953.686 335.571 954.284 336.616C954.902 337.661 955.212 338.888 955.212 340.296V350.344C955.212 351.752 954.902 352.979 954.284 354.024C953.686 355.069 952.833 355.88 951.724 356.456C950.614 357.032 949.302 357.32 947.788 357.32ZM947.788 353.864C948.897 353.864 949.782 353.544 950.444 352.904C951.105 352.264 951.436 351.411 951.436 350.344V340.296C951.436 339.229 951.105 338.376 950.444 337.736C949.782 337.096 948.897 336.776 947.788 336.776C946.678 336.776 945.793 337.096 945.132 337.736C944.47 338.376 944.14 339.229 944.14 340.296V350.344C944.14 351.411 944.47 352.264 945.132 352.904C945.793 353.544 946.678 353.864 947.788 353.864ZM947.788 347.4C947.169 347.4 946.657 347.197 946.252 346.792C945.868 346.387 945.676 345.864 945.676 345.224C945.676 344.584 945.868 344.072 946.252 343.688C946.636 343.304 947.148 343.112 947.788 343.112C948.428 343.112 948.94 343.304 949.324 343.688C949.708 344.072 949.9 344.584 949.9 345.224C949.9 345.864 949.708 346.387 949.324 346.792C948.94 347.197 948.428 347.4 947.788 347.4Z" fill="#A4FFAF"/>
<g clip-path="url(#clip1_0_286)">
<path d="M527.62 461V459.02H530.266V449.84H527.62V447.86H535.18V449.84H532.534V459.02H535.18V461H527.62ZM538.179 461V451.1H540.375V452.99H540.987L540.375 453.512C540.375 452.696 540.609 452.06 541.077 451.604C541.557 451.148 542.211 450.92 543.039 450.92C544.011 450.92 544.785 451.244 545.361 451.892C545.949 452.54 546.243 453.41 546.243 454.502V461H543.993V454.736C543.993 454.136 543.837 453.674 543.525 453.35C543.213 453.026 542.775 452.864 542.211 452.864C541.659 452.864 541.221 453.032 540.897 453.368C540.585 453.704 540.429 454.184 540.429 454.808V461H538.179ZM553.04 461.18C552.2 461.18 551.462 461.024 550.826 460.712C550.202 460.388 549.716 459.938 549.368 459.362C549.02 458.774 548.846 458.084 548.846 457.292V454.808C548.846 454.004 549.02 453.314 549.368 452.738C549.716 452.162 550.202 451.718 550.826 451.406C551.462 451.082 552.2 450.92 553.04 450.92C554.288 450.92 555.284 451.244 556.028 451.892C556.772 452.528 557.162 453.398 557.198 454.502H554.948C554.912 453.986 554.726 453.59 554.39 453.314C554.066 453.026 553.616 452.882 553.04 452.882C552.44 452.882 551.966 453.05 551.618 453.386C551.27 453.71 551.096 454.178 551.096 454.79V457.292C551.096 457.904 551.27 458.378 551.618 458.714C551.966 459.05 552.44 459.218 553.04 459.218C553.616 459.218 554.066 459.08 554.39 458.804C554.726 458.516 554.912 458.114 554.948 457.598H557.198C557.162 458.702 556.772 459.578 556.028 460.226C555.284 460.862 554.288 461.18 553.04 461.18ZM565.291 461C564.643 461 564.073 460.868 563.581 460.604C563.101 460.34 562.723 459.968 562.447 459.488C562.171 458.996 562.033 458.432 562.033 457.796V449.894H558.865V447.86H564.283V457.796C564.283 458.156 564.385 458.444 564.589 458.66C564.805 458.864 565.093 458.966 565.453 458.966H568.441V461H565.291ZM574.572 461.18C573.312 461.18 572.322 460.832 571.602 460.136C570.882 459.428 570.522 458.468 570.522 457.256V451.1H572.772V457.238C572.772 457.874 572.928 458.366 573.24 458.714C573.552 459.05 573.996 459.218 574.572 459.218C575.136 459.218 575.574 459.05 575.886 458.714C576.21 458.366 576.372 457.874 576.372 457.238V451.1H578.622V457.256C578.622 458.468 578.256 459.428 577.524 460.136C576.792 460.832 575.808 461.18 574.572 461.18ZM584.519 461.18C583.535 461.18 582.737 460.838 582.125 460.154C581.525 459.47 581.225 458.552 581.225 457.4V454.718C581.225 453.554 581.525 452.63 582.125 451.946C582.725 451.262 583.523 450.92 584.519 450.92C585.335 450.92 585.983 451.154 586.463 451.622C586.943 452.078 587.183 452.708 587.183 453.512L586.679 452.99H587.201L587.129 450.632V447.86H589.379V461H587.183V459.11H586.679L587.183 458.588C587.183 459.392 586.943 460.028 586.463 460.496C585.983 460.952 585.335 461.18 584.519 461.18ZM585.311 459.236C585.887 459.236 586.331 459.068 586.643 458.732C586.967 458.384 587.129 457.904 587.129 457.292V454.808C587.129 454.196 586.967 453.722 586.643 453.386C586.331 453.038 585.887 452.864 585.311 452.864C584.735 452.864 584.285 453.032 583.961 453.368C583.637 453.704 583.475 454.184 583.475 454.808V457.292C583.475 457.916 583.637 458.396 583.961 458.732C584.285 459.068 584.735 459.236 585.311 459.236ZM596.176 461.18C595.336 461.18 594.604 461.018 593.98 460.694C593.356 460.37 592.87 459.92 592.522 459.344C592.186 458.756 592.018 458.072 592.018 457.292V454.808C592.018 454.028 592.186 453.35 592.522 452.774C592.87 452.186 593.356 451.73 593.98 451.406C594.604 451.082 595.336 450.92 596.176 450.92C597.004 450.92 597.724 451.082 598.336 451.406C598.96 451.73 599.44 452.186 599.776 452.774C600.124 453.35 600.298 454.028 600.298 454.808V456.59H594.196V457.292C594.196 457.988 594.364 458.516 594.7 458.876C595.036 459.224 595.534 459.398 596.194 459.398C596.698 459.398 597.106 459.314 597.418 459.146C597.73 458.966 597.928 458.708 598.012 458.372H600.226C600.058 459.224 599.602 459.908 598.858 460.424C598.126 460.928 597.232 461.18 596.176 461.18ZM598.12 455.33V454.79C598.12 454.106 597.958 453.584 597.634 453.224C597.31 452.852 596.824 452.666 596.176 452.666C595.528 452.666 595.036 452.852 594.7 453.224C594.364 453.596 594.196 454.124 594.196 454.808V455.186L598.282 455.15L598.12 455.33ZM617.744 461.18C616.46 461.18 615.452 460.832 614.72 460.136C614 459.428 613.64 458.468 613.64 457.256V447.86H615.908V457.238C615.908 457.862 616.064 458.348 616.376 458.696C616.688 459.044 617.144 459.218 617.744 459.218C618.332 459.218 618.782 459.044 619.094 458.696C619.418 458.348 619.58 457.862 619.58 457.238V447.86H621.848V457.256C621.848 458.468 621.488 459.428 620.768 460.136C620.048 460.832 619.04 461.18 617.744 461.18ZM624.523 464.24V451.1H626.719V452.99H627.223L626.719 453.512C626.719 452.708 626.959 452.078 627.439 451.622C627.919 451.154 628.567 450.92 629.383 450.92C630.379 450.92 631.177 451.262 631.777 451.946C632.377 452.63 632.677 453.548 632.677 454.7V457.382C632.677 458.15 632.539 458.822 632.263 459.398C631.999 459.962 631.621 460.4 631.129 460.712C630.637 461.024 630.055 461.18 629.383 461.18C628.567 461.18 627.919 460.952 627.439 460.496C626.959 460.028 626.719 459.392 626.719 458.588L627.223 459.11H626.701L626.773 461.468V464.24H624.523ZM628.591 459.236C629.167 459.236 629.617 459.068 629.941 458.732C630.265 458.396 630.427 457.916 630.427 457.292V454.808C630.427 454.184 630.265 453.704 629.941 453.368C629.617 453.032 629.167 452.864 628.591 452.864C628.027 452.864 627.583 453.038 627.259 453.386C626.935 453.722 626.773 454.196 626.773 454.808V457.292C626.773 457.904 626.935 458.384 627.259 458.732C627.583 459.068 628.027 459.236 628.591 459.236ZM635.316 464.24V451.1H637.512V452.99H638.016L637.512 453.512C637.512 452.708 637.752 452.078 638.232 451.622C638.712 451.154 639.36 450.92 640.176 450.92C641.172 450.92 641.97 451.262 642.57 451.946C643.17 452.63 643.47 453.548 643.47 454.7V457.382C643.47 458.15 643.332 458.822 643.056 459.398C642.792 459.962 642.414 460.4 641.922 460.712C641.43 461.024 640.848 461.18 640.176 461.18C639.36 461.18 638.712 460.952 638.232 460.496C637.752 460.028 637.512 459.392 637.512 458.588L638.016 459.11H637.494L637.566 461.468V464.24H635.316ZM639.384 459.236C639.96 459.236 640.41 459.068 640.734 458.732C641.058 458.396 641.22 457.916 641.22 457.292V454.808C641.22 454.184 641.058 453.704 640.734 453.368C640.41 453.032 639.96 452.864 639.384 452.864C638.82 452.864 638.376 453.038 638.052 453.386C637.728 453.722 637.566 454.196 637.566 454.808V457.292C637.566 457.904 637.728 458.384 638.052 458.732C638.376 459.068 638.82 459.236 639.384 459.236ZM650.141 461.18C649.301 461.18 648.569 461.018 647.945 460.694C647.321 460.37 646.835 459.92 646.487 459.344C646.151 458.756 645.983 458.072 645.983 457.292V454.808C645.983 454.028 646.151 453.35 646.487 452.774C646.835 452.186 647.321 451.73 647.945 451.406C648.569 451.082 649.301 450.92 650.141 450.92C650.969 450.92 651.689 451.082 652.301 451.406C652.925 451.73 653.405 452.186 653.741 452.774C654.089 453.35 654.263 454.028 654.263 454.808V456.59H648.161V457.292C648.161 457.988 648.329 458.516 648.665 458.876C649.001 459.224 649.499 459.398 650.159 459.398C650.663 459.398 651.071 459.314 651.383 459.146C651.695 458.966 651.893 458.708 651.977 458.372H654.191C654.023 459.224 653.567 459.908 652.823 460.424C652.091 460.928 651.197 461.18 650.141 461.18ZM652.085 455.33V454.79C652.085 454.106 651.923 453.584 651.599 453.224C651.275 452.852 650.789 452.666 650.141 452.666C649.493 452.666 649.001 452.852 648.665 453.224C648.329 453.596 648.161 454.124 648.161 454.808V455.186L652.247 455.15L652.085 455.33ZM657.208 461V451.1H659.332V452.99H659.89L659.224 454.142C659.224 453.074 659.464 452.27 659.944 451.73C660.424 451.19 661.132 450.92 662.068 450.92C663.136 450.92 663.976 451.25 664.588 451.91C665.2 452.57 665.506 453.482 665.506 454.646V455.366H663.148V454.808C663.148 454.172 662.98 453.68 662.644 453.332C662.32 452.984 661.87 452.81 661.294 452.81C660.706 452.81 660.25 452.984 659.926 453.332C659.614 453.68 659.458 454.172 659.458 454.808V461H657.208ZM671.763 461.18C670.923 461.18 670.185 461.024 669.549 460.712C668.925 460.388 668.439 459.938 668.091 459.362C667.743 458.774 667.569 458.084 667.569 457.292V454.808C667.569 454.004 667.743 453.314 668.091 452.738C668.439 452.162 668.925 451.718 669.549 451.406C670.185 451.082 670.923 450.92 671.763 450.92C673.011 450.92 674.007 451.244 674.751 451.892C675.495 452.528 675.885 453.398 675.921 454.502H673.671C673.635 453.986 673.449 453.59 673.113 453.314C672.789 453.026 672.339 452.882 671.763 452.882C671.163 452.882 670.689 453.05 670.341 453.386C669.993 453.71 669.819 454.178 669.819 454.79V457.292C669.819 457.904 669.993 458.378 670.341 458.714C670.689 459.05 671.163 459.218 671.763 459.218C672.339 459.218 672.789 459.08 673.113 458.804C673.449 458.516 673.635 458.114 673.671 457.598H675.921C675.885 458.702 675.495 459.578 674.751 460.226C674.007 460.862 673.011 461.18 671.763 461.18ZM681.404 461.18C680.384 461.18 679.58 460.91 678.992 460.37C678.404 459.83 678.11 459.104 678.11 458.192C678.11 457.22 678.434 456.47 679.082 455.942C679.73 455.414 680.648 455.15 681.836 455.15H684.302V454.304C684.302 453.824 684.146 453.452 683.834 453.188C683.522 452.912 683.096 452.774 682.556 452.774C682.064 452.774 681.656 452.882 681.332 453.098C681.008 453.314 680.816 453.608 680.756 453.98H678.56C678.668 453.044 679.088 452.3 679.82 451.748C680.552 451.196 681.488 450.92 682.628 450.92C683.84 450.92 684.794 451.226 685.49 451.838C686.198 452.438 686.552 453.254 686.552 454.286V461H684.374V459.272H684.014L684.374 458.786C684.374 459.518 684.104 460.1 683.564 460.532C683.024 460.964 682.304 461.18 681.404 461.18ZM682.142 459.488C682.778 459.488 683.294 459.326 683.69 459.002C684.098 458.678 684.302 458.258 684.302 457.742V456.536H681.872C681.416 456.536 681.05 456.668 680.774 456.932C680.498 457.196 680.36 457.544 680.36 457.976C680.36 458.444 680.516 458.816 680.828 459.092C681.152 459.356 681.59 459.488 682.142 459.488ZM692.917 461.162C692.161 461.162 691.501 461.042 690.937 460.802C690.373 460.562 689.929 460.232 689.605 459.812C689.293 459.38 689.125 458.876 689.101 458.3H691.351C691.375 458.612 691.525 458.864 691.801 459.056C692.089 459.248 692.461 459.344 692.917 459.344H693.709C694.261 459.344 694.675 459.236 694.951 459.02C695.227 458.804 695.365 458.51 695.365 458.138C695.365 457.79 695.239 457.52 694.987 457.328C694.747 457.124 694.369 456.992 693.853 456.932L692.629 456.752C691.501 456.596 690.673 456.296 690.145 455.852C689.617 455.408 689.353 454.742 689.353 453.854C689.353 452.93 689.665 452.216 690.289 451.712C690.913 451.196 691.831 450.938 693.043 450.938H693.727C694.831 450.938 695.713 451.184 696.373 451.676C697.033 452.168 697.387 452.828 697.435 453.656H695.185C695.149 453.392 694.999 453.176 694.735 453.008C694.483 452.84 694.147 452.756 693.727 452.756H693.043C692.527 452.756 692.149 452.852 691.909 453.044C691.681 453.224 691.567 453.494 691.567 453.854C691.567 454.19 691.669 454.442 691.873 454.61C692.077 454.766 692.407 454.88 692.863 454.952L694.141 455.132C695.317 455.3 696.181 455.618 696.733 456.086C697.297 456.542 697.579 457.22 697.579 458.12C697.579 459.08 697.249 459.83 696.589 460.37C695.941 460.898 694.981 461.162 693.709 461.162H692.917ZM704.106 461.18C703.266 461.18 702.534 461.018 701.91 460.694C701.286 460.37 700.8 459.92 700.452 459.344C700.116 458.756 699.948 458.072 699.948 457.292V454.808C699.948 454.028 700.116 453.35 700.452 452.774C700.8 452.186 701.286 451.73 701.91 451.406C702.534 451.082 703.266 450.92 704.106 450.92C704.934 450.92 705.654 451.082 706.266 451.406C706.89 451.73 707.37 452.186 707.706 452.774C708.054 453.35 708.228 454.028 708.228 454.808V456.59H702.126V457.292C702.126 457.988 702.294 458.516 702.63 458.876C702.966 459.224 703.464 459.398 704.124 459.398C704.628 459.398 705.036 459.314 705.348 459.146C705.66 458.966 705.858 458.708 705.942 458.372H708.156C707.988 459.224 707.532 459.908 706.788 460.424C706.056 460.928 705.162 461.18 704.106 461.18ZM706.05 455.33V454.79C706.05 454.106 705.888 453.584 705.564 453.224C705.24 452.852 704.754 452.666 704.106 452.666C703.458 452.666 702.966 452.852 702.63 453.224C702.294 453.596 702.126 454.124 702.126 454.808V455.186L706.212 455.15L706.05 455.33ZM722.127 461V447.86H724.377V458.912H729.957V461H722.127ZM736.484 461.18C735.644 461.18 734.912 461.018 734.288 460.694C733.664 460.37 733.178 459.92 732.83 459.344C732.494 458.756 732.326 458.072 732.326 457.292V454.808C732.326 454.028 732.494 453.35 732.83 452.774C733.178 452.186 733.664 451.73 734.288 451.406C734.912 451.082 735.644 450.92 736.484 450.92C737.312 450.92 738.032 451.082 738.644 451.406C739.268 451.73 739.748 452.186 740.084 452.774C740.432 453.35 740.606 454.028 740.606 454.808V456.59H734.504V457.292C734.504 457.988 734.672 458.516 735.008 458.876C735.344 459.224 735.842 459.398 736.502 459.398C737.006 459.398 737.414 459.314 737.726 459.146C738.038 458.966 738.236 458.708 738.32 458.372H740.534C740.366 459.224 739.91 459.908 739.166 460.424C738.434 460.928 737.54 461.18 736.484 461.18ZM738.428 455.33V454.79C738.428 454.106 738.266 453.584 737.942 453.224C737.618 452.852 737.132 452.666 736.484 452.666C735.836 452.666 735.344 452.852 735.008 453.224C734.672 453.596 734.504 454.124 734.504 454.808V455.186L738.59 455.15L738.428 455.33ZM748.339 461C747.391 461 746.647 460.736 746.107 460.208C745.579 459.68 745.315 458.954 745.315 458.03V453.134H742.633V451.1H745.315V448.31H747.583V451.1H751.381V453.134H747.583V458.03C747.583 458.654 747.889 458.966 748.501 458.966H751.201V461H748.339ZM759.132 461C758.184 461 757.44 460.736 756.9 460.208C756.372 459.68 756.108 458.954 756.108 458.03V453.134H753.426V451.1H756.108V448.31H758.376V451.1H762.174V453.134H758.376V458.03C758.376 458.654 758.682 458.966 759.294 458.966H761.994V461H759.132ZM768.863 461.18C768.023 461.18 767.291 461.018 766.667 460.694C766.043 460.37 765.557 459.92 765.209 459.344C764.873 458.756 764.705 458.072 764.705 457.292V454.808C764.705 454.028 764.873 453.35 765.209 452.774C765.557 452.186 766.043 451.73 766.667 451.406C767.291 451.082 768.023 450.92 768.863 450.92C769.691 450.92 770.411 451.082 771.023 451.406C771.647 451.73 772.127 452.186 772.463 452.774C772.811 453.35 772.985 454.028 772.985 454.808V456.59H766.883V457.292C766.883 457.988 767.051 458.516 767.387 458.876C767.723 459.224 768.221 459.398 768.881 459.398C769.385 459.398 769.793 459.314 770.105 459.146C770.417 458.966 770.615 458.708 770.699 458.372H772.913C772.745 459.224 772.289 459.908 771.545 460.424C770.813 460.928 769.919 461.18 768.863 461.18ZM770.807 455.33V454.79C770.807 454.106 770.645 453.584 770.321 453.224C769.997 452.852 769.511 452.666 768.863 452.666C768.215 452.666 767.723 452.852 767.387 453.224C767.051 453.596 766.883 454.124 766.883 454.808V455.186L770.969 455.15L770.807 455.33ZM775.93 461V451.1H778.054V452.99H778.612L777.946 454.142C777.946 453.074 778.186 452.27 778.666 451.73C779.146 451.19 779.854 450.92 780.79 450.92C781.858 450.92 782.698 451.25 783.31 451.91C783.922 452.57 784.228 453.482 784.228 454.646V455.366H781.87V454.808C781.87 454.172 781.702 453.68 781.366 453.332C781.042 452.984 780.592 452.81 780.016 452.81C779.428 452.81 778.972 452.984 778.648 453.332C778.336 453.68 778.18 454.172 778.18 454.808V461H775.93ZM790.053 461.162C789.297 461.162 788.637 461.042 788.073 460.802C787.509 460.562 787.065 460.232 786.741 459.812C786.429 459.38 786.261 458.876 786.237 458.3H788.487C788.511 458.612 788.661 458.864 788.937 459.056C789.225 459.248 789.597 459.344 790.053 459.344H790.845C791.397 459.344 791.811 459.236 792.087 459.02C792.363 458.804 792.501 458.51 792.501 458.138C792.501 457.79 792.375 457.52 792.123 457.328C791.883 457.124 791.505 456.992 790.989 456.932L789.765 456.752C788.637 456.596 787.809 456.296 787.281 455.852C786.753 455.408 786.489 454.742 786.489 453.854C786.489 452.93 786.801 452.216 787.425 451.712C788.049 451.196 788.967 450.938 790.179 450.938H790.863C791.967 450.938 792.849 451.184 793.509 451.676C794.169 452.168 794.523 452.828 794.571 453.656H792.321C792.285 453.392 792.135 453.176 791.871 453.008C791.619 452.84 791.283 452.756 790.863 452.756H790.179C789.663 452.756 789.285 452.852 789.045 453.044C788.817 453.224 788.703 453.494 788.703 453.854C788.703 454.19 788.805 454.442 789.009 454.61C789.213 454.766 789.543 454.88 789.999 454.952L791.277 455.132C792.453 455.3 793.317 455.618 793.869 456.086C794.433 456.542 794.715 457.22 794.715 458.12C794.715 459.08 794.385 459.83 793.725 460.37C793.077 460.898 792.117 461.162 790.845 461.162H790.053Z" fill="#E6E5EA"/>
<rect x="482" y="443" width="20" height="20" fill="#A4FFAF"/>
<path d="M486 453.607L489.393 457L497.393 449" stroke="#18171F" stroke-width="3"/>
</g>
<g clip-path="url(#clip2_0_286)">
<path d="M527.62 504V502.02H530.266V492.84H527.62V490.86H535.18V492.84H532.534V502.02H535.18V504H527.62ZM538.179 504V494.1H540.375V495.99H540.987L540.375 496.512C540.375 495.696 540.609 495.06 541.077 494.604C541.557 494.148 542.211 493.92 543.039 493.92C544.011 493.92 544.785 494.244 545.361 494.892C545.949 495.54 546.243 496.41 546.243 497.502V504H543.993V497.736C543.993 497.136 543.837 496.674 543.525 496.35C543.213 496.026 542.775 495.864 542.211 495.864C541.659 495.864 541.221 496.032 540.897 496.368C540.585 496.704 540.429 497.184 540.429 497.808V504H538.179ZM553.04 504.18C552.2 504.18 551.462 504.024 550.826 503.712C550.202 503.388 549.716 502.938 549.368 502.362C549.02 501.774 548.846 501.084 548.846 500.292V497.808C548.846 497.004 549.02 496.314 549.368 495.738C549.716 495.162 550.202 494.718 550.826 494.406C551.462 494.082 552.2 493.92 553.04 493.92C554.288 493.92 555.284 494.244 556.028 494.892C556.772 495.528 557.162 496.398 557.198 497.502H554.948C554.912 496.986 554.726 496.59 554.39 496.314C554.066 496.026 553.616 495.882 553.04 495.882C552.44 495.882 551.966 496.05 551.618 496.386C551.27 496.71 551.096 497.178 551.096 497.79V500.292C551.096 500.904 551.27 501.378 551.618 501.714C551.966 502.05 552.44 502.218 553.04 502.218C553.616 502.218 554.066 502.08 554.39 501.804C554.726 501.516 554.912 501.114 554.948 500.598H557.198C557.162 501.702 556.772 502.578 556.028 503.226C555.284 503.862 554.288 504.18 553.04 504.18ZM565.291 504C564.643 504 564.073 503.868 563.581 503.604C563.101 503.34 562.723 502.968 562.447 502.488C562.171 501.996 562.033 501.432 562.033 500.796V492.894H558.865V490.86H564.283V500.796C564.283 501.156 564.385 501.444 564.589 501.66C564.805 501.864 565.093 501.966 565.453 501.966H568.441V504H565.291ZM574.572 504.18C573.312 504.18 572.322 503.832 571.602 503.136C570.882 502.428 570.522 501.468 570.522 500.256V494.1H572.772V500.238C572.772 500.874 572.928 501.366 573.24 501.714C573.552 502.05 573.996 502.218 574.572 502.218C575.136 502.218 575.574 502.05 575.886 501.714C576.21 501.366 576.372 500.874 576.372 500.238V494.1H578.622V500.256C578.622 501.468 578.256 502.428 577.524 503.136C576.792 503.832 575.808 504.18 574.572 504.18ZM584.519 504.18C583.535 504.18 582.737 503.838 582.125 503.154C581.525 502.47 581.225 501.552 581.225 500.4V497.718C581.225 496.554 581.525 495.63 582.125 494.946C582.725 494.262 583.523 493.92 584.519 493.92C585.335 493.92 585.983 494.154 586.463 494.622C586.943 495.078 587.183 495.708 587.183 496.512L586.679 495.99H587.201L587.129 493.632V490.86H589.379V504H587.183V502.11H586.679L587.183 501.588C587.183 502.392 586.943 503.028 586.463 503.496C585.983 503.952 585.335 504.18 584.519 504.18ZM585.311 502.236C585.887 502.236 586.331 502.068 586.643 501.732C586.967 501.384 587.129 500.904 587.129 500.292V497.808C587.129 497.196 586.967 496.722 586.643 496.386C586.331 496.038 585.887 495.864 585.311 495.864C584.735 495.864 584.285 496.032 583.961 496.368C583.637 496.704 583.475 497.184 583.475 497.808V500.292C583.475 500.916 583.637 501.396 583.961 501.732C584.285 502.068 584.735 502.236 585.311 502.236ZM596.176 504.18C595.336 504.18 594.604 504.018 593.98 503.694C593.356 503.37 592.87 502.92 592.522 502.344C592.186 501.756 592.018 501.072 592.018 500.292V497.808C592.018 497.028 592.186 496.35 592.522 495.774C592.87 495.186 593.356 494.73 593.98 494.406C594.604 494.082 595.336 493.92 596.176 493.92C597.004 493.92 597.724 494.082 598.336 494.406C598.96 494.73 599.44 495.186 599.776 495.774C600.124 496.35 600.298 497.028 600.298 497.808V499.59H594.196V500.292C594.196 500.988 594.364 501.516 594.7 501.876C595.036 502.224 595.534 502.398 596.194 502.398C596.698 502.398 597.106 502.314 597.418 502.146C597.73 501.966 597.928 501.708 598.012 501.372H600.226C600.058 502.224 599.602 502.908 598.858 503.424C598.126 503.928 597.232 504.18 596.176 504.18ZM598.12 498.33V497.79C598.12 497.106 597.958 496.584 597.634 496.224C597.31 495.852 596.824 495.666 596.176 495.666C595.528 495.666 595.036 495.852 594.7 496.224C594.364 496.596 594.196 497.124 594.196 497.808V498.186L598.282 498.15L598.12 498.33ZM614.198 504V490.86H616.448V501.912H622.028V504H614.198ZM628.537 504.162C627.697 504.162 626.965 504.006 626.341 503.694C625.729 503.37 625.249 502.92 624.901 502.344C624.565 501.756 624.397 501.066 624.397 500.274V497.826C624.397 497.034 624.565 496.35 624.901 495.774C625.249 495.186 625.729 494.736 626.341 494.424C626.965 494.1 627.697 493.938 628.537 493.938C629.389 493.938 630.121 494.1 630.733 494.424C631.345 494.736 631.819 495.186 632.155 495.774C632.503 496.35 632.677 497.028 632.677 497.808V500.274C632.677 501.066 632.503 501.756 632.155 502.344C631.819 502.92 631.345 503.37 630.733 503.694C630.121 504.006 629.389 504.162 628.537 504.162ZM628.537 502.2C629.137 502.2 629.599 502.038 629.923 501.714C630.259 501.378 630.427 500.898 630.427 500.274V497.826C630.427 497.19 630.259 496.71 629.923 496.386C629.599 496.062 629.137 495.9 628.537 495.9C627.949 495.9 627.487 496.062 627.151 496.386C626.815 496.71 626.647 497.19 626.647 497.826V500.274C626.647 500.898 626.815 501.378 627.151 501.714C627.487 502.038 627.949 502.2 628.537 502.2ZM635.802 504L634.29 494.1H636.162L636.99 500.166C637.038 500.514 637.08 500.898 637.116 501.318C637.164 501.738 637.2 502.086 637.224 502.362C637.26 502.086 637.308 501.738 637.368 501.318C637.428 500.898 637.482 500.514 637.53 500.166L638.466 494.1H640.212L641.13 500.166C641.178 500.514 641.232 500.904 641.292 501.336C641.352 501.756 641.4 502.104 641.436 502.38C641.46 502.092 641.496 501.738 641.544 501.318C641.604 500.886 641.652 500.502 641.688 500.166L642.57 494.1H644.37L642.822 504H640.5L639.636 497.898C639.588 497.562 639.534 497.19 639.474 496.782C639.414 496.362 639.366 496.02 639.33 495.756C639.294 496.02 639.246 496.362 639.186 496.782C639.138 497.19 639.084 497.562 639.024 497.898L638.124 504H635.802ZM650.141 504.18C649.301 504.18 648.569 504.018 647.945 503.694C647.321 503.37 646.835 502.92 646.487 502.344C646.151 501.756 645.983 501.072 645.983 500.292V497.808C645.983 497.028 646.151 496.35 646.487 495.774C646.835 495.186 647.321 494.73 647.945 494.406C648.569 494.082 649.301 493.92 650.141 493.92C650.969 493.92 651.689 494.082 652.301 494.406C652.925 494.73 653.405 495.186 653.741 495.774C654.089 496.35 654.263 497.028 654.263 497.808V499.59H648.161V500.292C648.161 500.988 648.329 501.516 648.665 501.876C649.001 502.224 649.499 502.398 650.159 502.398C650.663 502.398 651.071 502.314 651.383 502.146C651.695 501.966 651.893 501.708 651.977 501.372H654.191C654.023 502.224 653.567 502.908 652.823 503.424C652.091 503.928 651.197 504.18 650.141 504.18ZM652.085 498.33V497.79C652.085 497.106 651.923 496.584 651.599 496.224C651.275 495.852 650.789 495.666 650.141 495.666C649.493 495.666 649.001 495.852 648.665 496.224C648.329 496.596 648.161 497.124 648.161 497.808V498.186L652.247 498.15L652.085 498.33ZM657.208 504V494.1H659.332V495.99H659.89L659.224 497.142C659.224 496.074 659.464 495.27 659.944 494.73C660.424 494.19 661.132 493.92 662.068 493.92C663.136 493.92 663.976 494.25 664.588 494.91C665.2 495.57 665.506 496.482 665.506 497.646V498.366H663.148V497.808C663.148 497.172 662.98 496.68 662.644 496.332C662.32 495.984 661.87 495.81 661.294 495.81C660.706 495.81 660.25 495.984 659.926 496.332C659.614 496.68 659.458 497.172 659.458 497.808V504H657.208ZM671.763 504.18C670.923 504.18 670.185 504.024 669.549 503.712C668.925 503.388 668.439 502.938 668.091 502.362C667.743 501.774 667.569 501.084 667.569 500.292V497.808C667.569 497.004 667.743 496.314 668.091 495.738C668.439 495.162 668.925 494.718 669.549 494.406C670.185 494.082 670.923 493.92 671.763 493.92C673.011 493.92 674.007 494.244 674.751 494.892C675.495 495.528 675.885 496.398 675.921 497.502H673.671C673.635 496.986 673.449 496.59 673.113 496.314C672.789 496.026 672.339 495.882 671.763 495.882C671.163 495.882 670.689 496.05 670.341 496.386C669.993 496.71 669.819 497.178 669.819 497.79V500.292C669.819 500.904 669.993 501.378 670.341 501.714C670.689 502.05 671.163 502.218 671.763 502.218C672.339 502.218 672.789 502.08 673.113 501.804C673.449 501.516 673.635 501.114 673.671 500.598H675.921C675.885 501.702 675.495 502.578 674.751 503.226C674.007 503.862 673.011 504.18 671.763 504.18ZM681.404 504.18C680.384 504.18 679.58 503.91 678.992 503.37C678.404 502.83 678.11 502.104 678.11 501.192C678.11 500.22 678.434 499.47 679.082 498.942C679.73 498.414 680.648 498.15 681.836 498.15H684.302V497.304C684.302 496.824 684.146 496.452 683.834 496.188C683.522 495.912 683.096 495.774 682.556 495.774C682.064 495.774 681.656 495.882 681.332 496.098C681.008 496.314 680.816 496.608 680.756 496.98H678.56C678.668 496.044 679.088 495.3 679.82 494.748C680.552 494.196 681.488 493.92 682.628 493.92C683.84 493.92 684.794 494.226 685.49 494.838C686.198 495.438 686.552 496.254 686.552 497.286V504H684.374V502.272H684.014L684.374 501.786C684.374 502.518 684.104 503.1 683.564 503.532C683.024 503.964 682.304 504.18 681.404 504.18ZM682.142 502.488C682.778 502.488 683.294 502.326 683.69 502.002C684.098 501.678 684.302 501.258 684.302 500.742V499.536H681.872C681.416 499.536 681.05 499.668 680.774 499.932C680.498 500.196 680.36 500.544 680.36 500.976C680.36 501.444 680.516 501.816 680.828 502.092C681.152 502.356 681.59 502.488 682.142 502.488ZM692.917 504.162C692.161 504.162 691.501 504.042 690.937 503.802C690.373 503.562 689.929 503.232 689.605 502.812C689.293 502.38 689.125 501.876 689.101 501.3H691.351C691.375 501.612 691.525 501.864 691.801 502.056C692.089 502.248 692.461 502.344 692.917 502.344H693.709C694.261 502.344 694.675 502.236 694.951 502.02C695.227 501.804 695.365 501.51 695.365 501.138C695.365 500.79 695.239 500.52 694.987 500.328C694.747 500.124 694.369 499.992 693.853 499.932L692.629 499.752C691.501 499.596 690.673 499.296 690.145 498.852C689.617 498.408 689.353 497.742 689.353 496.854C689.353 495.93 689.665 495.216 690.289 494.712C690.913 494.196 691.831 493.938 693.043 493.938H693.727C694.831 493.938 695.713 494.184 696.373 494.676C697.033 495.168 697.387 495.828 697.435 496.656H695.185C695.149 496.392 694.999 496.176 694.735 496.008C694.483 495.84 694.147 495.756 693.727 495.756H693.043C692.527 495.756 692.149 495.852 691.909 496.044C691.681 496.224 691.567 496.494 691.567 496.854C691.567 497.19 691.669 497.442 691.873 497.61C692.077 497.766 692.407 497.88 692.863 497.952L694.141 498.132C695.317 498.3 696.181 498.618 696.733 499.086C697.297 499.542 697.579 500.22 697.579 501.12C697.579 502.08 697.249 502.83 696.589 503.37C695.941 503.898 694.981 504.162 693.709 504.162H692.917ZM704.106 504.18C703.266 504.18 702.534 504.018 701.91 503.694C701.286 503.37 700.8 502.92 700.452 502.344C700.116 501.756 699.948 501.072 699.948 500.292V497.808C699.948 497.028 700.116 496.35 700.452 495.774C700.8 495.186 701.286 494.73 701.91 494.406C702.534 494.082 703.266 493.92 704.106 493.92C704.934 493.92 705.654 494.082 706.266 494.406C706.89 494.73 707.37 495.186 707.706 495.774C708.054 496.35 708.228 497.028 708.228 497.808V499.59H702.126V500.292C702.126 500.988 702.294 501.516 702.63 501.876C702.966 502.224 703.464 502.398 704.124 502.398C704.628 502.398 705.036 502.314 705.348 502.146C705.66 501.966 705.858 501.708 705.942 501.372H708.156C707.988 502.224 707.532 502.908 706.788 503.424C706.056 503.928 705.162 504.18 704.106 504.18ZM706.05 498.33V497.79C706.05 497.106 705.888 496.584 705.564 496.224C705.24 495.852 704.754 495.666 704.106 495.666C703.458 495.666 702.966 495.852 702.63 496.224C702.294 496.596 702.126 497.124 702.126 497.808V498.186L706.212 498.15L706.05 498.33ZM722.127 504V490.86H724.377V501.912H729.957V504H722.127ZM736.484 504.18C735.644 504.18 734.912 504.018 734.288 503.694C733.664 503.37 733.178 502.92 732.83 502.344C732.494 501.756 732.326 501.072 732.326 500.292V497.808C732.326 497.028 732.494 496.35 732.83 495.774C733.178 495.186 733.664 494.73 734.288 494.406C734.912 494.082 735.644 493.92 736.484 493.92C737.312 493.92 738.032 494.082 738.644 494.406C739.268 494.73 739.748 495.186 740.084 495.774C740.432 496.35 740.606 497.028 740.606 497.808V499.59H734.504V500.292C734.504 500.988 734.672 501.516 735.008 501.876C735.344 502.224 735.842 502.398 736.502 502.398C737.006 502.398 737.414 502.314 737.726 502.146C738.038 501.966 738.236 501.708 738.32 501.372H740.534C740.366 502.224 739.91 502.908 739.166 503.424C738.434 503.928 737.54 504.18 736.484 504.18ZM738.428 498.33V497.79C738.428 497.106 738.266 496.584 737.942 496.224C737.618 495.852 737.132 495.666 736.484 495.666C735.836 495.666 735.344 495.852 735.008 496.224C734.672 496.596 734.504 497.124 734.504 497.808V498.186L738.59 498.15L738.428 498.33ZM748.339 504C747.391 504 746.647 503.736 746.107 503.208C745.579 502.68 745.315 501.954 745.315 501.03V496.134H742.633V494.1H745.315V491.31H747.583V494.1H751.381V496.134H747.583V501.03C747.583 501.654 747.889 501.966 748.501 501.966H751.201V504H748.339ZM759.132 504C758.184 504 757.44 503.736 756.9 503.208C756.372 502.68 756.108 501.954 756.108 501.03V496.134H753.426V494.1H756.108V491.31H758.376V494.1H762.174V496.134H758.376V501.03C758.376 501.654 758.682 501.966 759.294 501.966H761.994V504H759.132ZM768.863 504.18C768.023 504.18 767.291 504.018 766.667 503.694C766.043 503.37 765.557 502.92 765.209 502.344C764.873 501.756 764.705 501.072 764.705 500.292V497.808C764.705 497.028 764.873 496.35 765.209 495.774C765.557 495.186 766.043 494.73 766.667 494.406C767.291 494.082 768.023 493.92 768.863 493.92C769.691 493.92 770.411 494.082 771.023 494.406C771.647 494.73 772.127 495.186 772.463 495.774C772.811 496.35 772.985 497.028 772.985 497.808V499.59H766.883V500.292C766.883 500.988 767.051 501.516 767.387 501.876C767.723 502.224 768.221 502.398 768.881 502.398C769.385 502.398 769.793 502.314 770.105 502.146C770.417 501.966 770.615 501.708 770.699 501.372H772.913C772.745 502.224 772.289 502.908 771.545 503.424C770.813 503.928 769.919 504.18 768.863 504.18ZM770.807 498.33V497.79C770.807 497.106 770.645 496.584 770.321 496.224C769.997 495.852 769.511 495.666 768.863 495.666C768.215 495.666 767.723 495.852 767.387 496.224C767.051 496.596 766.883 497.124 766.883 497.808V498.186L770.969 498.15L770.807 498.33ZM775.93 504V494.1H778.054V495.99H778.612L777.946 497.142C777.946 496.074 778.186 495.27 778.666 494.73C779.146 494.19 779.854 493.92 780.79 493.92C781.858 493.92 782.698 494.25 783.31 494.91C783.922 495.57 784.228 496.482 784.228 497.646V498.366H781.87V497.808C781.87 497.172 781.702 496.68 781.366 496.332C781.042 495.984 780.592 495.81 780.016 495.81C779.428 495.81 778.972 495.984 778.648 496.332C778.336 496.68 778.18 497.172 778.18 497.808V504H775.93ZM790.053 504.162C789.297 504.162 788.637 504.042 788.073 503.802C787.509 503.562 787.065 503.232 786.741 502.812C786.429 502.38 786.261 501.876 786.237 501.3H788.487C788.511 501.612 788.661 501.864 788.937 502.056C789.225 502.248 789.597 502.344 790.053 502.344H790.845C791.397 502.344 791.811 502.236 792.087 502.02C792.363 501.804 792.501 501.51 792.501 501.138C792.501 500.79 792.375 500.52 792.123 500.328C791.883 500.124 791.505 499.992 790.989 499.932L789.765 499.752C788.637 499.596 787.809 499.296 787.281 498.852C786.753 498.408 786.489 497.742 786.489 496.854C786.489 495.93 786.801 495.216 787.425 494.712C788.049 494.196 788.967 493.938 790.179 493.938H790.863C791.967 493.938 792.849 494.184 793.509 494.676C794.169 495.168 794.523 495.828 794.571 496.656H792.321C792.285 496.392 792.135 496.176 791.871 496.008C791.619 495.84 791.283 495.756 790.863 495.756H790.179C789.663 495.756 789.285 495.852 789.045 496.044C788.817 496.224 788.703 496.494 788.703 496.854C788.703 497.19 788.805 497.442 789.009 497.61C789.213 497.766 789.543 497.88 789.999 497.952L791.277 498.132C792.453 498.3 793.317 498.618 793.869 499.086C794.433 499.542 794.715 500.22 794.715 501.12C794.715 502.08 794.385 502.83 793.725 503.37C793.077 503.898 792.117 504.162 790.845 504.162H790.053Z" fill="#E6E5EA"/>
<rect x="482" y="486" width="20" height="20" fill="#A4FFAF"/>
<path d="M486 496.607L489.393 500L497.393 492" stroke="#18171F" stroke-width="3"/>
</g>
<g clip-path="url(#clip3_0_286)">
<path d="M527.62 547V545.02H530.266V535.84H527.62V533.86H535.18V535.84H532.534V545.02H535.18V547H527.62ZM538.179 547V537.1H540.375V538.99H540.987L540.375 539.512C540.375 538.696 540.609 538.06 541.077 537.604C541.557 537.148 542.211 536.92 543.039 536.92C544.011 536.92 544.785 537.244 545.361 537.892C545.949 538.54 546.243 539.41 546.243 540.502V547H543.993V540.736C543.993 540.136 543.837 539.674 543.525 539.35C543.213 539.026 542.775 538.864 542.211 538.864C541.659 538.864 541.221 539.032 540.897 539.368C540.585 539.704 540.429 540.184 540.429 540.808V547H538.179ZM553.04 547.18C552.2 547.18 551.462 547.024 550.826 546.712C550.202 546.388 549.716 545.938 549.368 545.362C549.02 544.774 548.846 544.084 548.846 543.292V540.808C548.846 540.004 549.02 539.314 549.368 538.738C549.716 538.162 550.202 537.718 550.826 537.406C551.462 537.082 552.2 536.92 553.04 536.92C554.288 536.92 555.284 537.244 556.028 537.892C556.772 538.528 557.162 539.398 557.198 540.502H554.948C554.912 539.986 554.726 539.59 554.39 539.314C554.066 539.026 553.616 538.882 553.04 538.882C552.44 538.882 551.966 539.05 551.618 539.386C551.27 539.71 551.096 540.178 551.096 540.79V543.292C551.096 543.904 551.27 544.378 551.618 544.714C551.966 545.05 552.44 545.218 553.04 545.218C553.616 545.218 554.066 545.08 554.39 544.804C554.726 544.516 554.912 544.114 554.948 543.598H557.198C557.162 544.702 556.772 545.578 556.028 546.226C555.284 546.862 554.288 547.18 553.04 547.18ZM565.291 547C564.643 547 564.073 546.868 563.581 546.604C563.101 546.34 562.723 545.968 562.447 545.488C562.171 544.996 562.033 544.432 562.033 543.796V535.894H558.865V533.86H564.283V543.796C564.283 544.156 564.385 544.444 564.589 544.66C564.805 544.864 565.093 544.966 565.453 544.966H568.441V547H565.291ZM574.572 547.18C573.312 547.18 572.322 546.832 571.602 546.136C570.882 545.428 570.522 544.468 570.522 543.256V537.1H572.772V543.238C572.772 543.874 572.928 544.366 573.24 544.714C573.552 545.05 573.996 545.218 574.572 545.218C575.136 545.218 575.574 545.05 575.886 544.714C576.21 544.366 576.372 543.874 576.372 543.238V537.1H578.622V543.256C578.622 544.468 578.256 545.428 577.524 546.136C576.792 546.832 575.808 547.18 574.572 547.18ZM584.519 547.18C583.535 547.18 582.737 546.838 582.125 546.154C581.525 545.47 581.225 544.552 581.225 543.4V540.718C581.225 539.554 581.525 538.63 582.125 537.946C582.725 537.262 583.523 536.92 584.519 536.92C585.335 536.92 585.983 537.154 586.463 537.622C586.943 538.078 587.183 538.708 587.183 539.512L586.679 538.99H587.201L587.129 536.632V533.86H589.379V547H587.183V545.11H586.679L587.183 544.588C587.183 545.392 586.943 546.028 586.463 546.496C585.983 546.952 585.335 547.18 584.519 547.18ZM585.311 545.236C585.887 545.236 586.331 545.068 586.643 544.732C586.967 544.384 587.129 543.904 587.129 543.292V540.808C587.129 540.196 586.967 539.722 586.643 539.386C586.331 539.038 585.887 538.864 585.311 538.864C584.735 538.864 584.285 539.032 583.961 539.368C583.637 539.704 583.475 540.184 583.475 540.808V543.292C583.475 543.916 583.637 544.396 583.961 544.732C584.285 545.068 584.735 545.236 585.311 545.236ZM596.176 547.18C595.336 547.18 594.604 547.018 593.98 546.694C593.356 546.37 592.87 545.92 592.522 545.344C592.186 544.756 592.018 544.072 592.018 543.292V540.808C592.018 540.028 592.186 539.35 592.522 538.774C592.87 538.186 593.356 537.73 593.98 537.406C594.604 537.082 595.336 536.92 596.176 536.92C597.004 536.92 597.724 537.082 598.336 537.406C598.96 537.73 599.44 538.186 599.776 538.774C600.124 539.35 600.298 540.028 600.298 540.808V542.59H594.196V543.292C594.196 543.988 594.364 544.516 594.7 544.876C595.036 545.224 595.534 545.398 596.194 545.398C596.698 545.398 597.106 545.314 597.418 545.146C597.73 544.966 597.928 544.708 598.012 544.372H600.226C600.058 545.224 599.602 545.908 598.858 546.424C598.126 546.928 597.232 547.18 596.176 547.18ZM598.12 541.33V540.79C598.12 540.106 597.958 539.584 597.634 539.224C597.31 538.852 596.824 538.666 596.176 538.666C595.528 538.666 595.036 538.852 594.7 539.224C594.364 539.596 594.196 540.124 594.196 540.808V541.186L598.282 541.15L598.12 541.33ZM613.64 547V533.86H616.394L620.048 544.48C620.012 544.096 619.97 543.646 619.922 543.13C619.886 542.602 619.856 542.068 619.832 541.528C619.808 540.976 619.796 540.496 619.796 540.088V533.86H621.848V547H619.094L615.476 536.38C615.5 536.728 615.53 537.148 615.566 537.64C615.602 538.132 615.632 538.636 615.656 539.152C615.68 539.668 615.692 540.142 615.692 540.574V547H613.64ZM628.537 547.18C627.277 547.18 626.287 546.832 625.567 546.136C624.847 545.428 624.487 544.468 624.487 543.256V537.1H626.737V543.238C626.737 543.874 626.893 544.366 627.205 544.714C627.517 545.05 627.961 545.218 628.537 545.218C629.101 545.218 629.539 545.05 629.851 544.714C630.175 544.366 630.337 543.874 630.337 543.238V537.1H632.587V543.256C632.587 544.468 632.221 545.428 631.489 546.136C630.757 546.832 629.773 547.18 628.537 547.18ZM634.866 547V537.1H636.702V538.432H637.08L636.774 538.756C636.774 538.204 636.93 537.76 637.242 537.424C637.554 537.088 637.956 536.92 638.448 536.92C638.976 536.92 639.384 537.136 639.672 537.568C639.972 538 640.122 538.582 640.122 539.314L639.726 538.432H640.338L640.104 538.756C640.104 538.204 640.26 537.76 640.572 537.424C640.884 537.088 641.298 536.92 641.814 536.92C642.426 536.92 642.912 537.148 643.272 537.604C643.632 538.06 643.812 538.678 643.812 539.458V547H641.832V539.548C641.832 539.224 641.76 538.972 641.616 538.792C641.472 538.6 641.262 538.504 640.986 538.504C640.722 538.504 640.512 538.594 640.356 538.774C640.212 538.954 640.14 539.212 640.14 539.548V547H638.52V539.548C638.52 539.212 638.448 538.954 638.304 538.774C638.16 538.594 637.95 538.504 637.674 538.504C637.398 538.504 637.188 538.594 637.044 538.774C636.912 538.954 636.846 539.212 636.846 539.548V547H634.866ZM650.969 547.18C650.153 547.18 649.505 546.952 649.025 546.496C648.545 546.028 648.305 545.392 648.305 544.588L648.809 545.11H648.305V547H646.109V533.86H648.359V536.632L648.287 538.99H648.809L648.305 539.512C648.305 538.708 648.545 538.078 649.025 537.622C649.505 537.154 650.153 536.92 650.969 536.92C651.965 536.92 652.763 537.262 653.363 537.946C653.963 538.63 654.263 539.554 654.263 540.718V543.4C654.263 544.552 653.963 545.47 653.363 546.154C652.763 546.838 651.965 547.18 650.969 547.18ZM650.177 545.236C650.753 545.236 651.203 545.068 651.527 544.732C651.851 544.396 652.013 543.916 652.013 543.292V540.808C652.013 540.184 651.851 539.704 651.527 539.368C651.203 539.032 650.753 538.864 650.177 538.864C649.613 538.864 649.169 539.038 648.845 539.386C648.521 539.722 648.359 540.196 648.359 540.808V543.292C648.359 543.904 648.521 544.384 648.845 544.732C649.169 545.068 649.613 545.236 650.177 545.236ZM660.934 547.18C660.094 547.18 659.362 547.018 658.738 546.694C658.114 546.37 657.628 545.92 657.28 545.344C656.944 544.756 656.776 544.072 656.776 543.292V540.808C656.776 540.028 656.944 539.35 657.28 538.774C657.628 538.186 658.114 537.73 658.738 537.406C659.362 537.082 660.094 536.92 660.934 536.92C661.762 536.92 662.482 537.082 663.094 537.406C663.718 537.73 664.198 538.186 664.534 538.774C664.882 539.35 665.056 540.028 665.056 540.808V542.59H658.954V543.292C658.954 543.988 659.122 544.516 659.458 544.876C659.794 545.224 660.292 545.398 660.952 545.398C661.456 545.398 661.864 545.314 662.176 545.146C662.488 544.966 662.686 544.708 662.77 544.372H664.984C664.816 545.224 664.36 545.908 663.616 546.424C662.884 546.928 661.99 547.18 660.934 547.18ZM662.878 541.33V540.79C662.878 540.106 662.716 539.584 662.392 539.224C662.068 538.852 661.582 538.666 660.934 538.666C660.286 538.666 659.794 538.852 659.458 539.224C659.122 539.596 658.954 540.124 658.954 540.808V541.186L663.04 541.15L662.878 541.33ZM668.001 547V537.1H670.125V538.99H670.683L670.017 540.142C670.017 539.074 670.257 538.27 670.737 537.73C671.217 537.19 671.925 536.92 672.861 536.92C673.929 536.92 674.769 537.25 675.381 537.91C675.993 538.57 676.299 539.482 676.299 540.646V541.366H673.941V540.808C673.941 540.172 673.773 539.68 673.437 539.332C673.113 538.984 672.663 538.81 672.087 538.81C671.499 538.81 671.043 538.984 670.719 539.332C670.407 539.68 670.251 540.172 670.251 540.808V547H668.001ZM682.124 547.162C681.368 547.162 680.708 547.042 680.144 546.802C679.58 546.562 679.136 546.232 678.812 545.812C678.5 545.38 678.332 544.876 678.308 544.3H680.558C680.582 544.612 680.732 544.864 681.008 545.056C681.296 545.248 681.668 545.344 682.124 545.344H682.916C683.468 545.344 683.882 545.236 684.158 545.02C684.434 544.804 684.572 544.51 684.572 544.138C684.572 543.79 684.446 543.52 684.194 543.328C683.954 543.124 683.576 542.992 683.06 542.932L681.836 542.752C680.708 542.596 679.88 542.296 679.352 541.852C678.824 541.408 678.56 540.742 678.56 539.854C678.56 538.93 678.872 538.216 679.496 537.712C680.12 537.196 681.038 536.938 682.25 536.938H682.934C684.038 536.938 684.92 537.184 685.58 537.676C686.24 538.168 686.594 538.828 686.642 539.656H684.392C684.356 539.392 684.206 539.176 683.942 539.008C683.69 538.84 683.354 538.756 682.934 538.756H682.25C681.734 538.756 681.356 538.852 681.116 539.044C680.888 539.224 680.774 539.494 680.774 539.854C680.774 540.19 680.876 540.442 681.08 540.61C681.284 540.766 681.614 540.88 682.07 540.952L683.348 541.132C684.524 541.3 685.388 541.618 685.94 542.086C686.504 542.542 686.786 543.22 686.786 544.12C686.786 545.08 686.456 545.83 685.796 546.37C685.148 546.898 684.188 547.162 682.916 547.162H682.124Z" fill="#E6E5EA"/>
<rect x="482" y="529" width="20" height="20" fill="#A4FFAF"/>
<path d="M486 539.607L489.393 543L497.393 535" stroke="#18171F" stroke-width="3"/>
</g>
<g clip-path="url(#clip4_0_286)">
<path d="M527.62 590V588.02H530.266V578.84H527.62V576.86H535.18V578.84H532.534V588.02H535.18V590H527.62ZM538.179 590V580.1H540.375V581.99H540.987L540.375 582.512C540.375 581.696 540.609 581.06 541.077 580.604C541.557 580.148 542.211 579.92 543.039 579.92C544.011 579.92 544.785 580.244 545.361 580.892C545.949 581.54 546.243 582.41 546.243 583.502V590H543.993V583.736C543.993 583.136 543.837 582.674 543.525 582.35C543.213 582.026 542.775 581.864 542.211 581.864C541.659 581.864 541.221 582.032 540.897 582.368C540.585 582.704 540.429 583.184 540.429 583.808V590H538.179ZM553.04 590.18C552.2 590.18 551.462 590.024 550.826 589.712C550.202 589.388 549.716 588.938 549.368 588.362C549.02 587.774 548.846 587.084 548.846 586.292V583.808C548.846 583.004 549.02 582.314 549.368 581.738C549.716 581.162 550.202 580.718 550.826 580.406C551.462 580.082 552.2 579.92 553.04 579.92C554.288 579.92 555.284 580.244 556.028 580.892C556.772 581.528 557.162 582.398 557.198 583.502H554.948C554.912 582.986 554.726 582.59 554.39 582.314C554.066 582.026 553.616 581.882 553.04 581.882C552.44 581.882 551.966 582.05 551.618 582.386C551.27 582.71 551.096 583.178 551.096 583.79V586.292C551.096 586.904 551.27 587.378 551.618 587.714C551.966 588.05 552.44 588.218 553.04 588.218C553.616 588.218 554.066 588.08 554.39 587.804C554.726 587.516 554.912 587.114 554.948 586.598H557.198C557.162 587.702 556.772 588.578 556.028 589.226C555.284 589.862 554.288 590.18 553.04 590.18ZM565.291 590C564.643 590 564.073 589.868 563.581 589.604C563.101 589.34 562.723 588.968 562.447 588.488C562.171 587.996 562.033 587.432 562.033 586.796V578.894H558.865V576.86H564.283V586.796C564.283 587.156 564.385 587.444 564.589 587.66C564.805 587.864 565.093 587.966 565.453 587.966H568.441V590H565.291ZM574.572 590.18C573.312 590.18 572.322 589.832 571.602 589.136C570.882 588.428 570.522 587.468 570.522 586.256V580.1H572.772V586.238C572.772 586.874 572.928 587.366 573.24 587.714C573.552 588.05 573.996 588.218 574.572 588.218C575.136 588.218 575.574 588.05 575.886 587.714C576.21 587.366 576.372 586.874 576.372 586.238V580.1H578.622V586.256C578.622 587.468 578.256 588.428 577.524 589.136C576.792 589.832 575.808 590.18 574.572 590.18ZM584.519 590.18C583.535 590.18 582.737 589.838 582.125 589.154C581.525 588.47 581.225 587.552 581.225 586.4V583.718C581.225 582.554 581.525 581.63 582.125 580.946C582.725 580.262 583.523 579.92 584.519 579.92C585.335 579.92 585.983 580.154 586.463 580.622C586.943 581.078 587.183 581.708 587.183 582.512L586.679 581.99H587.201L587.129 579.632V576.86H589.379V590H587.183V588.11H586.679L587.183 587.588C587.183 588.392 586.943 589.028 586.463 589.496C585.983 589.952 585.335 590.18 584.519 590.18ZM585.311 588.236C585.887 588.236 586.331 588.068 586.643 587.732C586.967 587.384 587.129 586.904 587.129 586.292V583.808C587.129 583.196 586.967 582.722 586.643 582.386C586.331 582.038 585.887 581.864 585.311 581.864C584.735 581.864 584.285 582.032 583.961 582.368C583.637 582.704 583.475 583.184 583.475 583.808V586.292C583.475 586.916 583.637 587.396 583.961 587.732C584.285 588.068 584.735 588.236 585.311 588.236ZM596.176 590.18C595.336 590.18 594.604 590.018 593.98 589.694C593.356 589.37 592.87 588.92 592.522 588.344C592.186 587.756 592.018 587.072 592.018 586.292V583.808C592.018 583.028 592.186 582.35 592.522 581.774C592.87 581.186 593.356 580.73 593.98 580.406C594.604 580.082 595.336 579.92 596.176 579.92C597.004 579.92 597.724 580.082 598.336 580.406C598.96 580.73 599.44 581.186 599.776 581.774C600.124 582.35 600.298 583.028 600.298 583.808V585.59H594.196V586.292C594.196 586.988 594.364 587.516 594.7 587.876C595.036 588.224 595.534 588.398 596.194 588.398C596.698 588.398 597.106 588.314 597.418 588.146C597.73 587.966 597.928 587.708 598.012 587.372H600.226C600.058 588.224 599.602 588.908 598.858 589.424C598.126 589.928 597.232 590.18 596.176 590.18ZM598.12 584.33V583.79C598.12 583.106 597.958 582.584 597.634 582.224C597.31 581.852 596.824 581.666 596.176 581.666C595.528 581.666 595.036 581.852 594.7 582.224C594.364 582.596 594.196 583.124 594.196 583.808V584.186L598.282 584.15L598.12 584.33ZM617.78 590.18C616.88 590.18 616.1 590.03 615.44 589.73C614.78 589.43 614.27 589.004 613.91 588.452C613.562 587.888 613.382 587.228 613.37 586.472H615.62C615.62 587.012 615.812 587.438 616.196 587.75C616.592 588.05 617.126 588.2 617.798 588.2C618.446 588.2 618.95 588.05 619.31 587.75C619.682 587.45 619.868 587.036 619.868 586.508C619.868 586.064 619.736 585.68 619.472 585.356C619.22 585.02 618.854 584.792 618.374 584.672L616.862 584.258C615.83 583.994 615.032 583.52 614.468 582.836C613.916 582.152 613.64 581.324 613.64 580.352C613.64 579.608 613.808 578.96 614.144 578.408C614.48 577.856 614.954 577.43 615.566 577.13C616.19 576.83 616.922 576.68 617.762 576.68C619.034 576.68 620.042 577.01 620.786 577.67C621.53 578.318 621.908 579.194 621.92 580.298H619.67C619.67 579.782 619.502 579.38 619.166 579.092C618.83 578.792 618.356 578.642 617.744 578.642C617.156 578.642 616.7 578.78 616.376 579.056C616.052 579.332 615.89 579.722 615.89 580.226C615.89 580.682 616.01 581.072 616.25 581.396C616.502 581.708 616.862 581.93 617.33 582.062L618.896 582.494C619.94 582.758 620.738 583.232 621.29 583.916C621.842 584.588 622.118 585.422 622.118 586.418C622.118 587.162 621.938 587.822 621.578 588.398C621.218 588.962 620.714 589.4 620.066 589.712C619.418 590.024 618.656 590.18 617.78 590.18ZM626.125 593.24L627.511 589.46L623.821 580.1H626.287L628.123 585.158C628.219 585.434 628.315 585.77 628.411 586.166C628.507 586.55 628.579 586.868 628.627 587.12C628.687 586.868 628.765 586.55 628.861 586.166C628.957 585.77 629.053 585.434 629.149 585.158L630.877 580.1H633.253L628.483 593.24H626.125ZM634.866 590V580.1H636.702V581.432H637.08L636.774 581.756C636.774 581.204 636.93 580.76 637.242 580.424C637.554 580.088 637.956 579.92 638.448 579.92C638.976 579.92 639.384 580.136 639.672 580.568C639.972 581 640.122 581.582 640.122 582.314L639.726 581.432H640.338L640.104 581.756C640.104 581.204 640.26 580.76 640.572 580.424C640.884 580.088 641.298 579.92 641.814 579.92C642.426 579.92 642.912 580.148 643.272 580.604C643.632 581.06 643.812 581.678 643.812 582.458V590H641.832V582.548C641.832 582.224 641.76 581.972 641.616 581.792C641.472 581.6 641.262 581.504 640.986 581.504C640.722 581.504 640.512 581.594 640.356 581.774C640.212 581.954 640.14 582.212 640.14 582.548V590H638.52V582.548C638.52 582.212 638.448 581.954 638.304 581.774C638.16 581.594 637.95 581.504 637.674 581.504C637.398 581.504 637.188 581.594 637.044 581.774C636.912 581.954 636.846 582.212 636.846 582.548V590H634.866ZM650.969 590.18C650.153 590.18 649.505 589.952 649.025 589.496C648.545 589.028 648.305 588.392 648.305 587.588L648.809 588.11H648.305V590H646.109V576.86H648.359V579.632L648.287 581.99H648.809L648.305 582.512C648.305 581.708 648.545 581.078 649.025 580.622C649.505 580.154 650.153 579.92 650.969 579.92C651.965 579.92 652.763 580.262 653.363 580.946C653.963 581.63 654.263 582.554 654.263 583.718V586.4C654.263 587.552 653.963 588.47 653.363 589.154C652.763 589.838 651.965 590.18 650.969 590.18ZM650.177 588.236C650.753 588.236 651.203 588.068 651.527 587.732C651.851 587.396 652.013 586.916 652.013 586.292V583.808C652.013 583.184 651.851 582.704 651.527 582.368C651.203 582.032 650.753 581.864 650.177 581.864C649.613 581.864 649.169 582.038 648.845 582.386C648.521 582.722 648.359 583.196 648.359 583.808V586.292C648.359 586.904 648.521 587.384 648.845 587.732C649.169 588.068 649.613 588.236 650.177 588.236ZM660.916 590.162C660.076 590.162 659.344 590.006 658.72 589.694C658.108 589.37 657.628 588.92 657.28 588.344C656.944 587.756 656.776 587.066 656.776 586.274V583.826C656.776 583.034 656.944 582.35 657.28 581.774C657.628 581.186 658.108 580.736 658.72 580.424C659.344 580.1 660.076 579.938 660.916 579.938C661.768 579.938 662.5 580.1 663.112 580.424C663.724 580.736 664.198 581.186 664.534 581.774C664.882 582.35 665.056 583.028 665.056 583.808V586.274C665.056 587.066 664.882 587.756 664.534 588.344C664.198 588.92 663.724 589.37 663.112 589.694C662.5 590.006 661.768 590.162 660.916 590.162ZM660.916 588.2C661.516 588.2 661.978 588.038 662.302 587.714C662.638 587.378 662.806 586.898 662.806 586.274V583.826C662.806 583.19 662.638 582.71 662.302 582.386C661.978 582.062 661.516 581.9 660.916 581.9C660.328 581.9 659.866 582.062 659.53 582.386C659.194 582.71 659.026 583.19 659.026 583.826V586.274C659.026 586.898 659.194 587.378 659.53 587.714C659.866 588.038 660.328 588.2 660.916 588.2ZM673.221 590C672.573 590 672.003 589.868 671.511 589.604C671.031 589.34 670.653 588.968 670.377 588.488C670.101 587.996 669.963 587.432 669.963 586.796V578.894H666.795V576.86H672.213V586.796C672.213 587.156 672.315 587.444 672.519 587.66C672.735 587.864 673.023 587.966 673.383 587.966H676.371V590H673.221ZM682.124 590.162C681.368 590.162 680.708 590.042 680.144 589.802C679.58 589.562 679.136 589.232 678.812 588.812C678.5 588.38 678.332 587.876 678.308 587.3H680.558C680.582 587.612 680.732 587.864 681.008 588.056C681.296 588.248 681.668 588.344 682.124 588.344H682.916C683.468 588.344 683.882 588.236 684.158 588.02C684.434 587.804 684.572 587.51 684.572 587.138C684.572 586.79 684.446 586.52 684.194 586.328C683.954 586.124 683.576 585.992 683.06 585.932L681.836 585.752C680.708 585.596 679.88 585.296 679.352 584.852C678.824 584.408 678.56 583.742 678.56 582.854C678.56 581.93 678.872 581.216 679.496 580.712C680.12 580.196 681.038 579.938 682.25 579.938H682.934C684.038 579.938 684.92 580.184 685.58 580.676C686.24 581.168 686.594 581.828 686.642 582.656H684.392C684.356 582.392 684.206 582.176 683.942 582.008C683.69 581.84 683.354 581.756 682.934 581.756H682.25C681.734 581.756 681.356 581.852 681.116 582.044C680.888 582.224 680.774 582.494 680.774 582.854C680.774 583.19 680.876 583.442 681.08 583.61C681.284 583.766 681.614 583.88 682.07 583.952L683.348 584.132C684.524 584.3 685.388 584.618 685.94 585.086C686.504 585.542 686.786 586.22 686.786 587.12C686.786 588.08 686.456 588.83 685.796 589.37C685.148 589.898 684.188 590.162 682.916 590.162H682.124Z" fill="#E6E5EA"/>
<rect x="483" y="573" width="18" height="18" stroke="#E6E5EA" stroke-width="2"/>
</g>
<g clip-path="url(#clip5_0_286)">
<rect x="482" y="627" width="476" height="72" fill="#18171F"/>
<g clip-path="url(#clip6_0_286)">
<path d="M762 673V655.48H765.552L767.256 661.048C767.432 661.608 767.576 662.12 767.688 662.584C767.8 663.048 767.872 663.384 767.904 663.592C767.936 663.384 768.008 663.048 768.12 662.584C768.232 662.12 768.368 661.608 768.528 661.048L770.16 655.48H773.712V673H770.904V667.552C770.904 666.752 770.928 665.88 770.976 664.936C771.024 663.992 771.08 663.048 771.144 662.104C771.208 661.16 771.28 660.264 771.36 659.416C771.456 658.568 771.536 657.824 771.6 657.184L769.248 665.464H766.512L764.088 657.184C764.168 657.792 764.248 658.512 764.328 659.344C764.408 660.16 764.48 661.04 764.544 661.984C764.624 662.912 764.688 663.856 764.736 664.816C764.784 665.776 764.808 666.688 764.808 667.552V673H762ZM777.159 673V655.48H787.671V658.096H780.111V662.656H786.831V665.248H780.111V670.384H787.671V673H777.159ZM791.238 673V655.48H796.446C797.63 655.48 798.654 655.704 799.518 656.152C800.398 656.6 801.078 657.232 801.557 658.048C802.038 658.864 802.278 659.832 802.278 660.952V667.504C802.278 668.608 802.038 669.576 801.557 670.408C801.078 671.224 800.398 671.864 799.518 672.328C798.654 672.776 797.63 673 796.446 673H791.238ZM794.238 670.24H796.446C797.31 670.24 797.998 670 798.51 669.52C799.022 669.024 799.278 668.352 799.278 667.504V660.952C799.278 660.12 799.022 659.464 798.51 658.984C797.998 658.488 797.31 658.24 796.446 658.24H794.238V670.24ZM805.988 673V670.36H809.516V658.12H805.988V655.48H816.068V658.12H812.54V670.36H816.068V673H805.988ZM825.419 673.24C823.707 673.24 822.363 672.776 821.387 671.848C820.427 670.904 819.947 669.624 819.947 668.008V655.48H822.971V667.984C822.971 668.816 823.179 669.464 823.595 669.928C824.011 670.392 824.619 670.624 825.419 670.624C826.203 670.624 826.803 670.392 827.219 669.928C827.651 669.464 827.867 668.816 827.867 667.984V655.48H830.891V668.008C830.891 669.624 830.411 670.904 829.451 671.848C828.491 672.776 827.147 673.24 825.419 673.24ZM833.953 673V655.48H837.505L839.209 661.048C839.385 661.608 839.529 662.12 839.641 662.584C839.753 663.048 839.825 663.384 839.857 663.592C839.889 663.384 839.961 663.048 840.073 662.584C840.185 662.12 840.321 661.608 840.481 661.048L842.113 655.48H845.665V673H842.857V667.552C842.857 666.752 842.881 665.88 842.929 664.936C842.977 663.992 843.033 663.048 843.097 662.104C843.161 661.16 843.233 660.264 843.313 659.416C843.409 658.568 843.489 657.824 843.553 657.184L841.201 665.464H838.465L836.041 657.184C836.121 657.792 836.201 658.512 836.281 659.344C836.361 660.16 836.433 661.04 836.497 661.984C836.577 662.912 836.641 663.856 836.689 664.816C836.737 665.776 836.761 666.688 836.761 667.552V673H833.953Z" fill="#E6E5EA"/>
<rect x="862.5" y="650" width="10" height="28" fill="#F8CD65"/>
<rect x="880.5" y="650" width="10" height="28" fill="#F8CD65"/>
<rect x="898.5" y="650" width="10" height="28" fill="#F8CD65"/>
<rect x="917.5" y="651" width="8" height="26" stroke="#E6E5EA" stroke-width="2"/>
</g>
<path d="M519.764 670.18C518.864 670.18 518.084 670.03 517.424 669.73C516.764 669.43 516.254 669.004 515.894 668.452C515.546 667.888 515.366 667.228 515.354 666.472H517.604C517.604 667.012 517.796 667.438 518.18 667.75C518.576 668.05 519.11 668.2 519.782 668.2C520.43 668.2 520.934 668.05 521.294 667.75C521.666 667.45 521.852 667.036 521.852 666.508C521.852 666.064 521.72 665.68 521.456 665.356C521.204 665.02 520.838 664.792 520.358 664.672L518.846 664.258C517.814 663.994 517.016 663.52 516.452 662.836C515.9 662.152 515.624 661.324 515.624 660.352C515.624 659.608 515.792 658.96 516.128 658.408C516.464 657.856 516.938 657.43 517.55 657.13C518.174 656.83 518.906 656.68 519.746 656.68C521.018 656.68 522.026 657.01 522.77 657.67C523.514 658.318 523.892 659.194 523.904 660.298H521.654C521.654 659.782 521.486 659.38 521.15 659.092C520.814 658.792 520.34 658.642 519.728 658.642C519.14 658.642 518.684 658.78 518.36 659.056C518.036 659.332 517.874 659.722 517.874 660.226C517.874 660.682 517.994 661.072 518.234 661.396C518.486 661.708 518.846 661.93 519.314 662.062L520.88 662.494C521.924 662.758 522.722 663.232 523.274 663.916C523.826 664.588 524.102 665.422 524.102 666.418C524.102 667.162 523.922 667.822 523.562 668.398C523.202 668.962 522.698 669.4 522.05 669.712C521.402 670.024 520.64 670.18 519.764 670.18ZM529.387 670V658.948H525.949V656.86H535.093V658.948H531.655V670H529.387ZM537.282 670V656.86H541.44C542.316 656.86 543.072 657.022 543.708 657.346C544.356 657.67 544.86 658.126 545.22 658.714C545.58 659.29 545.76 659.974 545.76 660.766C545.76 661.63 545.538 662.392 545.094 663.052C544.662 663.712 544.074 664.18 543.33 664.456L545.94 670H543.42L541.134 664.78H539.532V670H537.282ZM539.532 662.8H541.44C542.076 662.8 542.574 662.626 542.934 662.278C543.294 661.93 543.474 661.45 543.474 660.838C543.474 660.214 543.294 659.728 542.934 659.38C542.574 659.02 542.076 658.84 541.44 658.84H539.532V662.8ZM548.291 670V656.86H556.175V658.822H550.505V662.242H555.545V664.186H550.505V668.038H556.175V670H548.291ZM558.796 670V656.86H561.55L565.204 667.48C565.168 667.096 565.126 666.646 565.078 666.13C565.042 665.602 565.012 665.068 564.988 664.528C564.964 663.976 564.952 663.496 564.952 663.088V656.86H567.004V670H564.25L560.632 659.38C560.656 659.728 560.686 660.148 560.722 660.64C560.758 661.132 560.788 661.636 560.812 662.152C560.836 662.668 560.848 663.142 560.848 663.574V670H558.796ZM573.765 670.18C572.925 670.18 572.187 670.024 571.551 669.712C570.927 669.388 570.441 668.938 570.093 668.362C569.757 667.774 569.589 667.084 569.589 666.292V660.568C569.589 659.764 569.757 659.074 570.093 658.498C570.441 657.922 570.927 657.478 571.551 657.166C572.187 656.842 572.925 656.68 573.765 656.68C574.617 656.68 575.349 656.842 575.961 657.166C576.585 657.478 577.071 657.922 577.419 658.498C577.767 659.074 577.941 659.764 577.941 660.568H575.673C575.673 659.944 575.505 659.47 575.169 659.146C574.845 658.822 574.377 658.66 573.765 658.66C573.153 658.66 572.679 658.822 572.343 659.146C572.007 659.47 571.839 659.938 571.839 660.55V666.292C571.839 666.904 572.007 667.378 572.343 667.714C572.679 668.05 573.153 668.218 573.765 668.218C574.377 668.218 574.845 668.05 575.169 667.714C575.505 667.378 575.673 666.904 575.673 666.292V664.96H573.441V663.016H577.941V666.292C577.941 667.084 577.767 667.774 577.419 668.362C577.071 668.938 576.585 669.388 575.961 669.712C575.349 670.024 574.617 670.18 573.765 670.18ZM583.352 670V658.948H579.914V656.86H589.058V658.948H585.62V670H583.352ZM591.265 670V656.86H593.515V662.134H597.043V656.86H599.293V670H597.043V664.222H593.515V670H591.265Z" fill="#817D92"/>
</g>
<rect x="482" y="731" width="476" height="65" fill="#A4FFAF"/>
<g clip-path="url(#clip7_0_286)">
<path d="M664.8 770.18C663.96 770.18 663.222 770.024 662.586 769.712C661.962 769.388 661.476 768.938 661.128 768.362C660.792 767.774 660.624 767.084 660.624 766.292V760.568C660.624 759.764 660.792 759.074 661.128 758.498C661.476 757.922 661.962 757.478 662.586 757.166C663.222 756.842 663.96 756.68 664.8 756.68C665.652 756.68 666.384 756.842 666.996 757.166C667.62 757.478 668.106 757.922 668.454 758.498C668.802 759.074 668.976 759.764 668.976 760.568H666.708C666.708 759.944 666.54 759.47 666.204 759.146C665.88 758.822 665.412 758.66 664.8 758.66C664.188 758.66 663.714 758.822 663.378 759.146C663.042 759.47 662.874 759.938 662.874 760.55V766.292C662.874 766.904 663.042 767.378 663.378 767.714C663.714 768.05 664.188 768.218 664.8 768.218C665.412 768.218 665.88 768.05 666.204 767.714C666.54 767.378 666.708 766.904 666.708 766.292V764.96H664.476V763.016H668.976V766.292C668.976 767.084 668.802 767.774 668.454 768.362C668.106 768.938 667.62 769.388 666.996 769.712C666.384 770.024 665.652 770.18 664.8 770.18ZM671.705 770V756.86H679.589V758.822H673.919V762.242H678.959V764.186H673.919V768.038H679.589V770H671.705ZM682.21 770V756.86H684.964L688.618 767.48C688.582 767.096 688.54 766.646 688.492 766.13C688.456 765.602 688.426 765.068 688.402 764.528C688.378 763.976 688.366 763.496 688.366 763.088V756.86H690.418V770H687.664L684.046 759.38C684.07 759.728 684.1 760.148 684.136 760.64C684.172 761.132 684.202 761.636 684.226 762.152C684.25 762.668 684.262 763.142 684.262 763.574V770H682.21ZM693.291 770V756.86H701.175V758.822H695.505V762.242H700.545V764.186H695.505V768.038H701.175V770H693.291ZM703.868 770V756.86H708.026C708.902 756.86 709.658 757.022 710.294 757.346C710.942 757.67 711.446 758.126 711.806 758.714C712.166 759.29 712.346 759.974 712.346 760.766C712.346 761.63 712.124 762.392 711.68 763.052C711.248 763.712 710.66 764.18 709.916 764.456L712.526 770H710.006L707.72 764.78H706.118V770H703.868ZM706.118 762.8H708.026C708.662 762.8 709.16 762.626 709.52 762.278C709.88 761.93 710.06 761.45 710.06 760.838C710.06 760.214 709.88 759.728 709.52 759.38C709.16 759.02 708.662 758.84 708.026 758.84H706.118V762.8ZM713.923 770L717.235 756.86H720.133L723.463 770H721.159L720.439 766.814H716.947L716.227 770H713.923ZM717.361 764.978H720.025L719.233 761.45C719.101 760.862 718.987 760.334 718.891 759.866C718.795 759.386 718.729 759.038 718.693 758.822C718.657 759.038 718.591 759.386 718.495 759.866C718.411 760.334 718.297 760.856 718.153 761.432L717.361 764.978ZM728.352 770V758.948H724.914V756.86H734.058V758.948H730.62V770H728.352ZM736.463 770V756.86H744.347V758.822H738.677V762.242H743.717V764.186H738.677V768.038H744.347V770H736.463Z" fill="#24232C"/>
<path d="M775.105 770L781.105 764L775.105 758L773.84 759.265L777.681 763.105H770V764.895H777.681L773.84 768.735L775.105 770Z" fill="#24232C"/>
</g>
<g clip-path="url(#clip8_0_286)">
<rect x="450" y="196" width="540" height="80" fill="#24232C"/>
<path d="M484.464 248V224.64H492.24C493.797 224.64 495.152 224.939 496.304 225.536C497.477 226.133 498.384 226.976 499.024 228.064C499.664 229.131 499.984 230.389 499.984 231.84C499.984 233.269 499.653 234.528 498.992 235.616C498.352 236.704 497.456 237.547 496.304 238.144C495.152 238.741 493.797 239.04 492.24 239.04H488.464V248H484.464ZM488.464 235.424H492.24C493.349 235.424 494.235 235.104 494.896 234.464C495.579 233.803 495.92 232.928 495.92 231.84C495.92 230.731 495.579 229.856 494.896 229.216C494.235 228.576 493.349 228.256 492.24 228.256H488.464V235.424ZM508.772 248V228.352H502.66V224.64H518.916V228.352H512.804V248H508.772ZM521.527 248L527.671 238.912L521.943 230.4H526.455L529.175 234.72C529.346 234.976 529.495 235.264 529.623 235.584C529.772 235.904 529.89 236.16 529.975 236.352C530.06 236.16 530.178 235.904 530.327 235.584C530.476 235.264 530.626 234.976 530.775 234.72L533.527 230.4H538.039L532.311 238.912L538.423 248H533.879L530.839 243.168C530.668 242.891 530.508 242.592 530.359 242.272C530.21 241.952 530.082 241.696 529.975 241.504C529.89 241.696 529.772 241.952 529.623 242.272C529.474 242.592 529.314 242.891 529.143 243.168L526.039 248H521.527ZM542.251 248V244.48H548.331V228.192L542.219 232.736V228.512L547.595 224.64H552.331V244.48H557.227V248H542.251ZM565.31 248V235.968H560.478V232.352H565.31V229.696C565.31 228.16 565.822 226.933 566.846 226.016C567.87 225.099 569.225 224.64 570.91 224.64H576.062V228.16H571.006C570.494 228.16 570.078 228.309 569.758 228.608C569.459 228.885 569.31 229.269 569.31 229.76V232.352H576.062V235.968H569.31V248H565.31ZM587.506 248.32C585.351 248.32 583.623 247.787 582.322 246.72C581.02 245.632 580.306 244.16 580.178 242.304H584.178C584.263 243.115 584.583 243.744 585.138 244.192C585.714 244.619 586.503 244.832 587.506 244.832C588.615 244.832 589.458 244.544 590.034 243.968C590.61 243.371 590.898 242.549 590.898 241.504V239.232C590.898 238.165 590.61 237.355 590.034 236.8C589.458 236.224 588.615 235.936 587.506 235.936C586.823 235.936 586.236 236.075 585.746 236.352C585.255 236.629 584.882 237.013 584.626 237.504H580.722L580.882 224.64H594.034V228.256H584.658L584.594 235.04H585.522L584.562 235.84C584.562 234.859 584.946 234.091 585.714 233.536C586.503 232.96 587.559 232.672 588.882 232.672C590.78 232.651 592.252 233.227 593.298 234.4C594.364 235.552 594.898 237.163 594.898 239.232V241.504C594.898 243.616 594.236 245.28 592.914 246.496C591.612 247.712 589.81 248.32 587.506 248.32ZM599.525 248V224.64H606.469C608.048 224.64 609.413 224.939 610.565 225.536C611.738 226.133 612.645 226.976 613.285 228.064C613.925 229.152 614.245 230.443 614.245 231.936V240.672C614.245 242.144 613.925 243.435 613.285 244.544C612.645 245.632 611.738 246.485 610.565 247.104C609.413 247.701 608.048 248 606.469 248H599.525ZM603.525 244.32H606.469C607.621 244.32 608.538 244 609.221 243.36C609.904 242.699 610.245 241.803 610.245 240.672V231.936C610.245 230.827 609.904 229.952 609.221 229.312C608.538 228.651 607.621 228.32 606.469 228.32H603.525V244.32ZM623.961 248.32C622.147 248.32 620.718 247.84 619.673 246.88C618.627 245.92 618.105 244.629 618.105 243.008C618.105 241.28 618.681 239.947 619.833 239.008C620.985 238.069 622.617 237.6 624.729 237.6H629.113V236.096C629.113 235.243 628.835 234.581 628.281 234.112C627.726 233.621 626.969 233.376 626.009 233.376C625.134 233.376 624.409 233.568 623.833 233.952C623.257 234.336 622.915 234.859 622.809 235.52H618.905C619.097 233.856 619.843 232.533 621.145 231.552C622.446 230.571 624.11 230.08 626.137 230.08C628.291 230.08 629.987 230.624 631.225 231.712C632.483 232.779 633.113 234.229 633.113 236.064V248H629.241V244.928H628.601L629.241 244.064C629.241 245.365 628.761 246.4 627.801 247.168C626.841 247.936 625.561 248.32 623.961 248.32ZM625.273 245.312C626.403 245.312 627.321 245.024 628.025 244.448C628.75 243.872 629.113 243.125 629.113 242.208V240.064H624.793C623.982 240.064 623.331 240.299 622.841 240.768C622.35 241.237 622.105 241.856 622.105 242.624C622.105 243.456 622.382 244.117 622.937 244.608C623.513 245.077 624.291 245.312 625.273 245.312ZM638.06 248V224.64H652.588V228.352H641.996V234.592H651.756V238.304H642.06V248H638.06ZM655.584 248L662.048 236.032L655.968 224.64H660.448L663.392 230.496C663.605 230.923 663.797 231.339 663.968 231.744C664.138 232.128 664.266 232.427 664.352 232.64C664.416 232.427 664.533 232.128 664.704 231.744C664.874 231.339 665.066 230.923 665.28 230.496L668.256 224.64H672.608L666.528 235.936L672.992 248H668.512L665.216 241.536C665.002 241.109 664.8 240.693 664.608 240.288C664.437 239.883 664.309 239.563 664.224 239.328C664.138 239.563 664.01 239.883 663.84 240.288C663.669 240.693 663.477 241.109 663.264 241.536L659.936 248H655.584Z" fill="#E6E5EA"/>
<path d="M861.472 243.18C860.632 243.18 859.894 243.024 859.258 242.712C858.634 242.388 858.148 241.938 857.8 241.362C857.464 240.774 857.296 240.084 857.296 239.292V233.568C857.296 232.764 857.464 232.074 857.8 231.498C858.148 230.922 858.634 230.478 859.258 230.166C859.894 229.842 860.632 229.68 861.472 229.68C862.324 229.68 863.056 229.842 863.668 230.166C864.292 230.478 864.778 230.922 865.126 231.498C865.474 232.074 865.648 232.764 865.648 233.568H863.38C863.38 232.944 863.212 232.47 862.876 232.146C862.552 231.822 862.084 231.66 861.472 231.66C860.86 231.66 860.386 231.822 860.05 232.146C859.714 232.47 859.546 232.938 859.546 233.55V239.292C859.546 239.904 859.714 240.378 860.05 240.714C860.386 241.038 860.86 241.2 861.472 241.2C862.084 241.2 862.552 241.038 862.876 240.714C863.212 240.378 863.38 239.904 863.38 239.292H865.648C865.648 240.072 865.474 240.756 865.126 241.344C864.778 241.932 864.292 242.388 863.668 242.712C863.056 243.024 862.324 243.18 861.472 243.18ZM872.193 243.18C871.353 243.18 870.621 243.024 869.997 242.712C869.385 242.388 868.911 241.938 868.575 241.362C868.251 240.774 868.089 240.084 868.089 239.292V233.568C868.089 232.776 868.251 232.092 868.575 231.516C868.911 230.928 869.385 230.478 869.997 230.166C870.621 229.842 871.353 229.68 872.193 229.68C873.045 229.68 873.777 229.842 874.389 230.166C875.001 230.478 875.469 230.928 875.793 231.516C876.129 232.092 876.297 232.77 876.297 233.55V239.292C876.297 240.084 876.129 240.774 875.793 241.362C875.469 241.938 875.001 242.388 874.389 242.712C873.777 243.024 873.045 243.18 872.193 243.18ZM872.193 241.2C872.805 241.2 873.267 241.038 873.579 240.714C873.891 240.378 874.047 239.904 874.047 239.292V233.568C874.047 232.944 873.891 232.47 873.579 232.146C873.267 231.822 872.805 231.66 872.193 231.66C871.581 231.66 871.119 231.822 870.807 232.146C870.495 232.47 870.339 232.944 870.339 233.568V239.292C870.339 239.904 870.495 240.378 870.807 240.714C871.131 241.038 871.593 241.2 872.193 241.2ZM878.972 243V229.86H883.346C884.222 229.86 884.984 230.028 885.632 230.364C886.292 230.7 886.802 231.174 887.162 231.786C887.522 232.386 887.702 233.094 887.702 233.91C887.702 234.714 887.516 235.422 887.144 236.034C886.784 236.646 886.28 237.12 885.632 237.456C884.984 237.792 884.222 237.96 883.346 237.96H881.222V243H878.972ZM881.222 235.926H883.346C883.97 235.926 884.468 235.746 884.84 235.386C885.224 235.014 885.416 234.522 885.416 233.91C885.416 233.286 885.224 232.794 884.84 232.434C884.468 232.074 883.97 231.894 883.346 231.894H881.222V235.926ZM889.999 243V241.02H892.645V231.84H889.999V229.86H897.559V231.84H894.913V241.02H897.559V243H889.999ZM900.756 243V229.86H908.64V231.822H902.97V235.242H908.01V237.186H902.97V241.038H908.64V243H900.756ZM911.315 243V229.86H915.221C916.109 229.86 916.877 230.028 917.525 230.364C918.185 230.7 918.695 231.174 919.055 231.786C919.415 232.398 919.595 233.124 919.595 233.964V238.878C919.595 239.706 919.415 240.432 919.055 241.056C918.695 241.668 918.185 242.148 917.525 242.496C916.877 242.832 916.109 243 915.221 243H911.315ZM913.565 240.93H915.221C915.869 240.93 916.385 240.75 916.769 240.39C917.153 240.018 917.345 239.514 917.345 238.878V233.964C917.345 233.34 917.153 232.848 916.769 232.488C916.385 232.116 915.869 231.93 915.221 231.93H913.565V240.93Z" fill="#A4FFAF"/>
<path fill-rule="evenodd" clip-rule="evenodd" d="M954.909 224.659L957.341 227.091C957.763 227.513 958 228.085 958 228.682V241.25C958 242.493 956.993 243.5 955.75 243.5H952V245.75C952 246.993 950.993 248 949.75 248H939.25C938.007 248 937 246.993 937 245.75V230.75C937 229.507 938.007 228.5 939.25 228.5H943V226.25C943 225.007 944.007 224 945.25 224H953.318C953.915 224 954.487 224.237 954.909 224.659ZM939.531 245.75H949.469C949.543 245.75 949.615 245.72 949.668 245.668C949.72 245.615 949.75 245.543 949.75 245.469V243.5H945.25C944.007 243.5 943 242.493 943 241.25V230.75H939.531C939.457 230.75 939.385 230.78 939.332 230.832C939.28 230.885 939.25 230.957 939.25 231.031V245.469C939.25 245.543 939.28 245.615 939.332 245.668C939.385 245.72 939.457 245.75 939.531 245.75ZM955.469 241.25H945.531C945.457 241.25 945.385 241.22 945.332 241.168C945.28 241.115 945.25 241.043 945.25 240.969V226.531C945.25 226.457 945.28 226.385 945.332 226.332C945.385 226.28 945.457 226.25 945.531 226.25H950.5V230.375C950.5 230.996 951.004 231.5 951.625 231.5H955.75V240.969C955.75 241.043 955.72 241.115 955.668 241.168C955.615 241.22 955.543 241.25 955.469 241.25ZM952.75 229.25H955.75V228.799C955.75 228.762 955.743 228.725 955.729 228.691C955.714 228.657 955.694 228.626 955.668 228.6L953.4 226.332C953.348 226.28 953.276 226.25 953.201 226.25H952.75V229.25Z" fill="#A4FFAF"/>
</g>
<path d="M592.332 158V140.48H598.164C599.332 140.48 600.348 140.704 601.212 141.152C602.092 141.6 602.772 142.232 603.252 143.048C603.732 143.848 603.972 144.792 603.972 145.88C603.972 146.952 603.724 147.896 603.228 148.712C602.748 149.528 602.076 150.16 601.212 150.608C600.348 151.056 599.332 151.28 598.164 151.28H595.332V158H592.332ZM595.332 148.568H598.164C598.996 148.568 599.66 148.328 600.156 147.848C600.668 147.352 600.924 146.696 600.924 145.88C600.924 145.048 600.668 144.392 600.156 143.912C599.66 143.432 598.996 143.192 598.164 143.192H595.332V148.568ZM610.611 158.24C609.251 158.24 608.179 157.88 607.395 157.16C606.611 156.44 606.219 155.472 606.219 154.256C606.219 152.96 606.651 151.96 607.515 151.256C608.379 150.552 609.603 150.2 611.187 150.2H614.475V149.072C614.475 148.432 614.267 147.936 613.851 147.584C613.435 147.216 612.867 147.032 612.147 147.032C611.491 147.032 610.947 147.176 610.515 147.464C610.083 147.752 609.827 148.144 609.747 148.64H606.819C606.963 147.392 607.523 146.4 608.499 145.664C609.475 144.928 610.723 144.56 612.243 144.56C613.859 144.56 615.131 144.968 616.059 145.784C617.003 146.584 617.475 147.672 617.475 149.048V158H614.571V155.696H614.091L614.571 155.048C614.571 156.024 614.211 156.8 613.491 157.376C612.771 157.952 611.811 158.24 610.611 158.24ZM611.595 155.984C612.443 155.984 613.131 155.768 613.659 155.336C614.203 154.904 614.475 154.344 614.475 153.656V152.048H611.235C610.627 152.048 610.139 152.224 609.771 152.576C609.403 152.928 609.219 153.392 609.219 153.968C609.219 154.592 609.427 155.088 609.843 155.456C610.275 155.808 610.859 155.984 611.595 155.984ZM625.962 158.216C624.954 158.216 624.074 158.056 623.322 157.736C622.57 157.416 621.978 156.976 621.546 156.416C621.13 155.84 620.906 155.168 620.874 154.4H623.874C623.906 154.816 624.106 155.152 624.474 155.408C624.858 155.664 625.354 155.792 625.962 155.792H627.018C627.754 155.792 628.306 155.648 628.674 155.36C629.042 155.072 629.226 154.68 629.226 154.184C629.226 153.72 629.058 153.36 628.722 153.104C628.402 152.832 627.898 152.656 627.21 152.576L625.578 152.336C624.074 152.128 622.97 151.728 622.266 151.136C621.562 150.544 621.21 149.656 621.21 148.472C621.21 147.24 621.626 146.288 622.458 145.616C623.29 144.928 624.514 144.584 626.13 144.584H627.042C628.514 144.584 629.69 144.912 630.57 145.568C631.45 146.224 631.922 147.104 631.986 148.208H628.986C628.938 147.856 628.738 147.568 628.386 147.344C628.05 147.12 627.602 147.008 627.042 147.008H626.13C625.442 147.008 624.938 147.136 624.618 147.392C624.314 147.632 624.162 147.992 624.162 148.472C624.162 148.92 624.298 149.256 624.57 149.48C624.842 149.688 625.282 149.84 625.89 149.936L627.594 150.176C629.162 150.4 630.314 150.824 631.05 151.448C631.802 152.056 632.178 152.96 632.178 154.16C632.178 155.44 631.738 156.44 630.858 157.16C629.994 157.864 628.714 158.216 627.018 158.216H625.962ZM640.352 158.216C639.344 158.216 638.464 158.056 637.712 157.736C636.96 157.416 636.368 156.976 635.936 156.416C635.52 155.84 635.296 155.168 635.264 154.4H638.264C638.296 154.816 638.496 155.152 638.864 155.408C639.248 155.664 639.744 155.792 640.352 155.792H641.408C642.144 155.792 642.696 155.648 643.064 155.36C643.432 155.072 643.616 154.68 643.616 154.184C643.616 153.72 643.448 153.36 643.112 153.104C642.792 152.832 642.288 152.656 641.6 152.576L639.968 152.336C638.464 152.128 637.36 151.728 636.656 151.136C635.952 150.544 635.6 149.656 635.6 148.472C635.6 147.24 636.016 146.288 636.848 145.616C637.68 144.928 638.904 144.584 640.52 144.584H641.432C642.904 144.584 644.08 144.912 644.96 145.568C645.84 146.224 646.312 147.104 646.376 148.208H643.376C643.328 147.856 643.128 147.568 642.776 147.344C642.44 147.12 641.992 147.008 641.432 147.008H640.52C639.832 147.008 639.328 147.136 639.008 147.392C638.704 147.632 638.552 147.992 638.552 148.472C638.552 148.92 638.688 149.256 638.96 149.48C639.232 149.688 639.672 149.84 640.28 149.936L641.984 150.176C643.552 150.4 644.704 150.824 645.44 151.448C646.192 152.056 646.568 152.96 646.568 154.16C646.568 155.44 646.128 156.44 645.248 157.16C644.384 157.864 643.104 158.216 641.408 158.216H640.352ZM650.543 158L648.527 144.8H651.023L652.127 152.888C652.191 153.352 652.247 153.864 652.295 154.424C652.359 154.984 652.407 155.448 652.439 155.816C652.487 155.448 652.551 154.984 652.631 154.424C652.711 153.864 652.783 153.352 652.847 152.888L654.095 144.8H656.423L657.647 152.888C657.711 153.352 657.783 153.872 657.863 154.448C657.943 155.008 658.007 155.472 658.055 155.84C658.087 155.456 658.135 154.984 658.199 154.424C658.279 153.848 658.343 153.336 658.391 152.888L659.567 144.8H661.967L659.903 158H656.807L655.655 149.864C655.591 149.416 655.519 148.92 655.439 148.376C655.359 147.816 655.295 147.36 655.247 147.008C655.199 147.36 655.135 147.816 655.055 148.376C654.991 148.92 654.919 149.416 654.839 149.864L653.639 158H650.543ZM669.638 158.216C668.518 158.216 667.542 158.008 666.71 157.592C665.894 157.16 665.254 156.56 664.79 155.792C664.342 155.008 664.118 154.088 664.118 153.032V149.768C664.118 148.712 664.342 147.8 664.79 147.032C665.254 146.248 665.894 145.648 666.71 145.232C667.542 144.8 668.518 144.584 669.638 144.584C670.774 144.584 671.75 144.8 672.566 145.232C673.382 145.648 674.014 146.248 674.462 147.032C674.926 147.8 675.158 148.704 675.158 149.744V153.032C675.158 154.088 674.926 155.008 674.462 155.792C674.014 156.56 673.382 157.16 672.566 157.592C671.75 158.008 670.774 158.216 669.638 158.216ZM669.638 155.6C670.438 155.6 671.054 155.384 671.486 154.952C671.934 154.504 672.158 153.864 672.158 153.032V149.768C672.158 148.92 671.934 148.28 671.486 147.848C671.054 147.416 670.438 147.2 669.638 147.2C668.854 147.2 668.238 147.416 667.79 147.848C667.342 148.28 667.118 148.92 667.118 149.768V153.032C667.118 153.864 667.342 154.504 667.79 154.952C668.238 155.384 668.854 155.6 669.638 155.6ZM679.084 158V144.8H681.916V147.32H682.66L681.772 148.856C681.772 147.432 682.092 146.36 682.732 145.64C683.372 144.92 684.316 144.56 685.564 144.56C686.988 144.56 688.108 145 688.924 145.88C689.74 146.76 690.148 147.976 690.148 149.528V150.488H687.004V149.744C687.004 148.896 686.78 148.24 686.332 147.776C685.9 147.312 685.3 147.08 684.532 147.08C683.748 147.08 683.14 147.312 682.708 147.776C682.292 148.24 682.084 148.896 682.084 149.744V158H679.084ZM697.291 158.24C695.979 158.24 694.915 157.784 694.099 156.872C693.299 155.96 692.899 154.736 692.899 153.2V149.624C692.899 148.072 693.299 146.84 694.099 145.928C694.899 145.016 695.963 144.56 697.291 144.56C698.379 144.56 699.243 144.872 699.883 145.496C700.523 146.104 700.843 146.944 700.843 148.016L700.171 147.32H700.867L700.771 144.176V140.48H703.771V158H700.843V155.48H700.171L700.843 154.784C700.843 155.856 700.523 156.704 699.883 157.328C699.243 157.936 698.379 158.24 697.291 158.24ZM698.347 155.648C699.115 155.648 699.707 155.424 700.123 154.976C700.555 154.512 700.771 153.872 700.771 153.056V149.744C700.771 148.928 700.555 148.296 700.123 147.848C699.707 147.384 699.115 147.152 698.347 147.152C697.579 147.152 696.979 147.376 696.547 147.824C696.115 148.272 695.899 148.912 695.899 149.744V153.056C695.899 153.888 696.115 154.528 696.547 154.976C696.979 155.424 697.579 155.648 698.347 155.648ZM727.296 158.24C726.176 158.24 725.192 158.032 724.344 157.616C723.512 157.184 722.864 156.584 722.4 155.816C721.952 155.032 721.728 154.112 721.728 153.056V145.424C721.728 144.352 721.952 143.432 722.4 142.664C722.864 141.896 723.512 141.304 724.344 140.888C725.192 140.456 726.176 140.24 727.296 140.24C728.432 140.24 729.408 140.456 730.224 140.888C731.056 141.304 731.704 141.896 732.168 142.664C732.632 143.432 732.864 144.352 732.864 145.424H729.84C729.84 144.592 729.616 143.96 729.168 143.528C728.736 143.096 728.112 142.88 727.296 142.88C726.48 142.88 725.848 143.096 725.4 143.528C724.952 143.96 724.728 144.584 724.728 145.4V153.056C724.728 153.872 724.952 154.504 725.4 154.952C725.848 155.4 726.48 155.624 727.296 155.624C728.112 155.624 728.736 155.4 729.168 154.952C729.616 154.504 729.84 153.872 729.84 153.056V151.28H726.864V148.688H732.864V153.056C732.864 154.112 732.632 155.032 732.168 155.816C731.704 156.584 731.056 157.184 730.224 157.616C729.408 158.032 728.432 158.24 727.296 158.24ZM741.615 158.24C740.495 158.24 739.519 158.024 738.687 157.592C737.855 157.16 737.207 156.56 736.743 155.792C736.295 155.008 736.071 154.096 736.071 153.056V149.744C736.071 148.704 736.295 147.8 736.743 147.032C737.207 146.248 737.855 145.64 738.687 145.208C739.519 144.776 740.495 144.56 741.615 144.56C742.719 144.56 743.679 144.776 744.495 145.208C745.327 145.64 745.967 146.248 746.415 147.032C746.879 147.8 747.111 148.704 747.111 149.744V152.12H738.975V153.056C738.975 153.984 739.199 154.688 739.647 155.168C740.095 155.632 740.759 155.864 741.639 155.864C742.311 155.864 742.855 155.752 743.271 155.528C743.687 155.288 743.951 154.944 744.063 154.496H747.015C746.791 155.632 746.183 156.544 745.191 157.232C744.215 157.904 743.023 158.24 741.615 158.24ZM744.207 150.44V149.72C744.207 148.808 743.991 148.112 743.559 147.632C743.127 147.136 742.479 146.888 741.615 146.888C740.751 146.888 740.095 147.136 739.647 147.632C739.199 148.128 738.975 148.832 738.975 149.744V150.248L744.423 150.2L744.207 150.44ZM750.629 158V144.8H753.557V147.32H754.373L753.557 148.016C753.557 146.928 753.869 146.08 754.493 145.472C755.133 144.864 756.005 144.56 757.109 144.56C758.405 144.56 759.437 144.992 760.205 145.856C760.989 146.72 761.381 147.88 761.381 149.336V158H758.381V149.648C758.381 148.848 758.173 148.232 757.757 147.8C757.341 147.368 756.757 147.152 756.005 147.152C755.269 147.152 754.685 147.376 754.253 147.824C753.837 148.272 753.629 148.912 753.629 149.744V158H750.629ZM770.396 158.24C769.276 158.24 768.3 158.024 767.468 157.592C766.636 157.16 765.988 156.56 765.524 155.792C765.076 155.008 764.852 154.096 764.852 153.056V149.744C764.852 148.704 765.076 147.8 765.524 147.032C765.988 146.248 766.636 145.64 767.468 145.208C768.3 144.776 769.276 144.56 770.396 144.56C771.5 144.56 772.46 144.776 773.276 145.208C774.108 145.64 774.748 146.248 775.196 147.032C775.66 147.8 775.892 148.704 775.892 149.744V152.12H767.756V153.056C767.756 153.984 767.98 154.688 768.428 155.168C768.876 155.632 769.54 155.864 770.42 155.864C771.092 155.864 771.636 155.752 772.052 155.528C772.468 155.288 772.732 154.944 772.844 154.496H775.796C775.572 155.632 774.964 156.544 773.972 157.232C772.996 157.904 771.804 158.24 770.396 158.24ZM772.988 150.44V149.72C772.988 148.808 772.772 148.112 772.34 147.632C771.908 147.136 771.26 146.888 770.396 146.888C769.532 146.888 768.876 147.136 768.428 147.632C767.98 148.128 767.756 148.832 767.756 149.744V150.248L773.204 150.2L772.988 150.44ZM779.819 158V144.8H782.651V147.32H783.395L782.507 148.856C782.507 147.432 782.827 146.36 783.467 145.64C784.107 144.92 785.051 144.56 786.299 144.56C787.723 144.56 788.843 145 789.659 145.88C790.475 146.76 790.883 147.976 790.883 149.528V150.488H787.739V149.744C787.739 148.896 787.515 148.24 787.067 147.776C786.635 147.312 786.035 147.08 785.267 147.08C784.483 147.08 783.875 147.312 783.443 147.776C783.027 148.24 782.819 148.896 782.819 149.744V158H779.819ZM797.689 158.24C796.329 158.24 795.257 157.88 794.473 157.16C793.689 156.44 793.297 155.472 793.297 154.256C793.297 152.96 793.729 151.96 794.593 151.256C795.457 150.552 796.681 150.2 798.265 150.2H801.553V149.072C801.553 148.432 801.345 147.936 800.929 147.584C800.513 147.216 799.945 147.032 799.225 147.032C798.569 147.032 798.025 147.176 797.593 147.464C797.161 147.752 796.905 148.144 796.825 148.64H793.897C794.041 147.392 794.601 146.4 795.577 145.664C796.553 144.928 797.801 144.56 799.321 144.56C800.937 144.56 802.209 144.968 803.137 145.784C804.081 146.584 804.553 147.672 804.553 149.048V158H801.649V155.696H801.169L801.649 155.048C801.649 156.024 801.289 156.8 800.569 157.376C799.849 157.952 798.889 158.24 797.689 158.24ZM798.673 155.984C799.521 155.984 800.209 155.768 800.737 155.336C801.281 154.904 801.553 154.344 801.553 153.656V152.048H798.313C797.705 152.048 797.217 152.224 796.849 152.576C796.481 152.928 796.297 153.392 796.297 153.968C796.297 154.592 796.505 155.088 796.921 155.456C797.353 155.808 797.937 155.984 798.673 155.984ZM814.984 158C813.72 158 812.728 157.648 812.008 156.944C811.304 156.24 810.952 155.272 810.952 154.04V147.512H807.376V144.8H810.952V141.08H813.976V144.8H819.04V147.512H813.976V154.04C813.976 154.872 814.384 155.288 815.2 155.288H818.8V158H814.984ZM827.934 158.216C826.814 158.216 825.838 158.008 825.006 157.592C824.19 157.16 823.55 156.56 823.086 155.792C822.638 155.008 822.414 154.088 822.414 153.032V149.768C822.414 148.712 822.638 147.8 823.086 147.032C823.55 146.248 824.19 145.648 825.006 145.232C825.838 144.8 826.814 144.584 827.934 144.584C829.07 144.584 830.046 144.8 830.862 145.232C831.678 145.648 832.31 146.248 832.758 147.032C833.222 147.8 833.454 148.704 833.454 149.744V153.032C833.454 154.088 833.222 155.008 832.758 155.792C832.31 156.56 831.678 157.16 830.862 157.592C830.046 158.008 829.07 158.216 827.934 158.216ZM827.934 155.6C828.734 155.6 829.35 155.384 829.782 154.952C830.23 154.504 830.454 153.864 830.454 153.032V149.768C830.454 148.92 830.23 148.28 829.782 147.848C829.35 147.416 828.734 147.2 827.934 147.2C827.15 147.2 826.534 147.416 826.086 147.848C825.638 148.28 825.414 148.92 825.414 149.768V153.032C825.414 153.864 825.638 154.504 826.086 154.952C826.534 155.384 827.15 155.6 827.934 155.6ZM837.381 158V144.8H840.213V147.32H840.957L840.069 148.856C840.069 147.432 840.389 146.36 841.029 145.64C841.669 144.92 842.613 144.56 843.861 144.56C845.285 144.56 846.405 145 847.221 145.88C848.037 146.76 848.445 147.976 848.445 149.528V150.488H845.301V149.744C845.301 148.896 845.077 148.24 844.629 147.776C844.197 147.312 843.597 147.08 842.829 147.08C842.045 147.08 841.437 147.312 841.005 147.776C840.589 148.24 840.381 148.896 840.381 149.744V158H837.381Z" fill="#817D92"/>
</g>
<defs>
<linearGradient id="paint0_linear_0_286" x1="0" y1="0" x2="0" y2="1024" gradientUnits="userSpaceOnUse">
<stop stop-color="#14131B"/>
<stop offset="1" stop-color="#08070B"/>
</linearGradient>
<clipPath id="clip0_0_286">
<rect width="1440" height="1024" fill="white"/>
</clipPath>
<clipPath id="clip1_0_286">
<rect width="315" height="23" fill="white" transform="translate(482 443)"/>
</clipPath>
<clipPath id="clip2_0_286">
<rect width="315" height="23" fill="white" transform="translate(482 486)"/>
</clipPath>
<clipPath id="clip3_0_286">
<rect width="207" height="23" fill="white" transform="translate(482 529)"/>
</clipPath>
<clipPath id="clip4_0_286">
<rect width="207" height="23" fill="white" transform="translate(482 572)"/>
</clipPath>
<clipPath id="clip5_0_286">
<rect width="476" height="72" fill="white" transform="translate(482 627)"/>
</clipPath>
<clipPath id="clip6_0_286">
<rect width="166.5" height="31" fill="white" transform="translate(760 648)"/>
</clipPath>
<clipPath id="clip7_0_286">
<rect width="122.105" height="23" fill="white" transform="translate(659 752)"/>
</clipPath>
<clipPath id="clip8_0_286">
<rect width="540" height="80" fill="white" transform="translate(450 196)"/>
</clipPath>
</defs>
</svg>
