<svg width="1440" height="900" viewBox="0 0 1440 900" fill="none" xmlns="http://www.w3.org/2000/svg">
<rect width="1440" height="900" fill="white"/>
<rect width="483" height="900" fill="#21092F"/>
<mask id="mask0_0_224" style="mask-type:luminance" maskUnits="userSpaceOnUse" x="0" y="0" width="483" height="900">
<rect width="483" height="900" fill="white"/>
</mask>
<g mask="url(#mask0_0_224)">
<g opacity="0.25">
<g opacity="0.847405" filter="url(#filter0_f_0_224)">
<ellipse cx="162.932" cy="156.966" rx="124" ry="328.5" transform="rotate(45 162.932 156.966)" fill="#D53AFF"/>
</g>
<g opacity="0.847405" filter="url(#filter1_f_0_224)">
<ellipse cx="313.932" cy="203.966" rx="124" ry="328.5" transform="rotate(45 313.932 203.966)" fill="#FF834A"/>
</g>
<g opacity="0.847405" filter="url(#filter2_f_0_224)">
<ellipse cx="98.9658" cy="440.5" rx="124" ry="328.5" transform="rotate(45 98.9658 440.5)" fill="#47A2FF"/>
</g>
</g>
</g>
<g clip-path="url(#clip0_0_224)">
<path d="M835.996 287.168C834.972 287.168 834.16 286.88 833.56 286.304C832.96 285.72 832.66 284.88 832.66 283.784V281.816C832.66 280.72 832.96 279.884 833.56 279.308C834.16 278.724 834.972 278.432 835.996 278.432C837.004 278.432 837.78 278.712 838.324 279.272C838.876 279.832 839.152 280.596 839.152 281.564V281.636H837.868V281.528C837.868 280.96 837.712 280.496 837.4 280.136C837.096 279.776 836.628 279.596 835.996 279.596C835.356 279.596 834.856 279.792 834.496 280.184C834.136 280.568 833.956 281.104 833.956 281.792V283.808C833.956 284.488 834.136 285.024 834.496 285.416C834.856 285.808 835.356 286.004 835.996 286.004C836.628 286.004 837.096 285.824 837.4 285.464C837.712 285.096 837.868 284.632 837.868 284.072V283.868H839.152V284.036C839.152 285.004 838.876 285.768 838.324 286.328C837.78 286.888 837.004 287.168 835.996 287.168ZM841.881 287L844.281 278.6H846.561L848.949 287H847.617L847.065 285.02H843.777L843.225 287H841.881ZM844.101 283.82H846.741L845.517 279.404H845.325L844.101 283.82ZM852.087 287V278.6H855.615C856.135 278.6 856.591 278.692 856.983 278.876C857.383 279.052 857.691 279.308 857.907 279.644C858.131 279.98 858.243 280.38 858.243 280.844V280.976C858.243 281.504 858.115 281.928 857.859 282.248C857.611 282.56 857.307 282.78 856.947 282.908V283.1C857.251 283.116 857.495 283.22 857.679 283.412C857.863 283.596 857.955 283.864 857.955 284.216V287H856.647V284.396C856.647 284.18 856.591 284.008 856.479 283.88C856.367 283.752 856.187 283.688 855.939 283.688H853.383V287H852.087ZM853.383 282.512H855.471C855.935 282.512 856.295 282.396 856.551 282.164C856.807 281.924 856.935 281.6 856.935 281.192V281.096C856.935 280.688 856.807 280.368 856.551 280.136C856.303 279.896 855.943 279.776 855.471 279.776H853.383V282.512ZM861.357 287V285.848H862.485V279.752H861.357V278.6H864.717C865.837 278.6 866.693 278.884 867.285 279.452C867.885 280.02 868.185 280.876 868.185 282.02V283.592C868.185 284.736 867.885 285.592 867.285 286.16C866.693 286.72 865.837 287 864.717 287H861.357ZM863.793 285.824H864.729C865.457 285.824 865.997 285.64 866.349 285.272C866.701 284.904 866.877 284.356 866.877 283.628V281.972C866.877 281.236 866.701 280.688 866.349 280.328C865.997 279.968 865.457 279.788 864.729 279.788H863.793V285.824ZM871.649 287V278.6H872.945V282.2H876.473V278.6H877.769V287H876.473V283.376H872.945V287H871.649ZM884.68 287.168C883.648 287.168 882.828 286.88 882.22 286.304C881.612 285.72 881.308 284.88 881.308 283.784V281.816C881.308 280.72 881.612 279.884 882.22 279.308C882.828 278.724 883.648 278.432 884.68 278.432C885.712 278.432 886.532 278.724 887.14 279.308C887.756 279.884 888.064 280.72 888.064 281.816V283.784C888.064 284.88 887.756 285.72 887.14 286.304C886.532 286.88 885.712 287.168 884.68 287.168ZM884.68 286.004C885.344 286.004 885.856 285.812 886.216 285.428C886.576 285.036 886.756 284.504 886.756 283.832V281.768C886.756 281.096 886.576 280.568 886.216 280.184C885.856 279.792 885.344 279.596 884.68 279.596C884.032 279.596 883.524 279.792 883.156 280.184C882.788 280.568 882.604 281.096 882.604 281.768V283.832C882.604 284.504 882.788 285.036 883.156 285.428C883.524 285.812 884.032 286.004 884.68 286.004ZM891.599 287V278.6H892.895V285.824H896.939V287H891.599ZM899.814 287V285.848H900.942V279.752H899.814V278.6H903.174C904.294 278.6 905.15 278.884 905.742 279.452C906.342 280.02 906.642 280.876 906.642 282.02V283.592C906.642 284.736 906.342 285.592 905.742 286.16C905.15 286.72 904.294 287 903.174 287H899.814ZM902.25 285.824H903.186C903.914 285.824 904.454 285.64 904.806 285.272C905.158 284.904 905.334 284.356 905.334 283.628V281.972C905.334 281.236 905.158 280.688 904.806 280.328C904.454 279.968 903.914 279.788 903.186 279.788H902.25V285.824ZM910.106 287V278.6H915.398V279.776H911.402V282.188H915.062V283.364H911.402V285.824H915.458V287H910.106ZM918.81 287V278.6H922.338C922.858 278.6 923.314 278.692 923.706 278.876C924.106 279.052 924.414 279.308 924.63 279.644C924.854 279.98 924.966 280.38 924.966 280.844V280.976C924.966 281.504 924.838 281.928 924.582 282.248C924.334 282.56 924.03 282.78 923.67 282.908V283.1C923.974 283.116 924.218 283.22 924.402 283.412C924.586 283.596 924.678 283.864 924.678 284.216V287H923.37V284.396C923.37 284.18 923.314 284.008 923.202 283.88C923.09 283.752 922.91 283.688 922.662 283.688H920.106V287H918.81ZM920.106 282.512H922.194C922.658 282.512 923.018 282.396 923.274 282.164C923.53 281.924 923.658 281.6 923.658 281.192V281.096C923.658 280.688 923.53 280.368 923.274 280.136C923.026 279.896 922.666 279.776 922.194 279.776H920.106V282.512ZM933.45 287V278.6H935.946L938.226 286.136H938.418V278.6H939.702V287H937.206L934.926 279.452H934.734V287H933.45ZM942.83 287L945.23 278.6H947.51L949.898 287H948.566L948.014 285.02H944.726L944.174 287H942.83ZM945.05 283.82H947.69L946.466 279.404H946.274L945.05 283.82ZM953.036 287V278.6H955.472L957.308 286.136H957.5L959.336 278.6H961.772V287H960.512V279.512H960.32L958.496 287H956.312L954.488 279.512H954.296V287H953.036ZM965.524 287V278.6H970.816V279.776H966.82V282.188H970.48V283.364H966.82V285.824H970.876V287H965.524Z" fill="#21092F"/>
<g clip-path="url(#clip1_0_224)">
<rect x="832.5" y="299.5" width="380" height="44" rx="7.5" fill="white" stroke="#DFDEE0"/>
<path opacity="0.25" d="M853.436 328.252C852.536 328.252 851.75 328.066 851.078 327.694C850.406 327.31 849.878 326.776 849.494 326.092C849.122 325.396 848.936 324.592 848.936 323.68V323.464C848.936 322.54 849.122 321.736 849.494 321.052C849.866 320.356 850.382 319.822 851.042 319.45C851.714 319.066 852.488 318.874 853.364 318.874C854.216 318.874 854.96 319.066 855.596 319.45C856.244 319.822 856.748 320.344 857.108 321.016C857.468 321.688 857.648 322.474 857.648 323.374V324.076H850.826C850.85 324.856 851.108 325.48 851.6 325.948C852.104 326.404 852.728 326.632 853.472 326.632C854.168 326.632 854.69 326.476 855.038 326.164C855.398 325.852 855.674 325.492 855.866 325.084L857.396 325.876C857.228 326.212 856.982 326.566 856.658 326.938C856.346 327.31 855.932 327.622 855.416 327.874C854.9 328.126 854.24 328.252 853.436 328.252ZM850.844 322.654H855.758C855.71 321.982 855.47 321.46 855.038 321.088C854.606 320.704 854.042 320.512 853.346 320.512C852.65 320.512 852.08 320.704 851.636 321.088C851.204 321.46 850.94 321.982 850.844 322.654ZM860.873 328.252C860.453 328.252 860.099 328.114 859.811 327.838C859.535 327.562 859.397 327.208 859.397 326.776C859.397 326.344 859.535 325.996 859.811 325.732C860.099 325.456 860.453 325.318 860.873 325.318C861.293 325.318 861.641 325.456 861.917 325.732C862.205 326.008 862.349 326.356 862.349 326.776C862.349 327.208 862.205 327.562 861.917 327.838C861.641 328.114 861.293 328.252 860.873 328.252ZM864.176 323.608V323.338C864.176 322.402 864.362 321.604 864.734 320.944C865.118 320.284 865.622 319.774 866.246 319.414C866.87 319.054 867.554 318.874 868.298 318.874C869.162 318.874 869.822 319.036 870.278 319.36C870.746 319.684 871.088 320.032 871.304 320.404H871.592V319.126H873.392V329.818C873.392 330.358 873.23 330.79 872.906 331.114C872.594 331.438 872.162 331.6 871.61 331.6H865.634V329.98H871.034C871.382 329.98 871.556 329.8 871.556 329.44V326.614H871.268C871.136 326.83 870.95 327.052 870.71 327.28C870.47 327.508 870.152 327.694 869.756 327.838C869.372 327.982 868.886 328.054 868.298 328.054C867.554 328.054 866.864 327.88 866.228 327.532C865.604 327.172 865.106 326.662 864.734 326.002C864.362 325.33 864.176 324.532 864.176 323.608ZM868.802 326.434C869.606 326.434 870.266 326.182 870.782 325.678C871.31 325.162 871.574 324.454 871.574 323.554V323.392C871.574 322.468 871.316 321.76 870.8 321.268C870.284 320.764 869.618 320.512 868.802 320.512C868.01 320.512 867.35 320.764 866.822 321.268C866.306 321.76 866.048 322.468 866.048 323.392V323.554C866.048 324.454 866.306 325.162 866.822 325.678C867.35 326.182 868.01 326.434 868.802 326.434ZM877.238 328.252C876.818 328.252 876.464 328.114 876.176 327.838C875.9 327.562 875.762 327.208 875.762 326.776C875.762 326.344 875.9 325.996 876.176 325.732C876.464 325.456 876.818 325.318 877.238 325.318C877.658 325.318 878.006 325.456 878.282 325.732C878.57 326.008 878.714 326.356 878.714 326.776C878.714 327.208 878.57 327.562 878.282 327.838C878.006 328.114 877.658 328.252 877.238 328.252ZM888.524 328.252C887.264 328.252 886.262 327.904 885.518 327.208C884.774 326.5 884.402 325.504 884.402 324.22V323.14H886.346V324.22C886.346 324.892 886.526 325.432 886.886 325.84C887.258 326.236 887.792 326.434 888.488 326.434C889.16 326.434 889.658 326.236 889.982 325.84C890.306 325.444 890.468 324.904 890.468 324.22V317.164H888.272V315.4H893.816V317.164H892.412V324.22C892.412 325.528 892.07 326.53 891.386 327.226C890.714 327.91 889.76 328.252 888.524 328.252ZM898.159 328.252C897.523 328.252 896.953 328.144 896.449 327.928C895.957 327.712 895.561 327.394 895.261 326.974C894.973 326.554 894.829 326.044 894.829 325.444C894.829 324.832 894.973 324.328 895.261 323.932C895.561 323.524 895.963 323.218 896.467 323.014C896.983 322.81 897.565 322.708 898.213 322.708H900.913V322.132C900.913 321.616 900.757 321.202 900.445 320.89C900.133 320.578 899.653 320.422 899.005 320.422C898.369 320.422 897.883 320.572 897.547 320.872C897.211 321.172 896.989 321.562 896.881 322.042L895.153 321.484C895.297 321.004 895.525 320.572 895.837 320.188C896.161 319.792 896.587 319.474 897.115 319.234C897.643 318.994 898.279 318.874 899.023 318.874C900.175 318.874 901.081 319.168 901.741 319.756C902.401 320.344 902.731 321.178 902.731 322.258V325.912C902.731 326.272 902.899 326.452 903.235 326.452H903.991V328H902.605C902.185 328 901.843 327.892 901.579 327.676C901.315 327.46 901.183 327.166 901.183 326.794V326.74H900.913C900.817 326.92 900.673 327.13 900.481 327.37C900.289 327.61 900.007 327.82 899.635 328C899.263 328.168 898.771 328.252 898.159 328.252ZM898.429 326.722C899.173 326.722 899.773 326.512 900.229 326.092C900.685 325.66 900.913 325.072 900.913 324.328V324.148H898.321C897.829 324.148 897.433 324.256 897.133 324.472C896.833 324.676 896.683 324.982 896.683 325.39C896.683 325.798 896.839 326.122 897.151 326.362C897.463 326.602 897.889 326.722 898.429 326.722ZM905.794 328V319.126H907.612V320.458H907.9C908.068 320.098 908.368 319.762 908.8 319.45C909.232 319.138 909.874 318.982 910.726 318.982C911.398 318.982 911.992 319.132 912.508 319.432C913.036 319.732 913.45 320.158 913.75 320.71C914.05 321.25 914.2 321.904 914.2 322.672V328H912.346V322.816C912.346 322.048 912.154 321.484 911.77 321.124C911.386 320.752 910.858 320.566 910.186 320.566C909.418 320.566 908.8 320.818 908.332 321.322C907.876 321.826 907.648 322.558 907.648 323.518V328H905.794ZM920.936 328.252C920.036 328.252 919.25 328.066 918.578 327.694C917.906 327.31 917.378 326.776 916.994 326.092C916.622 325.396 916.436 324.592 916.436 323.68V323.464C916.436 322.54 916.622 321.736 916.994 321.052C917.366 320.356 917.882 319.822 918.542 319.45C919.214 319.066 919.988 318.874 920.864 318.874C921.716 318.874 922.46 319.066 923.096 319.45C923.744 319.822 924.248 320.344 924.608 321.016C924.968 321.688 925.148 322.474 925.148 323.374V324.076H918.326C918.35 324.856 918.608 325.48 919.1 325.948C919.604 326.404 920.228 326.632 920.972 326.632C921.668 326.632 922.19 326.476 922.538 326.164C922.898 325.852 923.174 325.492 923.366 325.084L924.896 325.876C924.728 326.212 924.482 326.566 924.158 326.938C923.846 327.31 923.432 327.622 922.916 327.874C922.4 328.126 921.74 328.252 920.936 328.252ZM918.344 322.654H923.258C923.21 321.982 922.97 321.46 922.538 321.088C922.106 320.704 921.542 320.512 920.846 320.512C920.15 320.512 919.58 320.704 919.136 321.088C918.704 321.46 918.44 321.982 918.344 322.654ZM930.749 328L934.349 315.4H937.769L941.351 328H939.353L938.525 325.03H933.593L932.765 328H930.749ZM934.079 323.23H938.039L936.203 316.606H935.915L934.079 323.23ZM943.112 331.6V319.126H944.93V320.404H945.218C945.446 320.008 945.788 319.654 946.244 319.342C946.712 319.03 947.378 318.874 948.242 318.874C948.986 318.874 949.664 319.054 950.276 319.414C950.9 319.774 951.398 320.296 951.77 320.98C952.154 321.652 952.346 322.468 952.346 323.428V323.698C952.346 324.658 952.16 325.48 951.788 326.164C951.416 326.836 950.918 327.352 950.294 327.712C949.67 328.072 948.986 328.252 948.242 328.252C947.666 328.252 947.18 328.18 946.784 328.036C946.388 327.892 946.07 327.712 945.83 327.496C945.59 327.268 945.398 327.034 945.254 326.794H944.966V331.6H943.112ZM947.702 326.632C948.518 326.632 949.184 326.374 949.7 325.858C950.216 325.342 950.474 324.604 950.474 323.644V323.482C950.474 322.534 950.21 321.802 949.682 321.286C949.166 320.77 948.506 320.512 947.702 320.512C946.91 320.512 946.25 320.77 945.722 321.286C945.206 321.802 944.948 322.534 944.948 323.482V323.644C944.948 324.604 945.206 325.342 945.722 325.858C946.25 326.374 946.91 326.632 947.702 326.632ZM954.643 331.6V319.126H956.461V320.404H956.749C956.977 320.008 957.319 319.654 957.775 319.342C958.243 319.03 958.909 318.874 959.773 318.874C960.517 318.874 961.195 319.054 961.807 319.414C962.431 319.774 962.929 320.296 963.301 320.98C963.685 321.652 963.877 322.468 963.877 323.428V323.698C963.877 324.658 963.691 325.48 963.319 326.164C962.947 326.836 962.449 327.352 961.825 327.712C961.201 328.072 960.517 328.252 959.773 328.252C959.197 328.252 958.711 328.18 958.315 328.036C957.919 327.892 957.601 327.712 957.361 327.496C957.121 327.268 956.929 327.034 956.785 326.794H956.497V331.6H954.643ZM959.233 326.632C960.049 326.632 960.715 326.374 961.231 325.858C961.747 325.342 962.005 324.604 962.005 323.644V323.482C962.005 322.534 961.741 321.802 961.213 321.286C960.697 320.77 960.037 320.512 959.233 320.512C958.441 320.512 957.781 320.77 957.253 321.286C956.737 321.802 956.479 322.534 956.479 323.482V323.644C956.479 324.604 956.737 325.342 957.253 325.858C957.781 326.374 958.441 326.632 959.233 326.632ZM966.175 328V315.4H968.029V328H966.175ZM974.848 328.252C973.948 328.252 973.162 328.066 972.49 327.694C971.818 327.31 971.29 326.776 970.906 326.092C970.534 325.396 970.348 324.592 970.348 323.68V323.464C970.348 322.54 970.534 321.736 970.906 321.052C971.278 320.356 971.794 319.822 972.454 319.45C973.126 319.066 973.9 318.874 974.776 318.874C975.628 318.874 976.372 319.066 977.008 319.45C977.656 319.822 978.16 320.344 978.52 321.016C978.88 321.688 979.06 322.474 979.06 323.374V324.076H972.238C972.262 324.856 972.52 325.48 973.012 325.948C973.516 326.404 974.14 326.632 974.884 326.632C975.58 326.632 976.102 326.476 976.45 326.164C976.81 325.852 977.086 325.492 977.278 325.084L978.808 325.876C978.64 326.212 978.394 326.566 978.07 326.938C977.758 327.31 977.344 327.622 976.828 327.874C976.312 328.126 975.652 328.252 974.848 328.252ZM972.256 322.654H977.17C977.122 321.982 976.882 321.46 976.45 321.088C976.018 320.704 975.454 320.512 974.758 320.512C974.062 320.512 973.492 320.704 973.048 321.088C972.616 321.46 972.352 321.982 972.256 322.654ZM984.928 328.252C983.8 328.252 982.864 328 982.12 327.496C981.376 326.992 980.92 326.23 980.752 325.21L982.48 324.796C982.576 325.288 982.738 325.678 982.966 325.966C983.194 326.254 983.476 326.458 983.812 326.578C984.16 326.698 984.532 326.758 984.928 326.758C985.516 326.758 985.966 326.644 986.278 326.416C986.602 326.188 986.764 325.894 986.764 325.534C986.764 325.174 986.614 324.91 986.314 324.742C986.014 324.574 985.57 324.436 984.982 324.328L984.37 324.22C983.77 324.112 983.224 323.956 982.732 323.752C982.24 323.548 981.85 323.266 981.562 322.906C981.274 322.546 981.13 322.084 981.13 321.52C981.13 320.68 981.442 320.032 982.066 319.576C982.69 319.108 983.518 318.874 984.55 318.874C985.546 318.874 986.362 319.102 986.998 319.558C987.646 320.002 988.066 320.608 988.258 321.376L986.53 321.862C986.422 321.322 986.194 320.944 985.846 320.728C985.498 320.5 985.066 320.386 984.55 320.386C984.046 320.386 983.65 320.482 983.362 320.674C983.074 320.854 982.93 321.112 982.93 321.448C982.93 321.808 983.068 322.072 983.344 322.24C983.632 322.408 984.016 322.534 984.496 322.618L985.126 322.726C985.762 322.834 986.344 322.984 986.872 323.176C987.4 323.368 987.814 323.644 988.114 324.004C988.426 324.364 988.582 324.844 988.582 325.444C988.582 326.332 988.252 327.022 987.592 327.514C986.932 328.006 986.044 328.252 984.928 328.252ZM994.817 328.252C993.917 328.252 993.131 328.066 992.459 327.694C991.787 327.31 991.259 326.776 990.875 326.092C990.503 325.396 990.317 324.592 990.317 323.68V323.464C990.317 322.54 990.503 321.736 990.875 321.052C991.247 320.356 991.763 319.822 992.423 319.45C993.095 319.066 993.869 318.874 994.745 318.874C995.597 318.874 996.341 319.066 996.977 319.45C997.625 319.822 998.129 320.344 998.489 321.016C998.849 321.688 999.029 322.474 999.029 323.374V324.076H992.207C992.231 324.856 992.489 325.48 992.981 325.948C993.485 326.404 994.109 326.632 994.853 326.632C995.549 326.632 996.071 326.476 996.419 326.164C996.779 325.852 997.055 325.492 997.247 325.084L998.777 325.876C998.609 326.212 998.363 326.566 998.039 326.938C997.727 327.31 997.313 327.622 996.797 327.874C996.281 328.126 995.621 328.252 994.817 328.252ZM992.225 322.654H997.139C997.091 321.982 996.851 321.46 996.419 321.088C995.987 320.704 995.423 320.512 994.727 320.512C994.031 320.512 993.461 320.704 993.017 321.088C992.585 321.46 992.321 321.982 992.225 322.654ZM1005.33 328.252C1004.43 328.252 1003.64 328.066 1002.97 327.694C1002.3 327.31 1001.77 326.776 1001.39 326.092C1001.01 325.396 1000.83 324.592 1000.83 323.68V323.464C1000.83 322.54 1001.01 321.736 1001.39 321.052C1001.76 320.356 1002.27 319.822 1002.93 319.45C1003.61 319.066 1004.38 318.874 1005.26 318.874C1006.11 318.874 1006.85 319.066 1007.49 319.45C1008.14 319.822 1008.64 320.344 1009 321.016C1009.36 321.688 1009.54 322.474 1009.54 323.374V324.076H1002.72C1002.74 324.856 1003 325.48 1003.49 325.948C1004 326.404 1004.62 326.632 1005.36 326.632C1006.06 326.632 1006.58 326.476 1006.93 326.164C1007.29 325.852 1007.57 325.492 1007.76 325.084L1009.29 325.876C1009.12 326.212 1008.87 326.566 1008.55 326.938C1008.24 327.31 1007.82 327.622 1007.31 327.874C1006.79 328.126 1006.13 328.252 1005.33 328.252ZM1002.74 322.654H1007.65C1007.6 321.982 1007.36 321.46 1006.93 321.088C1006.5 320.704 1005.93 320.512 1005.24 320.512C1004.54 320.512 1003.97 320.704 1003.53 321.088C1003.1 321.46 1002.83 321.982 1002.74 322.654ZM1015.44 328.252C1014.71 328.252 1014.03 328.072 1013.41 327.712C1012.79 327.352 1012.28 326.836 1011.9 326.164C1011.53 325.48 1011.34 324.658 1011.34 323.698V323.428C1011.34 322.48 1011.53 321.664 1011.9 320.98C1012.27 320.296 1012.77 319.774 1013.39 319.414C1014.02 319.054 1014.7 318.874 1015.44 318.874C1016.02 318.874 1016.5 318.946 1016.88 319.09C1017.28 319.234 1017.6 319.42 1017.86 319.648C1018.11 319.864 1018.3 320.092 1018.43 320.332H1018.72V315.4H1020.57V328H1018.76V326.74H1018.47C1018.24 327.124 1017.89 327.472 1017.42 327.784C1016.97 328.096 1016.31 328.252 1015.44 328.252ZM1015.97 326.632C1016.77 326.632 1017.43 326.374 1017.95 325.858C1018.47 325.342 1018.74 324.604 1018.74 323.644V323.482C1018.74 322.534 1018.48 321.802 1017.96 321.286C1017.45 320.77 1016.78 320.512 1015.97 320.512C1015.17 320.512 1014.51 320.77 1013.99 321.286C1013.47 321.802 1013.21 322.534 1013.21 323.482V323.644C1013.21 324.604 1013.47 325.342 1013.99 325.858C1014.51 326.374 1015.17 326.632 1015.97 326.632Z" fill="#21092F"/>
</g>
</g>
<g clip-path="url(#clip2_0_224)">
<path d="M835.996 382.168C834.972 382.168 834.16 381.88 833.56 381.304C832.96 380.72 832.66 379.88 832.66 378.784V376.816C832.66 375.72 832.96 374.884 833.56 374.308C834.16 373.724 834.972 373.432 835.996 373.432C837.004 373.432 837.78 373.712 838.324 374.272C838.876 374.832 839.152 375.596 839.152 376.564V376.636H837.868V376.528C837.868 375.96 837.712 375.496 837.4 375.136C837.096 374.776 836.628 374.596 835.996 374.596C835.356 374.596 834.856 374.792 834.496 375.184C834.136 375.568 833.956 376.104 833.956 376.792V378.808C833.956 379.488 834.136 380.024 834.496 380.416C834.856 380.808 835.356 381.004 835.996 381.004C836.628 381.004 837.096 380.824 837.4 380.464C837.712 380.096 837.868 379.632 837.868 379.072V378.868H839.152V379.036C839.152 380.004 838.876 380.768 838.324 381.328C837.78 381.888 837.004 382.168 835.996 382.168ZM841.881 382L844.281 373.6H846.561L848.949 382H847.617L847.065 380.02H843.777L843.225 382H841.881ZM844.101 378.82H846.741L845.517 374.404H845.325L844.101 378.82ZM852.087 382V373.6H855.615C856.135 373.6 856.591 373.692 856.983 373.876C857.383 374.052 857.691 374.308 857.907 374.644C858.131 374.98 858.243 375.38 858.243 375.844V375.976C858.243 376.504 858.115 376.928 857.859 377.248C857.611 377.56 857.307 377.78 856.947 377.908V378.1C857.251 378.116 857.495 378.22 857.679 378.412C857.863 378.596 857.955 378.864 857.955 379.216V382H856.647V379.396C856.647 379.18 856.591 379.008 856.479 378.88C856.367 378.752 856.187 378.688 855.939 378.688H853.383V382H852.087ZM853.383 377.512H855.471C855.935 377.512 856.295 377.396 856.551 377.164C856.807 376.924 856.935 376.6 856.935 376.192V376.096C856.935 375.688 856.807 375.368 856.551 375.136C856.303 374.896 855.943 374.776 855.471 374.776H853.383V377.512ZM861.357 382V380.848H862.485V374.752H861.357V373.6H864.717C865.837 373.6 866.693 373.884 867.285 374.452C867.885 375.02 868.185 375.876 868.185 377.02V378.592C868.185 379.736 867.885 380.592 867.285 381.16C866.693 381.72 865.837 382 864.717 382H861.357ZM863.793 380.824H864.729C865.457 380.824 865.997 380.64 866.349 380.272C866.701 379.904 866.877 379.356 866.877 378.628V376.972C866.877 376.236 866.701 375.688 866.349 375.328C865.997 374.968 865.457 374.788 864.729 374.788H863.793V380.824ZM876.708 382V373.6H879.204L881.484 381.136H881.676V373.6H882.96V382H880.464L878.184 374.452H877.992V382H876.708ZM889.856 382.168C889.192 382.168 888.62 382.048 888.14 381.808C887.668 381.568 887.3 381.224 887.036 380.776C886.78 380.32 886.652 379.768 886.652 379.12V373.6H887.96V379.156C887.96 379.748 888.124 380.204 888.452 380.524C888.78 380.844 889.248 381.004 889.856 381.004C890.464 381.004 890.932 380.844 891.26 380.524C891.588 380.204 891.752 379.748 891.752 379.156V373.6H893.048V379.12C893.048 379.768 892.92 380.32 892.664 380.776C892.408 381.224 892.04 381.568 891.56 381.808C891.08 382.048 890.512 382.168 889.856 382.168ZM896.739 382V373.6H899.175L901.011 381.136H901.203L903.039 373.6H905.475V382H904.215V374.512H904.023L902.199 382H900.015L898.191 374.512H897.999V382H896.739ZM908.916 382V380.848H910.044V374.752H908.916V373.6H913.176C913.68 373.6 914.12 373.688 914.496 373.864C914.872 374.032 915.164 374.276 915.372 374.596C915.588 374.908 915.696 375.28 915.696 375.712V375.832C915.696 376.216 915.624 376.532 915.48 376.78C915.336 377.028 915.16 377.22 914.952 377.356C914.752 377.492 914.56 377.588 914.376 377.644V377.836C914.56 377.884 914.756 377.98 914.964 378.124C915.18 378.26 915.36 378.452 915.504 378.7C915.656 378.948 915.732 379.272 915.732 379.672V379.792C915.732 380.256 915.624 380.652 915.408 380.98C915.192 381.308 914.892 381.56 914.508 381.736C914.132 381.912 913.696 382 913.2 382H908.916ZM911.352 380.824H913.044C913.476 380.824 913.816 380.72 914.064 380.512C914.312 380.304 914.436 380.016 914.436 379.648V379.54C914.436 379.172 914.312 378.884 914.064 378.676C913.824 378.468 913.484 378.364 913.044 378.364H911.352V380.824ZM911.352 377.176H913.044C913.452 377.176 913.78 377.076 914.028 376.876C914.276 376.668 914.4 376.388 914.4 376.036V375.916C914.4 375.564 914.276 375.288 914.028 375.088C913.788 374.88 913.46 374.776 913.044 374.776H911.352V377.176ZM919.185 382V373.6H924.477V374.776H920.481V377.188H924.141V378.364H920.481V380.824H924.537V382H919.185ZM927.888 382V373.6H931.416C931.936 373.6 932.392 373.692 932.784 373.876C933.184 374.052 933.492 374.308 933.708 374.644C933.932 374.98 934.044 375.38 934.044 375.844V375.976C934.044 376.504 933.916 376.928 933.66 377.248C933.412 377.56 933.108 377.78 932.748 377.908V378.1C933.052 378.116 933.296 378.22 933.48 378.412C933.664 378.596 933.756 378.864 933.756 379.216V382H932.448V379.396C932.448 379.18 932.392 379.008 932.28 378.88C932.168 378.752 931.988 378.688 931.74 378.688H929.184V382H927.888ZM929.184 377.512H931.272C931.736 377.512 932.096 377.396 932.352 377.164C932.608 376.924 932.736 376.6 932.736 376.192V376.096C932.736 375.688 932.608 375.368 932.352 375.136C932.104 374.896 931.744 374.776 931.272 374.776H929.184V377.512Z" fill="#21092F"/>
<g clip-path="url(#clip3_0_224)">
<rect x="832.5" y="394.5" width="380" height="44" rx="7.5" fill="white" stroke="#DFDEE0"/>
<path opacity="0.25" d="M853.436 423.252C852.536 423.252 851.75 423.066 851.078 422.694C850.406 422.31 849.878 421.776 849.494 421.092C849.122 420.396 848.936 419.592 848.936 418.68V418.464C848.936 417.54 849.122 416.736 849.494 416.052C849.866 415.356 850.382 414.822 851.042 414.45C851.714 414.066 852.488 413.874 853.364 413.874C854.216 413.874 854.96 414.066 855.596 414.45C856.244 414.822 856.748 415.344 857.108 416.016C857.468 416.688 857.648 417.474 857.648 418.374V419.076H850.826C850.85 419.856 851.108 420.48 851.6 420.948C852.104 421.404 852.728 421.632 853.472 421.632C854.168 421.632 854.69 421.476 855.038 421.164C855.398 420.852 855.674 420.492 855.866 420.084L857.396 420.876C857.228 421.212 856.982 421.566 856.658 421.938C856.346 422.31 855.932 422.622 855.416 422.874C854.9 423.126 854.24 423.252 853.436 423.252ZM850.844 417.654H855.758C855.71 416.982 855.47 416.46 855.038 416.088C854.606 415.704 854.042 415.512 853.346 415.512C852.65 415.512 852.08 415.704 851.636 416.088C851.204 416.46 850.94 416.982 850.844 417.654ZM860.873 423.252C860.453 423.252 860.099 423.114 859.811 422.838C859.535 422.562 859.397 422.208 859.397 421.776C859.397 421.344 859.535 420.996 859.811 420.732C860.099 420.456 860.453 420.318 860.873 420.318C861.293 420.318 861.641 420.456 861.917 420.732C862.205 421.008 862.349 421.356 862.349 421.776C862.349 422.208 862.205 422.562 861.917 422.838C861.641 423.114 861.293 423.252 860.873 423.252ZM864.176 418.608V418.338C864.176 417.402 864.362 416.604 864.734 415.944C865.118 415.284 865.622 414.774 866.246 414.414C866.87 414.054 867.554 413.874 868.298 413.874C869.162 413.874 869.822 414.036 870.278 414.36C870.746 414.684 871.088 415.032 871.304 415.404H871.592V414.126H873.392V424.818C873.392 425.358 873.23 425.79 872.906 426.114C872.594 426.438 872.162 426.6 871.61 426.6H865.634V424.98H871.034C871.382 424.98 871.556 424.8 871.556 424.44V421.614H871.268C871.136 421.83 870.95 422.052 870.71 422.28C870.47 422.508 870.152 422.694 869.756 422.838C869.372 422.982 868.886 423.054 868.298 423.054C867.554 423.054 866.864 422.88 866.228 422.532C865.604 422.172 865.106 421.662 864.734 421.002C864.362 420.33 864.176 419.532 864.176 418.608ZM868.802 421.434C869.606 421.434 870.266 421.182 870.782 420.678C871.31 420.162 871.574 419.454 871.574 418.554V418.392C871.574 417.468 871.316 416.76 870.8 416.268C870.284 415.764 869.618 415.512 868.802 415.512C868.01 415.512 867.35 415.764 866.822 416.268C866.306 416.76 866.048 417.468 866.048 418.392V418.554C866.048 419.454 866.306 420.162 866.822 420.678C867.35 421.182 868.01 421.434 868.802 421.434ZM877.238 423.252C876.818 423.252 876.464 423.114 876.176 422.838C875.9 422.562 875.762 422.208 875.762 421.776C875.762 421.344 875.9 420.996 876.176 420.732C876.464 420.456 876.818 420.318 877.238 420.318C877.658 420.318 878.006 420.456 878.282 420.732C878.57 421.008 878.714 421.356 878.714 421.776C878.714 422.208 878.57 422.562 878.282 422.838C878.006 423.114 877.658 423.252 877.238 423.252ZM888.38 423V411.732H888.092L886.022 415.98H884.024L886.814 410.4H890.27V423H888.38ZM892.44 423V421.578C892.44 420.702 892.59 419.982 892.89 419.418C893.19 418.854 893.616 418.398 894.168 418.05C894.732 417.69 895.41 417.39 896.202 417.15L897.3 416.808C897.792 416.652 898.212 416.46 898.56 416.232C898.92 416.004 899.196 415.722 899.388 415.386C899.58 415.038 899.676 414.636 899.676 414.18V414.108C899.676 413.4 899.436 412.848 898.956 412.452C898.476 412.044 897.846 411.84 897.066 411.84C896.262 411.84 895.608 412.056 895.104 412.488C894.612 412.92 894.366 413.556 894.366 414.396V414.684H892.494V414.414C892.494 413.502 892.692 412.734 893.088 412.11C893.484 411.474 894.03 410.988 894.726 410.652C895.422 410.316 896.202 410.148 897.066 410.148C897.93 410.148 898.698 410.31 899.37 410.634C900.054 410.958 900.588 411.414 900.972 412.002C901.368 412.59 901.566 413.28 901.566 414.072V414.234C901.566 415.05 901.404 415.728 901.08 416.268C900.756 416.808 900.306 417.252 899.73 417.6C899.166 417.948 898.512 418.242 897.768 418.482L896.706 418.806C896.142 418.974 895.686 419.16 895.338 419.364C895.002 419.556 894.75 419.79 894.582 420.066C894.426 420.342 894.348 420.696 894.348 421.128V421.308H901.458V423H892.44ZM907.771 423.252C906.847 423.252 906.025 423.084 905.305 422.748C904.585 422.412 904.021 421.926 903.613 421.29C903.217 420.654 903.019 419.898 903.019 419.022V418.698H904.909V418.986C904.909 419.778 905.167 420.408 905.683 420.876C906.211 421.332 906.907 421.56 907.771 421.56C908.635 421.56 909.307 421.344 909.787 420.912C910.267 420.48 910.507 419.934 910.507 419.274V419.112C910.507 418.644 910.393 418.266 910.165 417.978C909.937 417.69 909.631 417.48 909.247 417.348C908.863 417.204 908.431 417.132 907.951 417.132H905.665V414.954L910.093 412.344V412.092H903.325V410.4H912.145V412.956L907.915 415.476V415.728H908.689C909.325 415.728 909.925 415.848 910.489 416.088C911.053 416.328 911.509 416.694 911.857 417.186C912.217 417.678 912.397 418.302 912.397 419.058V419.274C912.397 420.078 912.205 420.78 911.821 421.38C911.437 421.968 910.897 422.43 910.201 422.766C909.505 423.09 908.695 423.252 907.771 423.252ZM920.109 423V420.426H913.737V418.23L918.561 410.4H921.999V418.752H924.123V420.426H921.999V423H920.109ZM915.573 418.752H920.109V411.588H919.821L915.573 418.5V418.752ZM934.577 423.252C933.629 423.252 932.807 423.078 932.111 422.73C931.415 422.382 930.875 421.89 930.491 421.254C930.119 420.618 929.933 419.88 929.933 419.04V418.842H931.859V419.022C931.859 419.79 932.093 420.408 932.561 420.876C933.041 421.332 933.707 421.56 934.559 421.56C935.435 421.56 936.113 421.32 936.593 420.84C937.073 420.36 937.313 419.712 937.313 418.896V418.734C937.313 417.954 937.073 417.33 936.593 416.862C936.125 416.394 935.525 416.16 934.793 416.16C934.385 416.16 934.043 416.226 933.767 416.358C933.503 416.478 933.287 416.628 933.119 416.808C932.963 416.988 932.831 417.162 932.723 417.33H930.329V410.4H938.771V412.11H932.219V415.818H932.507C932.627 415.614 932.795 415.422 933.011 415.242C933.239 415.05 933.533 414.894 933.893 414.774C934.253 414.654 934.685 414.594 935.189 414.594C935.933 414.594 936.605 414.756 937.205 415.08C937.817 415.392 938.303 415.86 938.663 416.484C939.023 417.096 939.203 417.84 939.203 418.716V418.914C939.203 419.79 939.017 420.552 938.645 421.2C938.273 421.848 937.739 422.352 937.043 422.712C936.359 423.072 935.537 423.252 934.577 423.252ZM945.514 423.252C944.602 423.252 943.798 423.078 943.102 422.73C942.406 422.37 941.866 421.872 941.482 421.236C941.098 420.6 940.906 419.862 940.906 419.022V414.666C940.906 413.682 941.098 412.854 941.482 412.182C941.878 411.51 942.43 411.006 943.138 410.67C943.846 410.322 944.668 410.148 945.604 410.148C946.528 410.148 947.326 410.31 947.998 410.634C948.67 410.946 949.186 411.396 949.546 411.984C949.906 412.56 950.086 413.238 950.086 414.018H948.178C948.178 413.394 947.968 412.878 947.548 412.47C947.14 412.05 946.492 411.84 945.604 411.84C944.704 411.84 944.008 412.08 943.516 412.56C943.036 413.028 942.796 413.682 942.796 414.522V416.034H943.084C943.288 415.746 943.618 415.47 944.074 415.206C944.542 414.942 945.202 414.81 946.054 414.81C946.798 414.81 947.482 414.972 948.106 415.296C948.73 415.62 949.228 416.082 949.6 416.682C949.984 417.282 950.176 418.008 950.176 418.86V419.076C950.176 419.904 949.978 420.636 949.582 421.272C949.186 421.896 948.634 422.382 947.926 422.73C947.23 423.078 946.426 423.252 945.514 423.252ZM945.532 421.56C946.372 421.56 947.038 421.332 947.53 420.876C948.034 420.42 948.286 419.808 948.286 419.04V418.896C948.286 418.38 948.172 417.936 947.944 417.564C947.716 417.18 947.392 416.88 946.972 416.664C946.564 416.448 946.084 416.34 945.532 416.34C944.992 416.34 944.512 416.448 944.092 416.664C943.684 416.88 943.366 417.18 943.138 417.564C942.91 417.936 942.796 418.38 942.796 418.896V419.04C942.796 419.808 943.042 420.42 943.534 420.876C944.038 421.332 944.704 421.56 945.532 421.56ZM953.265 423V422.55C953.265 422.094 953.301 421.716 953.373 421.416C953.445 421.104 953.595 420.744 953.823 420.336L958.323 412.326V412.092H951.249V410.4H960.285V412.632L955.551 421.128C955.407 421.392 955.305 421.632 955.245 421.848C955.185 422.052 955.155 422.31 955.155 422.622V423H953.265ZM966.272 423.252C965.3 423.252 964.448 423.108 963.716 422.82C962.996 422.532 962.432 422.118 962.024 421.578C961.628 421.026 961.43 420.384 961.43 419.652V419.454C961.43 418.854 961.544 418.362 961.772 417.978C962.012 417.582 962.3 417.276 962.636 417.06C962.984 416.832 963.308 416.682 963.608 416.61V416.322C963.308 416.238 963.002 416.088 962.69 415.872C962.378 415.644 962.12 415.35 961.916 414.99C961.724 414.618 961.628 414.174 961.628 413.658V413.46C961.628 412.788 961.82 412.206 962.204 411.714C962.6 411.222 963.146 410.838 963.842 410.562C964.538 410.286 965.348 410.148 966.272 410.148C967.184 410.148 967.988 410.286 968.684 410.562C969.38 410.838 969.92 411.222 970.304 411.714C970.7 412.206 970.898 412.788 970.898 413.46V413.658C970.898 414.174 970.796 414.618 970.592 414.99C970.4 415.35 970.154 415.644 969.854 415.872C969.554 416.088 969.248 416.238 968.936 416.322V416.61C969.248 416.682 969.572 416.832 969.908 417.06C970.244 417.276 970.526 417.582 970.754 417.978C970.982 418.362 971.096 418.854 971.096 419.454V419.652C971.096 420.384 970.892 421.026 970.484 421.578C970.088 422.118 969.524 422.532 968.792 422.82C968.072 423.108 967.232 423.252 966.272 423.252ZM966.272 421.56C967.184 421.56 967.898 421.386 968.414 421.038C968.942 420.678 969.206 420.18 969.206 419.544V419.4C969.206 418.752 968.948 418.254 968.432 417.906C967.928 417.546 967.208 417.366 966.272 417.366C965.336 417.366 964.61 417.546 964.094 417.906C963.578 418.254 963.32 418.752 963.32 419.4V419.544C963.32 420.18 963.578 420.678 964.094 421.038C964.622 421.386 965.348 421.56 966.272 421.56ZM966.272 415.674C967.124 415.674 967.79 415.512 968.27 415.188C968.762 414.864 969.008 414.408 969.008 413.82V413.676C969.008 413.088 968.762 412.638 968.27 412.326C967.778 412.002 967.112 411.84 966.272 411.84C965.42 411.84 964.748 412.002 964.256 412.326C963.764 412.638 963.518 413.088 963.518 413.676V413.82C963.518 414.408 963.758 414.864 964.238 415.188C964.73 415.512 965.408 415.674 966.272 415.674ZM981.755 423.252C980.819 423.252 980.015 423.096 979.343 422.784C978.671 422.46 978.155 422.01 977.795 421.434C977.435 420.846 977.255 420.162 977.255 419.382H979.181C979.181 420.006 979.385 420.528 979.793 420.948C980.213 421.356 980.867 421.56 981.755 421.56C982.655 421.56 983.345 421.32 983.825 420.84C984.305 420.36 984.545 419.706 984.545 418.878V417.366H984.257C984.053 417.654 983.723 417.93 983.267 418.194C982.811 418.458 982.151 418.59 981.287 418.59C980.555 418.59 979.877 418.428 979.253 418.104C978.629 417.78 978.125 417.318 977.741 416.718C977.369 416.106 977.183 415.38 977.183 414.54V414.324C977.183 413.484 977.375 412.752 977.759 412.128C978.155 411.504 978.701 411.018 979.397 410.67C980.105 410.322 980.915 410.148 981.827 410.148C982.751 410.148 983.555 410.328 984.239 410.688C984.935 411.036 985.475 411.528 985.859 412.164C986.243 412.788 986.435 413.526 986.435 414.378V418.734C986.435 419.718 986.237 420.546 985.841 421.218C985.457 421.89 984.911 422.4 984.203 422.748C983.507 423.084 982.691 423.252 981.755 423.252ZM981.809 417.06C982.361 417.06 982.841 416.952 983.249 416.736C983.657 416.52 983.975 416.226 984.203 415.854C984.431 415.47 984.545 415.02 984.545 414.504V414.36C984.545 413.58 984.293 412.968 983.789 412.524C983.297 412.068 982.637 411.84 981.809 411.84C980.981 411.84 980.315 412.068 979.811 412.524C979.319 412.968 979.073 413.58 979.073 414.36V414.504C979.073 415.02 979.181 415.47 979.397 415.854C979.625 416.226 979.943 416.52 980.351 416.736C980.771 416.952 981.257 417.06 981.809 417.06ZM992.056 423V411.732H991.768L989.698 415.98H987.7L990.49 410.4H993.946V423H992.056ZM996.116 423V421.578C996.116 420.702 996.266 419.982 996.566 419.418C996.866 418.854 997.292 418.398 997.844 418.05C998.408 417.69 999.086 417.39 999.878 417.15L1000.98 416.808C1001.47 416.652 1001.89 416.46 1002.24 416.232C1002.6 416.004 1002.87 415.722 1003.06 415.386C1003.26 415.038 1003.35 414.636 1003.35 414.18V414.108C1003.35 413.4 1003.11 412.848 1002.63 412.452C1002.15 412.044 1001.52 411.84 1000.74 411.84C999.938 411.84 999.284 412.056 998.78 412.488C998.288 412.92 998.042 413.556 998.042 414.396V414.684H996.17V414.414C996.17 413.502 996.368 412.734 996.764 412.11C997.16 411.474 997.706 410.988 998.402 410.652C999.098 410.316 999.878 410.148 1000.74 410.148C1001.61 410.148 1002.37 410.31 1003.05 410.634C1003.73 410.958 1004.26 411.414 1004.65 412.002C1005.04 412.59 1005.24 413.28 1005.24 414.072V414.234C1005.24 415.05 1005.08 415.728 1004.76 416.268C1004.43 416.808 1003.98 417.252 1003.41 417.6C1002.84 417.948 1002.19 418.242 1001.44 418.482L1000.38 418.806C999.818 418.974 999.362 419.16 999.014 419.364C998.678 419.556 998.426 419.79 998.258 420.066C998.102 420.342 998.024 420.696 998.024 421.128V421.308H1005.13V423H996.116ZM1011.45 423.252C1010.52 423.252 1009.7 423.084 1008.98 422.748C1008.26 422.412 1007.7 421.926 1007.29 421.29C1006.89 420.654 1006.69 419.898 1006.69 419.022V418.698H1008.58V418.986C1008.58 419.778 1008.84 420.408 1009.36 420.876C1009.89 421.332 1010.58 421.56 1011.45 421.56C1012.31 421.56 1012.98 421.344 1013.46 420.912C1013.94 420.48 1014.18 419.934 1014.18 419.274V419.112C1014.18 418.644 1014.07 418.266 1013.84 417.978C1013.61 417.69 1013.31 417.48 1012.92 417.348C1012.54 417.204 1012.11 417.132 1011.63 417.132H1009.34V414.954L1013.77 412.344V412.092H1007V410.4H1015.82V412.956L1011.59 415.476V415.728H1012.36C1013 415.728 1013.6 415.848 1014.16 416.088C1014.73 416.328 1015.18 416.694 1015.53 417.186C1015.89 417.678 1016.07 418.302 1016.07 419.058V419.274C1016.07 420.078 1015.88 420.78 1015.5 421.38C1015.11 421.968 1014.57 422.43 1013.88 422.766C1013.18 423.09 1012.37 423.252 1011.45 423.252ZM1027.27 423.252C1025.81 423.252 1024.64 422.838 1023.76 422.01C1022.9 421.17 1022.47 419.91 1022.47 418.23V415.17C1022.47 413.526 1022.9 412.278 1023.76 411.426C1024.64 410.574 1025.81 410.148 1027.27 410.148C1028.75 410.148 1029.92 410.574 1030.78 411.426C1031.66 412.278 1032.1 413.526 1032.1 415.17V418.23C1032.1 419.91 1031.66 421.17 1030.78 422.01C1029.92 422.838 1028.75 423.252 1027.27 423.252ZM1027.27 421.56C1028.27 421.56 1029.01 421.278 1029.49 420.714C1029.97 420.138 1030.21 419.334 1030.21 418.302V415.062C1030.21 414.03 1029.95 413.238 1029.43 412.686C1028.92 412.122 1028.2 411.84 1027.27 411.84C1026.34 411.84 1025.62 412.128 1025.11 412.704C1024.61 413.268 1024.36 414.054 1024.36 415.062V418.302C1024.36 419.358 1024.6 420.168 1025.08 420.732C1025.57 421.284 1026.3 421.56 1027.27 421.56ZM1038.88 423.252C1037.41 423.252 1036.24 422.838 1035.37 422.01C1034.5 421.17 1034.07 419.91 1034.07 418.23V415.17C1034.07 413.526 1034.5 412.278 1035.37 411.426C1036.24 410.574 1037.41 410.148 1038.88 410.148C1040.35 410.148 1041.52 410.574 1042.39 411.426C1043.26 412.278 1043.7 413.526 1043.7 415.17V418.23C1043.7 419.91 1043.26 421.17 1042.39 422.01C1041.52 422.838 1040.35 423.252 1038.88 423.252ZM1038.88 421.56C1039.87 421.56 1040.61 421.278 1041.09 420.714C1041.57 420.138 1041.81 419.334 1041.81 418.302V415.062C1041.81 414.03 1041.55 413.238 1041.04 412.686C1040.52 412.122 1039.8 411.84 1038.88 411.84C1037.94 411.84 1037.22 412.128 1036.72 412.704C1036.21 413.268 1035.96 414.054 1035.96 415.062V418.302C1035.96 419.358 1036.2 420.168 1036.68 420.732C1037.17 421.284 1037.9 421.56 1038.88 421.56ZM1050.48 423.252C1049.01 423.252 1047.84 422.838 1046.97 422.01C1046.1 421.17 1045.67 419.91 1045.67 418.23V415.17C1045.67 413.526 1046.1 412.278 1046.97 411.426C1047.84 410.574 1049.01 410.148 1050.48 410.148C1051.95 410.148 1053.12 410.574 1053.99 411.426C1054.86 412.278 1055.3 413.526 1055.3 415.17V418.23C1055.3 419.91 1054.86 421.17 1053.99 422.01C1053.12 422.838 1051.95 423.252 1050.48 423.252ZM1050.48 421.56C1051.47 421.56 1052.21 421.278 1052.69 420.714C1053.17 420.138 1053.41 419.334 1053.41 418.302V415.062C1053.41 414.03 1053.15 413.238 1052.64 412.686C1052.12 412.122 1051.4 411.84 1050.48 411.84C1049.54 411.84 1048.82 412.128 1048.32 412.704C1047.81 413.268 1047.56 414.054 1047.56 415.062V418.302C1047.56 419.358 1047.8 420.168 1048.28 420.732C1048.77 421.284 1049.51 421.56 1050.48 421.56ZM1062.08 423.252C1060.62 423.252 1059.45 422.838 1058.57 422.01C1057.71 421.17 1057.27 419.91 1057.27 418.23V415.17C1057.27 413.526 1057.71 412.278 1058.57 411.426C1059.45 410.574 1060.62 410.148 1062.08 410.148C1063.56 410.148 1064.73 410.574 1065.59 411.426C1066.47 412.278 1066.9 413.526 1066.9 415.17V418.23C1066.9 419.91 1066.47 421.17 1065.59 422.01C1064.73 422.838 1063.56 423.252 1062.08 423.252ZM1062.08 421.56C1063.08 421.56 1063.81 421.278 1064.29 420.714C1064.77 420.138 1065.01 419.334 1065.01 418.302V415.062C1065.01 414.03 1064.76 413.238 1064.24 412.686C1063.72 412.122 1063 411.84 1062.08 411.84C1061.14 411.84 1060.42 412.128 1059.92 412.704C1059.42 413.268 1059.16 414.054 1059.16 415.062V418.302C1059.16 419.358 1059.4 420.168 1059.88 420.732C1060.38 421.284 1061.11 421.56 1062.08 421.56Z" fill="#21092F"/>
</g>
</g>
<g clip-path="url(#clip4_0_224)">
<path d="M832.876 477V468.6H838.168V469.776H834.172V472.188H837.832V473.364H834.172V475.824H838.228V477H832.876ZM841.027 477L843.607 472.764L841.063 468.6H842.551L844.447 471.84H844.639L846.547 468.6H848.035L845.491 472.764L848.071 477H846.571L844.639 473.688H844.447L842.515 477H841.027ZM851.267 477V468.6H854.603C855.115 468.6 855.571 468.704 855.971 468.912C856.379 469.112 856.695 469.4 856.919 469.776C857.151 470.144 857.267 470.588 857.267 471.108V471.264C857.267 471.784 857.147 472.232 856.907 472.608C856.675 472.984 856.359 473.272 855.959 473.472C855.559 473.672 855.107 473.772 854.603 473.772H852.563V477H851.267ZM852.563 472.596H854.471C854.927 472.596 855.291 472.476 855.563 472.236C855.835 471.996 855.971 471.668 855.971 471.252V471.132C855.971 470.708 855.835 470.376 855.563 470.136C855.291 469.896 854.927 469.776 854.471 469.776H852.563V472.596ZM860.035 477.168C859.755 477.168 859.519 477.076 859.327 476.892C859.143 476.708 859.051 476.472 859.051 476.184C859.051 475.896 859.143 475.664 859.327 475.488C859.519 475.304 859.755 475.212 860.035 475.212C860.315 475.212 860.547 475.304 860.731 475.488C860.923 475.672 861.019 475.904 861.019 476.184C861.019 476.472 860.923 476.708 860.731 476.892C860.547 477.076 860.315 477.168 860.035 477.168ZM868.943 477V475.848H870.071V469.752H868.943V468.6H872.303C873.423 468.6 874.279 468.884 874.871 469.452C875.471 470.02 875.771 470.876 875.771 472.02V473.592C875.771 474.736 875.471 475.592 874.871 476.16C874.279 476.72 873.423 477 872.303 477H868.943ZM871.379 475.824H872.315C873.043 475.824 873.583 475.64 873.935 475.272C874.287 474.904 874.463 474.356 874.463 473.628V471.972C874.463 471.236 874.287 470.688 873.935 470.328C873.583 469.968 873.043 469.788 872.315 469.788H871.379V475.824ZM878.518 477L880.918 468.6H883.198L885.586 477H884.254L883.702 475.02H880.414L879.862 477H878.518ZM880.738 473.82H883.378L882.154 469.404H881.962L880.738 473.82ZM889.884 477V469.776H887.304V468.6H893.76V469.776H891.18V477H889.884ZM896.935 477V468.6H902.227V469.776H898.231V472.188H901.891V473.364H898.231V475.824H902.287V477H896.935ZM914.38 479.88C913.548 479.88 912.84 479.736 912.256 479.448C911.672 479.16 911.228 478.708 910.924 478.092C910.628 477.484 910.48 476.7 910.48 475.74V472.14C910.48 471.18 910.628 470.396 910.924 469.788C911.228 469.172 911.672 468.72 912.256 468.432C912.84 468.144 913.548 468 914.38 468V469.056C913.468 469.064 912.788 469.324 912.34 469.836C911.9 470.34 911.68 471.124 911.68 472.188V475.692C911.68 476.756 911.9 477.54 912.34 478.044C912.788 478.556 913.468 478.816 914.38 478.824V479.88ZM917.36 477V468.6H919.796L921.632 476.136H921.824L923.66 468.6H926.096V477H924.836V469.512H924.644L922.82 477H920.636L918.812 469.512H918.62V477H917.36ZM929.849 477V468.6H932.285L934.121 476.136H934.313L936.149 468.6H938.585V477H937.325V469.512H937.133L935.309 477H933.125L931.301 469.512H931.109V477H929.849ZM941.365 479.4L944.893 468.6H946.129L942.601 479.4H941.365ZM951.056 477V473.952L948.14 468.6H949.604L951.62 472.404H951.8L953.816 468.6H955.28L952.364 473.952V477H951.056ZM960.462 477V473.952L957.546 468.6H959.01L961.026 472.404H961.206L963.222 468.6H964.686L961.77 473.952V477H960.462ZM966.856 479.88V478.824C967.784 478.816 968.468 478.556 968.908 478.044C969.348 477.54 969.568 476.756 969.568 475.692V472.188C969.568 471.124 969.348 470.34 968.908 469.836C968.468 469.324 967.784 469.064 966.856 469.056V468C967.696 468 968.404 468.144 968.98 468.432C969.564 468.72 970.004 469.172 970.3 469.788C970.604 470.396 970.756 471.18 970.756 472.14V475.74C970.756 476.7 970.604 477.484 970.3 478.092C970.004 478.708 969.564 479.16 968.98 479.448C968.404 479.736 967.696 479.88 966.856 479.88Z" fill="#21092F"/>
<g clip-path="url(#clip5_0_224)">
<rect x="832.5" y="489.5" width="79" height="44" rx="7.5" fill="white" stroke="#DFDEE0"/>
<path opacity="0.25" d="M849.314 518V505.4H852.968L855.722 516.704H856.01L858.764 505.4H862.418V518H860.528V506.768H860.24L857.504 518H854.228L851.492 506.768H851.204V518H849.314ZM865.046 518V505.4H868.7L871.454 516.704H871.742L874.496 505.4H878.15V518H876.26V506.768H875.972L873.236 518H869.96L867.224 506.768H866.936V518H865.046Z" fill="#21092F"/>
</g>
<g clip-path="url(#clip6_0_224)">
<rect x="922.5" y="489.5" width="79" height="44" rx="7.5" fill="white" stroke="#DFDEE0"/>
<path opacity="0.25" d="M942.572 518V513.428L938.198 505.4H940.394L943.418 511.106H943.688L946.712 505.4H948.908L944.534 513.428V518H942.572ZM953.681 518V513.428L949.307 505.4H951.503L954.527 511.106H954.797L957.821 505.4H960.017L955.643 513.428V518H953.681Z" fill="#21092F"/>
</g>
</g>
<g clip-path="url(#clip7_0_224)">
<path d="M1026 477.168C1024.97 477.168 1024.16 476.88 1023.56 476.304C1022.96 475.72 1022.66 474.88 1022.66 473.784V471.816C1022.66 470.72 1022.96 469.884 1023.56 469.308C1024.16 468.724 1024.97 468.432 1026 468.432C1027 468.432 1027.78 468.712 1028.32 469.272C1028.88 469.832 1029.15 470.596 1029.15 471.564V471.636H1027.87V471.528C1027.87 470.96 1027.71 470.496 1027.4 470.136C1027.1 469.776 1026.63 469.596 1026 469.596C1025.36 469.596 1024.86 469.792 1024.5 470.184C1024.14 470.568 1023.96 471.104 1023.96 471.792V473.808C1023.96 474.488 1024.14 475.024 1024.5 475.416C1024.86 475.808 1025.36 476.004 1026 476.004C1026.63 476.004 1027.1 475.824 1027.4 475.464C1027.71 475.096 1027.87 474.632 1027.87 474.072V473.868H1029.15V474.036C1029.15 475.004 1028.88 475.768 1028.32 476.328C1027.78 476.888 1027 477.168 1026 477.168ZM1034.22 477L1031.88 468.6H1033.22L1035.26 476.184H1035.42L1037.45 468.6H1038.79L1036.46 477H1034.22ZM1044.88 477.168C1043.85 477.168 1043.04 476.88 1042.44 476.304C1041.84 475.72 1041.54 474.88 1041.54 473.784V471.816C1041.54 470.72 1041.84 469.884 1042.44 469.308C1043.04 468.724 1043.85 468.432 1044.88 468.432C1045.89 468.432 1046.66 468.712 1047.21 469.272C1047.76 469.832 1048.03 470.596 1048.03 471.564V471.636H1046.75V471.528C1046.75 470.96 1046.59 470.496 1046.28 470.136C1045.98 469.776 1045.51 469.596 1044.88 469.596C1044.24 469.596 1043.74 469.792 1043.38 470.184C1043.02 470.568 1042.84 471.104 1042.84 471.792V473.808C1042.84 474.488 1043.02 475.024 1043.38 475.416C1043.74 475.808 1044.24 476.004 1044.88 476.004C1045.51 476.004 1045.98 475.824 1046.28 475.464C1046.59 475.096 1046.75 474.632 1046.75 474.072V473.868H1048.03V474.036C1048.03 475.004 1047.76 475.768 1047.21 476.328C1046.66 476.888 1045.89 477.168 1044.88 477.168Z" fill="#21092F"/>
<rect x="1022.5" y="489.5" width="190" height="44" rx="7.5" fill="white" stroke="#DFDEE0"/>
<path opacity="0.25" d="M1043.44 518.252C1042.54 518.252 1041.75 518.066 1041.08 517.694C1040.41 517.31 1039.88 516.776 1039.49 516.092C1039.12 515.396 1038.94 514.592 1038.94 513.68V513.464C1038.94 512.54 1039.12 511.736 1039.49 511.052C1039.87 510.356 1040.38 509.822 1041.04 509.45C1041.71 509.066 1042.49 508.874 1043.36 508.874C1044.22 508.874 1044.96 509.066 1045.6 509.45C1046.24 509.822 1046.75 510.344 1047.11 511.016C1047.47 511.688 1047.65 512.474 1047.65 513.374V514.076H1040.83C1040.85 514.856 1041.11 515.48 1041.6 515.948C1042.1 516.404 1042.73 516.632 1043.47 516.632C1044.17 516.632 1044.69 516.476 1045.04 516.164C1045.4 515.852 1045.67 515.492 1045.87 515.084L1047.4 515.876C1047.23 516.212 1046.98 516.566 1046.66 516.938C1046.35 517.31 1045.93 517.622 1045.42 517.874C1044.9 518.126 1044.24 518.252 1043.44 518.252ZM1040.84 512.654H1045.76C1045.71 511.982 1045.47 511.46 1045.04 511.088C1044.61 510.704 1044.04 510.512 1043.35 510.512C1042.65 510.512 1042.08 510.704 1041.64 511.088C1041.2 511.46 1040.94 511.982 1040.84 512.654ZM1050.87 518.252C1050.45 518.252 1050.1 518.114 1049.81 517.838C1049.53 517.562 1049.4 517.208 1049.4 516.776C1049.4 516.344 1049.53 515.996 1049.81 515.732C1050.1 515.456 1050.45 515.318 1050.87 515.318C1051.29 515.318 1051.64 515.456 1051.92 515.732C1052.2 516.008 1052.35 516.356 1052.35 516.776C1052.35 517.208 1052.2 517.562 1051.92 517.838C1051.64 518.114 1051.29 518.252 1050.87 518.252ZM1054.18 513.608V513.338C1054.18 512.402 1054.36 511.604 1054.73 510.944C1055.12 510.284 1055.62 509.774 1056.25 509.414C1056.87 509.054 1057.55 508.874 1058.3 508.874C1059.16 508.874 1059.82 509.036 1060.28 509.36C1060.75 509.684 1061.09 510.032 1061.3 510.404H1061.59V509.126H1063.39V519.818C1063.39 520.358 1063.23 520.79 1062.91 521.114C1062.59 521.438 1062.16 521.6 1061.61 521.6H1055.63V519.98H1061.03C1061.38 519.98 1061.56 519.8 1061.56 519.44V516.614H1061.27C1061.14 516.83 1060.95 517.052 1060.71 517.28C1060.47 517.508 1060.15 517.694 1059.76 517.838C1059.37 517.982 1058.89 518.054 1058.3 518.054C1057.55 518.054 1056.86 517.88 1056.23 517.532C1055.6 517.172 1055.11 516.662 1054.73 516.002C1054.36 515.33 1054.18 514.532 1054.18 513.608ZM1058.8 516.434C1059.61 516.434 1060.27 516.182 1060.78 515.678C1061.31 515.162 1061.57 514.454 1061.57 513.554V513.392C1061.57 512.468 1061.32 511.76 1060.8 511.268C1060.28 510.764 1059.62 510.512 1058.8 510.512C1058.01 510.512 1057.35 510.764 1056.82 511.268C1056.31 511.76 1056.05 512.468 1056.05 513.392V513.554C1056.05 514.454 1056.31 515.162 1056.82 515.678C1057.35 516.182 1058.01 516.434 1058.8 516.434ZM1067.24 518.252C1066.82 518.252 1066.46 518.114 1066.18 517.838C1065.9 517.562 1065.76 517.208 1065.76 516.776C1065.76 516.344 1065.9 515.996 1066.18 515.732C1066.46 515.456 1066.82 515.318 1067.24 515.318C1067.66 515.318 1068.01 515.456 1068.28 515.732C1068.57 516.008 1068.71 516.356 1068.71 516.776C1068.71 517.208 1068.57 517.562 1068.28 517.838C1068.01 518.114 1067.66 518.252 1067.24 518.252ZM1078.38 518V506.732H1078.09L1076.02 510.98H1074.02L1076.81 505.4H1080.27V518H1078.38ZM1082.44 518V516.578C1082.44 515.702 1082.59 514.982 1082.89 514.418C1083.19 513.854 1083.62 513.398 1084.17 513.05C1084.73 512.69 1085.41 512.39 1086.2 512.15L1087.3 511.808C1087.79 511.652 1088.21 511.46 1088.56 511.232C1088.92 511.004 1089.2 510.722 1089.39 510.386C1089.58 510.038 1089.68 509.636 1089.68 509.18V509.108C1089.68 508.4 1089.44 507.848 1088.96 507.452C1088.48 507.044 1087.85 506.84 1087.07 506.84C1086.26 506.84 1085.61 507.056 1085.1 507.488C1084.61 507.92 1084.37 508.556 1084.37 509.396V509.684H1082.49V509.414C1082.49 508.502 1082.69 507.734 1083.09 507.11C1083.48 506.474 1084.03 505.988 1084.73 505.652C1085.42 505.316 1086.2 505.148 1087.07 505.148C1087.93 505.148 1088.7 505.31 1089.37 505.634C1090.05 505.958 1090.59 506.414 1090.97 507.002C1091.37 507.59 1091.57 508.28 1091.57 509.072V509.234C1091.57 510.05 1091.4 510.728 1091.08 511.268C1090.76 511.808 1090.31 512.252 1089.73 512.6C1089.17 512.948 1088.51 513.242 1087.77 513.482L1086.71 513.806C1086.14 513.974 1085.69 514.16 1085.34 514.364C1085 514.556 1084.75 514.79 1084.58 515.066C1084.43 515.342 1084.35 515.696 1084.35 516.128V516.308H1091.46V518H1082.44ZM1097.77 518.252C1096.85 518.252 1096.02 518.084 1095.3 517.748C1094.58 517.412 1094.02 516.926 1093.61 516.29C1093.22 515.654 1093.02 514.898 1093.02 514.022V513.698H1094.91V513.986C1094.91 514.778 1095.17 515.408 1095.68 515.876C1096.21 516.332 1096.91 516.56 1097.77 516.56C1098.63 516.56 1099.31 516.344 1099.79 515.912C1100.27 515.48 1100.51 514.934 1100.51 514.274V514.112C1100.51 513.644 1100.39 513.266 1100.16 512.978C1099.94 512.69 1099.63 512.48 1099.25 512.348C1098.86 512.204 1098.43 512.132 1097.95 512.132H1095.66V509.954L1100.09 507.344V507.092H1093.32V505.4H1102.14V507.956L1097.91 510.476V510.728H1098.69C1099.32 510.728 1099.92 510.848 1100.49 511.088C1101.05 511.328 1101.51 511.694 1101.86 512.186C1102.22 512.678 1102.4 513.302 1102.4 514.058V514.274C1102.4 515.078 1102.2 515.78 1101.82 516.38C1101.44 516.968 1100.9 517.43 1100.2 517.766C1099.5 518.09 1098.69 518.252 1097.77 518.252Z" fill="#21092F"/>
</g>
<g clip-path="url(#clip8_0_224)">
<rect x="832" y="574" width="381" height="53" rx="8" fill="#21092F"/>
<path d="M994.994 607.252C993.458 607.252 992.24 606.82 991.34 605.956C990.44 605.08 989.99 603.82 989.99 602.176V599.224C989.99 597.58 990.44 596.326 991.34 595.462C992.24 594.586 993.458 594.148 994.994 594.148C996.506 594.148 997.67 594.568 998.486 595.408C999.314 596.248 999.728 597.394 999.728 598.846V598.954H997.802V598.792C997.802 597.94 997.568 597.244 997.1 596.704C996.644 596.164 995.942 595.894 994.994 595.894C994.034 595.894 993.284 596.188 992.744 596.776C992.204 597.352 991.934 598.156 991.934 599.188V602.212C991.934 603.232 992.204 604.036 992.744 604.624C993.284 605.212 994.034 605.506 994.994 605.506C995.942 605.506 996.644 605.236 997.1 604.696C997.568 604.144 997.802 603.448 997.802 602.608V602.302H999.728V602.554C999.728 604.006 999.314 605.152 998.486 605.992C997.67 606.832 996.506 607.252 994.994 607.252ZM1006.09 607.252C1005.2 607.252 1004.41 607.072 1003.72 606.712C1003.03 606.34 1002.49 605.812 1002.1 605.128C1001.7 604.444 1001.5 603.634 1001.5 602.698V602.428C1001.5 601.492 1001.7 600.688 1002.1 600.016C1002.49 599.332 1003.03 598.804 1003.72 598.432C1004.41 598.06 1005.2 597.874 1006.09 597.874C1006.98 597.874 1007.77 598.06 1008.47 598.432C1009.16 598.804 1009.71 599.332 1010.11 600.016C1010.5 600.688 1010.7 601.492 1010.7 602.428V602.698C1010.7 603.634 1010.5 604.444 1010.11 605.128C1009.71 605.812 1009.16 606.34 1008.47 606.712C1007.77 607.072 1006.98 607.252 1006.09 607.252ZM1006.09 605.596C1006.91 605.596 1007.57 605.338 1008.07 604.822C1008.59 604.294 1008.85 603.568 1008.85 602.644V602.482C1008.85 601.558 1008.59 600.838 1008.09 600.322C1007.59 599.794 1006.92 599.53 1006.09 599.53C1005.29 599.53 1004.63 599.794 1004.11 600.322C1003.61 600.838 1003.36 601.558 1003.36 602.482V602.644C1003.36 603.568 1003.61 604.294 1004.11 604.822C1004.63 605.338 1005.29 605.596 1006.09 605.596ZM1013.01 607V598.126H1014.83V599.458H1015.11C1015.28 599.098 1015.58 598.762 1016.01 598.45C1016.45 598.138 1017.09 597.982 1017.94 597.982C1018.61 597.982 1019.21 598.132 1019.72 598.432C1020.25 598.732 1020.66 599.158 1020.96 599.71C1021.26 600.25 1021.41 600.904 1021.41 601.672V607H1019.56V601.816C1019.56 601.048 1019.37 600.484 1018.98 600.124C1018.6 599.752 1018.07 599.566 1017.4 599.566C1016.63 599.566 1016.01 599.818 1015.55 600.322C1015.09 600.826 1014.86 601.558 1014.86 602.518V607H1013.01ZM1025.44 607V599.692H1022.95V598.126H1025.44V596.182C1025.44 595.642 1025.6 595.21 1025.92 594.886C1026.25 594.562 1026.68 594.4 1027.22 594.4H1029.51V595.966H1027.81C1027.47 595.966 1027.29 596.146 1027.29 596.506V598.126H1029.85V599.692H1027.29V607H1025.44ZM1031.27 607V598.126H1033.13V607H1031.27ZM1032.21 596.92C1031.85 596.92 1031.54 596.806 1031.29 596.578C1031.05 596.338 1030.93 596.032 1030.93 595.66C1030.93 595.288 1031.05 594.988 1031.29 594.76C1031.54 594.52 1031.85 594.4 1032.21 594.4C1032.58 594.4 1032.89 594.52 1033.13 594.76C1033.37 594.988 1033.49 595.288 1033.49 595.66C1033.49 596.032 1033.37 596.338 1033.13 596.578C1032.89 596.806 1032.58 596.92 1032.21 596.92ZM1035.88 607V598.126H1037.7V599.17H1037.98C1038.13 598.798 1038.36 598.528 1038.67 598.36C1038.99 598.18 1039.39 598.09 1039.86 598.09H1040.92V599.764H1039.78C1039.18 599.764 1038.69 599.932 1038.31 600.268C1037.92 600.592 1037.73 601.096 1037.73 601.78V607H1035.88ZM1042.84 607V598.126H1044.66V599.17H1044.94C1045.11 598.858 1045.38 598.582 1045.75 598.342C1046.13 598.102 1046.63 597.982 1047.27 597.982C1047.93 597.982 1048.45 598.12 1048.85 598.396C1049.26 598.66 1049.56 599.002 1049.77 599.422H1050.06C1050.26 599.014 1050.55 598.672 1050.94 598.396C1051.33 598.12 1051.89 597.982 1052.61 597.982C1053.19 597.982 1053.7 598.102 1054.14 598.342C1054.59 598.57 1054.94 598.918 1055.2 599.386C1055.47 599.842 1055.6 600.412 1055.6 601.096V607H1053.75V601.24C1053.75 600.7 1053.6 600.286 1053.3 599.998C1053.01 599.698 1052.59 599.548 1052.05 599.548C1051.48 599.548 1051.02 599.734 1050.67 600.106C1050.32 600.478 1050.15 601.012 1050.15 601.708V607H1048.29V601.24C1048.29 600.7 1048.14 600.286 1047.84 599.998C1047.55 599.698 1047.14 599.548 1046.6 599.548C1046.02 599.548 1045.56 599.734 1045.21 600.106C1044.87 600.478 1044.69 601.012 1044.69 601.708V607H1042.84Z" fill="white"/>
</g>
<g filter="url(#filter3_d_0_224)">
<rect x="258" y="469" width="447" height="245" rx="10" fill="url(#paint0_linear_0_224)"/>
<rect x="258" y="492" width="447" height="54" fill="#2F2F2F"/>
<g clip-path="url(#clip9_0_224)">
<rect x="303" y="570" width="361" height="38" rx="4" fill="#ADB5BE"/>
<path d="M621.438 594.196C620.299 594.196 619.389 593.874 618.708 593.23C618.036 592.577 617.7 591.597 617.7 590.29V587.91C617.7 586.631 618.036 585.661 618.708 584.998C619.389 584.335 620.299 584.004 621.438 584.004C622.586 584.004 623.496 584.335 624.168 584.998C624.849 585.661 625.19 586.631 625.19 587.91V590.29C625.19 591.597 624.849 592.577 624.168 593.23C623.496 593.874 622.586 594.196 621.438 594.196ZM621.438 592.88C622.212 592.88 622.786 592.661 623.16 592.222C623.533 591.774 623.72 591.149 623.72 590.346V587.826C623.72 587.023 623.519 586.407 623.118 585.978C622.716 585.539 622.156 585.32 621.438 585.32C620.71 585.32 620.15 585.544 619.758 585.992C619.366 586.431 619.17 587.042 619.17 587.826V590.346C619.17 591.167 619.356 591.797 619.73 592.236C620.112 592.665 620.682 592.88 621.438 592.88ZM632.461 594.196C631.322 594.196 630.412 593.874 629.731 593.23C629.059 592.577 628.723 591.597 628.723 590.29V587.91C628.723 586.631 629.059 585.661 629.731 584.998C630.412 584.335 631.322 584.004 632.461 584.004C633.609 584.004 634.519 584.335 635.191 584.998C635.872 585.661 636.213 586.631 636.213 587.91V590.29C636.213 591.597 635.872 592.577 635.191 593.23C634.519 593.874 633.609 594.196 632.461 594.196ZM632.461 592.88C633.236 592.88 633.81 592.661 634.183 592.222C634.556 591.774 634.743 591.149 634.743 590.346V587.826C634.743 587.023 634.542 586.407 634.141 585.978C633.74 585.539 633.18 585.32 632.461 585.32C631.733 585.32 631.173 585.544 630.781 585.992C630.389 586.431 630.193 587.042 630.193 587.826V590.346C630.193 591.167 630.38 591.797 630.753 592.236C631.136 592.665 631.705 592.88 632.461 592.88ZM643.485 594.196C642.346 594.196 641.436 593.874 640.755 593.23C640.083 592.577 639.747 591.597 639.747 590.29V587.91C639.747 586.631 640.083 585.661 640.755 584.998C641.436 584.335 642.346 584.004 643.485 584.004C644.633 584.004 645.543 584.335 646.215 584.998C646.896 585.661 647.237 586.631 647.237 587.91V590.29C647.237 591.597 646.896 592.577 646.215 593.23C645.543 593.874 644.633 594.196 643.485 594.196ZM643.485 592.88C644.259 592.88 644.833 592.661 645.207 592.222C645.58 591.774 645.767 591.149 645.767 590.346V587.826C645.767 587.023 645.566 586.407 645.165 585.978C644.763 585.539 644.203 585.32 643.485 585.32C642.757 585.32 642.197 585.544 641.805 585.992C641.413 586.431 641.217 587.042 641.217 587.826V590.346C641.217 591.167 641.403 591.797 641.777 592.236C642.159 592.665 642.729 592.88 643.485 592.88Z" fill="white"/>
</g>
<g clip-path="url(#clip10_0_224)">
<rect x="164" y="187" width="447" height="245" rx="10" fill="url(#paint1_linear_0_224)"/>
<mask id="mask1_0_224" style="mask-type:luminance" maskUnits="userSpaceOnUse" x="164" y="187" width="447" height="245">
<rect x="164" y="187" width="447" height="245" rx="10" fill="white"/>
</mask>
<g mask="url(#mask1_0_224)">
<g opacity="0.847405" filter="url(#filter4_f_0_224)">
<ellipse cx="436.655" cy="248.655" rx="65.5" ry="181.5" transform="rotate(45 436.655 248.655)" fill="#D53AFF"/>
</g>
<g opacity="0.847405" filter="url(#filter5_f_0_224)">
<ellipse cx="535.655" cy="243.655" rx="65.5" ry="181.5" transform="rotate(45 535.655 243.655)" fill="#FF834A"/>
</g>
<g opacity="0.847405" filter="url(#filter6_f_0_224)">
<ellipse cx="404.655" cy="400.655" rx="65.5" ry="181.5" transform="rotate(45 404.655 400.655)" fill="#47A2FF"/>
</g>
</g>
<path d="M205.016 354.392C202.739 354.392 200.919 353.748 199.556 352.46C198.212 351.153 197.54 349.193 197.54 346.58V341.82C197.54 339.263 198.212 337.321 199.556 335.996C200.919 334.671 202.739 334.008 205.016 334.008C207.312 334.008 209.132 334.671 210.476 335.996C211.839 337.321 212.52 339.263 212.52 341.82V346.58C212.52 349.193 211.839 351.153 210.476 352.46C209.132 353.748 207.312 354.392 205.016 354.392ZM205.016 351.76C206.565 351.76 207.713 351.321 208.46 350.444C209.207 349.548 209.58 348.297 209.58 346.692V341.652C209.58 340.047 209.179 338.815 208.376 337.956C207.573 337.079 206.453 336.64 205.016 336.64C203.56 336.64 202.44 337.088 201.656 337.984C200.872 338.861 200.48 340.084 200.48 341.652V346.692C200.48 348.335 200.853 349.595 201.6 350.472C202.365 351.331 203.504 351.76 205.016 351.76ZM226.485 354.392C224.208 354.392 222.388 353.748 221.025 352.46C219.681 351.153 219.009 349.193 219.009 346.58V341.82C219.009 339.263 219.681 337.321 221.025 335.996C222.388 334.671 224.208 334.008 226.485 334.008C228.781 334.008 230.601 334.671 231.945 335.996C233.308 337.321 233.989 339.263 233.989 341.82V346.58C233.989 349.193 233.308 351.153 231.945 352.46C230.601 353.748 228.781 354.392 226.485 354.392ZM226.485 351.76C228.034 351.76 229.182 351.321 229.929 350.444C230.676 349.548 231.049 348.297 231.049 346.692V341.652C231.049 340.047 230.648 338.815 229.845 337.956C229.042 337.079 227.922 336.64 226.485 336.64C225.029 336.64 223.909 337.088 223.125 337.984C222.341 338.861 221.949 340.084 221.949 341.652V346.692C221.949 348.335 222.322 349.595 223.069 350.472C223.834 351.331 224.973 351.76 226.485 351.76ZM247.954 354.392C245.677 354.392 243.857 353.748 242.494 352.46C241.15 351.153 240.478 349.193 240.478 346.58V341.82C240.478 339.263 241.15 337.321 242.494 335.996C243.857 334.671 245.677 334.008 247.954 334.008C250.25 334.008 252.07 334.671 253.414 335.996C254.777 337.321 255.458 339.263 255.458 341.82V346.58C255.458 349.193 254.777 351.153 253.414 352.46C252.07 353.748 250.25 354.392 247.954 354.392ZM247.954 351.76C249.504 351.76 250.652 351.321 251.398 350.444C252.145 349.548 252.518 348.297 252.518 346.692V341.652C252.518 340.047 252.117 338.815 251.314 337.956C250.512 337.079 249.392 336.64 247.954 336.64C246.498 336.64 245.378 337.088 244.594 337.984C243.81 338.861 243.418 340.084 243.418 341.652V346.692C243.418 348.335 243.792 349.595 244.538 350.472C245.304 351.331 246.442 351.76 247.954 351.76ZM269.423 354.392C267.146 354.392 265.326 353.748 263.963 352.46C262.619 351.153 261.947 349.193 261.947 346.58V341.82C261.947 339.263 262.619 337.321 263.963 335.996C265.326 334.671 267.146 334.008 269.423 334.008C271.719 334.008 273.539 334.671 274.883 335.996C276.246 337.321 276.927 339.263 276.927 341.82V346.58C276.927 349.193 276.246 351.153 274.883 352.46C273.539 353.748 271.719 354.392 269.423 354.392ZM269.423 351.76C270.973 351.76 272.121 351.321 272.867 350.444C273.614 349.548 273.987 348.297 273.987 346.692V341.652C273.987 340.047 273.586 338.815 272.783 337.956C271.981 337.079 270.861 336.64 269.423 336.64C267.967 336.64 266.847 337.088 266.063 337.984C265.279 338.861 264.887 340.084 264.887 341.652V346.692C264.887 348.335 265.261 349.595 266.007 350.472C266.773 351.331 267.911 351.76 269.423 351.76ZM301.451 354.392C299.174 354.392 297.354 353.748 295.991 352.46C294.647 351.153 293.975 349.193 293.975 346.58V341.82C293.975 339.263 294.647 337.321 295.991 335.996C297.354 334.671 299.174 334.008 301.451 334.008C303.747 334.008 305.567 334.671 306.911 335.996C308.274 337.321 308.955 339.263 308.955 341.82V346.58C308.955 349.193 308.274 351.153 306.911 352.46C305.567 353.748 303.747 354.392 301.451 354.392ZM301.451 351.76C303.001 351.76 304.149 351.321 304.895 350.444C305.642 349.548 306.015 348.297 306.015 346.692V341.652C306.015 340.047 305.614 338.815 304.811 337.956C304.009 337.079 302.889 336.64 301.451 336.64C299.995 336.64 298.875 337.088 298.091 337.984C297.307 338.861 296.915 340.084 296.915 341.652V346.692C296.915 348.335 297.289 349.595 298.035 350.472C298.801 351.331 299.939 351.76 301.451 351.76ZM322.92 354.392C320.643 354.392 318.823 353.748 317.46 352.46C316.116 351.153 315.444 349.193 315.444 346.58V341.82C315.444 339.263 316.116 337.321 317.46 335.996C318.823 334.671 320.643 334.008 322.92 334.008C325.216 334.008 327.036 334.671 328.38 335.996C329.743 337.321 330.424 339.263 330.424 341.82V346.58C330.424 349.193 329.743 351.153 328.38 352.46C327.036 353.748 325.216 354.392 322.92 354.392ZM322.92 351.76C324.47 351.76 325.618 351.321 326.364 350.444C327.111 349.548 327.484 348.297 327.484 346.692V341.652C327.484 340.047 327.083 338.815 326.28 337.956C325.478 337.079 324.358 336.64 322.92 336.64C321.464 336.64 320.344 337.088 319.56 337.984C318.776 338.861 318.384 340.084 318.384 341.652V346.692C318.384 348.335 318.758 349.595 319.504 350.472C320.27 351.331 321.408 351.76 322.92 351.76ZM344.39 354.392C342.112 354.392 340.292 353.748 338.93 352.46C337.586 351.153 336.914 349.193 336.914 346.58V341.82C336.914 339.263 337.586 337.321 338.93 335.996C340.292 334.671 342.112 334.008 344.39 334.008C346.686 334.008 348.506 334.671 349.85 335.996C351.212 337.321 351.894 339.263 351.894 341.82V346.58C351.894 349.193 351.212 351.153 349.85 352.46C348.506 353.748 346.686 354.392 344.39 354.392ZM344.39 351.76C345.939 351.76 347.087 351.321 347.834 350.444C348.58 349.548 348.954 348.297 348.954 346.692V341.652C348.954 340.047 348.552 338.815 347.75 337.956C346.947 337.079 345.827 336.64 344.39 336.64C342.934 336.64 341.814 337.088 341.03 337.984C340.246 338.861 339.854 340.084 339.854 341.652V346.692C339.854 348.335 340.227 349.595 340.974 350.472C341.739 351.331 342.878 351.76 344.39 351.76ZM365.859 354.392C363.581 354.392 361.761 353.748 360.399 352.46C359.055 351.153 358.383 349.193 358.383 346.58V341.82C358.383 339.263 359.055 337.321 360.399 335.996C361.761 334.671 363.581 334.008 365.859 334.008C368.155 334.008 369.975 334.671 371.319 335.996C372.681 337.321 373.363 339.263 373.363 341.82V346.58C373.363 349.193 372.681 351.153 371.319 352.46C369.975 353.748 368.155 354.392 365.859 354.392ZM365.859 351.76C367.408 351.76 368.556 351.321 369.303 350.444C370.049 349.548 370.423 348.297 370.423 346.692V341.652C370.423 340.047 370.021 338.815 369.219 337.956C368.416 337.079 367.296 336.64 365.859 336.64C364.403 336.64 363.283 337.088 362.499 337.984C361.715 338.861 361.323 340.084 361.323 341.652V346.692C361.323 348.335 361.696 349.595 362.443 350.472C363.208 351.331 364.347 351.76 365.859 351.76ZM397.887 354.392C395.609 354.392 393.789 353.748 392.427 352.46C391.083 351.153 390.411 349.193 390.411 346.58V341.82C390.411 339.263 391.083 337.321 392.427 335.996C393.789 334.671 395.609 334.008 397.887 334.008C400.183 334.008 402.003 334.671 403.347 335.996C404.709 337.321 405.391 339.263 405.391 341.82V346.58C405.391 349.193 404.709 351.153 403.347 352.46C402.003 353.748 400.183 354.392 397.887 354.392ZM397.887 351.76C399.436 351.76 400.584 351.321 401.331 350.444C402.077 349.548 402.451 348.297 402.451 346.692V341.652C402.451 340.047 402.049 338.815 401.247 337.956C400.444 337.079 399.324 336.64 397.887 336.64C396.431 336.64 395.311 337.088 394.527 337.984C393.743 338.861 393.351 340.084 393.351 341.652V346.692C393.351 348.335 393.724 349.595 394.471 350.472C395.236 351.331 396.375 351.76 397.887 351.76ZM419.356 354.392C417.078 354.392 415.258 353.748 413.896 352.46C412.552 351.153 411.88 349.193 411.88 346.58V341.82C411.88 339.263 412.552 337.321 413.896 335.996C415.258 334.671 417.078 334.008 419.356 334.008C421.652 334.008 423.472 334.671 424.816 335.996C426.178 337.321 426.86 339.263 426.86 341.82V346.58C426.86 349.193 426.178 351.153 424.816 352.46C423.472 353.748 421.652 354.392 419.356 354.392ZM419.356 351.76C420.905 351.76 422.053 351.321 422.8 350.444C423.546 349.548 423.92 348.297 423.92 346.692V341.652C423.92 340.047 423.518 338.815 422.716 337.956C421.913 337.079 420.793 336.64 419.356 336.64C417.9 336.64 416.78 337.088 415.996 337.984C415.212 338.861 414.82 340.084 414.82 341.652V346.692C414.82 348.335 415.193 349.595 415.94 350.472C416.705 351.331 417.844 351.76 419.356 351.76ZM440.825 354.392C438.548 354.392 436.728 353.748 435.365 352.46C434.021 351.153 433.349 349.193 433.349 346.58V341.82C433.349 339.263 434.021 337.321 435.365 335.996C436.728 334.671 438.548 334.008 440.825 334.008C443.121 334.008 444.941 334.671 446.285 335.996C447.648 337.321 448.329 339.263 448.329 341.82V346.58C448.329 349.193 447.648 351.153 446.285 352.46C444.941 353.748 443.121 354.392 440.825 354.392ZM440.825 351.76C442.374 351.76 443.522 351.321 444.269 350.444C445.016 349.548 445.389 348.297 445.389 346.692V341.652C445.389 340.047 444.988 338.815 444.185 337.956C443.382 337.079 442.262 336.64 440.825 336.64C439.369 336.64 438.249 337.088 437.465 337.984C436.681 338.861 436.289 340.084 436.289 341.652V346.692C436.289 348.335 436.662 349.595 437.409 350.472C438.174 351.331 439.313 351.76 440.825 351.76ZM462.294 354.392C460.017 354.392 458.197 353.748 456.834 352.46C455.49 351.153 454.818 349.193 454.818 346.58V341.82C454.818 339.263 455.49 337.321 456.834 335.996C458.197 334.671 460.017 334.008 462.294 334.008C464.59 334.008 466.41 334.671 467.754 335.996C469.117 337.321 469.798 339.263 469.798 341.82V346.58C469.798 349.193 469.117 351.153 467.754 352.46C466.41 353.748 464.59 354.392 462.294 354.392ZM462.294 351.76C463.843 351.76 464.991 351.321 465.738 350.444C466.485 349.548 466.858 348.297 466.858 346.692V341.652C466.858 340.047 466.457 338.815 465.654 337.956C464.851 337.079 463.731 336.64 462.294 336.64C460.838 336.64 459.718 337.088 458.934 337.984C458.15 338.861 457.758 340.084 457.758 341.652V346.692C457.758 348.335 458.131 349.595 458.878 350.472C459.643 351.331 460.782 351.76 462.294 351.76ZM494.322 354.392C492.045 354.392 490.225 353.748 488.862 352.46C487.518 351.153 486.846 349.193 486.846 346.58V341.82C486.846 339.263 487.518 337.321 488.862 335.996C490.225 334.671 492.045 334.008 494.322 334.008C496.618 334.008 498.438 334.671 499.782 335.996C501.145 337.321 501.826 339.263 501.826 341.82V346.58C501.826 349.193 501.145 351.153 499.782 352.46C498.438 353.748 496.618 354.392 494.322 354.392ZM494.322 351.76C495.871 351.76 497.019 351.321 497.766 350.444C498.513 349.548 498.886 348.297 498.886 346.692V341.652C498.886 340.047 498.485 338.815 497.682 337.956C496.879 337.079 495.759 336.64 494.322 336.64C492.866 336.64 491.746 337.088 490.962 337.984C490.178 338.861 489.786 340.084 489.786 341.652V346.692C489.786 348.335 490.159 349.595 490.906 350.472C491.671 351.331 492.81 351.76 494.322 351.76ZM515.791 354.392C513.514 354.392 511.694 353.748 510.331 352.46C508.987 351.153 508.315 349.193 508.315 346.58V341.82C508.315 339.263 508.987 337.321 510.331 335.996C511.694 334.671 513.514 334.008 515.791 334.008C518.087 334.008 519.907 334.671 521.251 335.996C522.614 337.321 523.295 339.263 523.295 341.82V346.58C523.295 349.193 522.614 351.153 521.251 352.46C519.907 353.748 518.087 354.392 515.791 354.392ZM515.791 351.76C517.34 351.76 518.488 351.321 519.235 350.444C519.982 349.548 520.355 348.297 520.355 346.692V341.652C520.355 340.047 519.954 338.815 519.151 337.956C518.348 337.079 517.228 336.64 515.791 336.64C514.335 336.64 513.215 337.088 512.431 337.984C511.647 338.861 511.255 340.084 511.255 341.652V346.692C511.255 348.335 511.628 349.595 512.375 350.472C513.14 351.331 514.279 351.76 515.791 351.76ZM537.26 354.392C534.983 354.392 533.163 353.748 531.8 352.46C530.456 351.153 529.784 349.193 529.784 346.58V341.82C529.784 339.263 530.456 337.321 531.8 335.996C533.163 334.671 534.983 334.008 537.26 334.008C539.556 334.008 541.376 334.671 542.72 335.996C544.083 337.321 544.764 339.263 544.764 341.82V346.58C544.764 349.193 544.083 351.153 542.72 352.46C541.376 353.748 539.556 354.392 537.26 354.392ZM537.26 351.76C538.81 351.76 539.958 351.321 540.704 350.444C541.451 349.548 541.824 348.297 541.824 346.692V341.652C541.824 340.047 541.423 338.815 540.62 337.956C539.818 337.079 538.698 336.64 537.26 336.64C535.804 336.64 534.684 337.088 533.9 337.984C533.116 338.861 532.724 340.084 532.724 341.652V346.692C532.724 348.335 533.098 349.595 533.844 350.472C534.61 351.331 535.748 351.76 537.26 351.76ZM558.729 354.392C556.452 354.392 554.632 353.748 553.269 352.46C551.925 351.153 551.253 349.193 551.253 346.58V341.82C551.253 339.263 551.925 337.321 553.269 335.996C554.632 334.671 556.452 334.008 558.729 334.008C561.025 334.008 562.845 334.671 564.189 335.996C565.552 337.321 566.233 339.263 566.233 341.82V346.58C566.233 349.193 565.552 351.153 564.189 352.46C562.845 353.748 561.025 354.392 558.729 354.392ZM558.729 351.76C560.279 351.76 561.427 351.321 562.173 350.444C562.92 349.548 563.293 348.297 563.293 346.692V341.652C563.293 340.047 562.892 338.815 562.089 337.956C561.287 337.079 560.167 336.64 558.729 336.64C557.273 336.64 556.153 337.088 555.369 337.984C554.585 338.861 554.193 340.084 554.193 341.652V346.692C554.193 348.335 554.567 349.595 555.313 350.472C556.079 351.331 557.217 351.76 558.729 351.76Z" fill="white"/>
<ellipse cx="219.478" cy="238.5" rx="23.4783" ry="23.5" fill="white"/>
<path d="M279.5 238.5C279.5 244.065 274.993 248.575 269.435 248.575C263.876 248.575 259.37 244.065 259.37 238.5C259.37 232.935 263.876 228.425 269.435 228.425C274.993 228.425 279.5 232.935 279.5 238.5Z" stroke="white"/>
<g clip-path="url(#clip11_0_224)">
<path d="M199.71 401.696C198.73 401.696 197.951 401.425 197.372 400.884C196.793 400.333 196.504 399.559 196.504 398.56V397.72H198.016V398.56C198.016 399.083 198.156 399.503 198.436 399.82C198.725 400.128 199.141 400.282 199.682 400.282C200.205 400.282 200.592 400.128 200.844 399.82C201.096 399.512 201.222 399.092 201.222 398.56V393.072H199.514V391.7H203.826V393.072H202.734V398.56C202.734 399.577 202.468 400.357 201.936 400.898C201.413 401.43 200.671 401.696 199.71 401.696ZM206.224 401.5L209.024 391.7H211.684L214.47 401.5H212.916L212.272 399.19H208.436L207.792 401.5H206.224ZM208.814 397.79H211.894L210.466 392.638H210.242L208.814 397.79ZM217.797 401.5V391.7H220.709L223.369 400.492H223.593V391.7H225.091V401.5H222.179L219.519 392.694H219.295V401.5H217.797ZM229.135 401.5V391.7H235.309V393.072H230.647V395.886H234.917V397.258H230.647V400.128H235.379V401.5H229.135ZM243.618 401.5L246.418 391.7H249.078L251.864 401.5H250.31L249.666 399.19H245.83L245.186 401.5H243.618ZM246.208 397.79H249.288L247.86 392.638H247.636L246.208 397.79ZM255.192 401.5V391.7H259.084C259.681 391.7 260.213 391.821 260.68 392.064C261.156 392.297 261.525 392.633 261.786 393.072C262.057 393.501 262.192 394.019 262.192 394.626V394.808C262.192 395.415 262.052 395.937 261.772 396.376C261.501 396.815 261.133 397.151 260.666 397.384C260.199 397.617 259.672 397.734 259.084 397.734H256.704V401.5H255.192ZM256.704 396.362H258.93C259.462 396.362 259.887 396.222 260.204 395.942C260.521 395.662 260.68 395.279 260.68 394.794V394.654C260.68 394.159 260.521 393.772 260.204 393.492C259.887 393.212 259.462 393.072 258.93 393.072H256.704V396.362ZM265.627 401.5V391.7H269.519C270.117 391.7 270.649 391.821 271.115 392.064C271.591 392.297 271.96 392.633 272.221 393.072C272.492 393.501 272.627 394.019 272.627 394.626V394.808C272.627 395.415 272.487 395.937 272.207 396.376C271.937 396.815 271.568 397.151 271.101 397.384C270.635 397.617 270.107 397.734 269.519 397.734H267.139V401.5H265.627ZM267.139 396.362H269.365C269.897 396.362 270.322 396.222 270.639 395.942C270.957 395.662 271.115 395.279 271.115 394.794V394.654C271.115 394.159 270.957 393.772 270.639 393.492C270.322 393.212 269.897 393.072 269.365 393.072H267.139V396.362ZM276.063 401.5V391.7H277.575V400.128H282.293V401.5H276.063ZM285.678 401.5V391.7H291.852V393.072H287.19V395.886H291.46V397.258H287.19V400.128H291.922V401.5H285.678ZM298.831 401.696C298.093 401.696 297.44 401.565 296.871 401.304C296.301 401.043 295.853 400.66 295.527 400.156C295.209 399.643 295.051 399.022 295.051 398.294V397.944H296.549V398.294C296.549 398.985 296.754 399.503 297.165 399.848C297.585 400.193 298.14 400.366 298.831 400.366C299.531 400.366 300.058 400.221 300.413 399.932C300.767 399.633 300.945 399.251 300.945 398.784C300.945 398.476 300.861 398.224 300.693 398.028C300.525 397.832 300.287 397.678 299.979 397.566C299.671 397.445 299.302 397.333 298.873 397.23L298.355 397.104C297.729 396.955 297.183 396.773 296.717 396.558C296.259 396.334 295.905 396.04 295.653 395.676C295.401 395.312 295.275 394.845 295.275 394.276C295.275 393.697 295.415 393.203 295.695 392.792C295.984 392.381 296.381 392.064 296.885 391.84C297.389 391.616 297.981 391.504 298.663 391.504C299.344 391.504 299.951 391.621 300.483 391.854C301.024 392.087 301.449 392.433 301.757 392.89C302.065 393.347 302.219 393.921 302.219 394.612V395.116H300.721V394.612C300.721 394.192 300.632 393.851 300.455 393.59C300.287 393.329 300.049 393.137 299.741 393.016C299.433 392.895 299.073 392.834 298.663 392.834C298.065 392.834 297.599 392.96 297.263 393.212C296.936 393.455 296.773 393.795 296.773 394.234C296.773 394.533 296.843 394.78 296.983 394.976C297.132 395.163 297.347 395.317 297.627 395.438C297.907 395.559 298.257 395.667 298.677 395.76L299.195 395.886C299.829 396.026 300.389 396.208 300.875 396.432C301.36 396.647 301.743 396.941 302.023 397.314C302.303 397.687 302.443 398.168 302.443 398.756C302.443 399.344 302.293 399.857 301.995 400.296C301.705 400.735 301.29 401.08 300.749 401.332C300.207 401.575 299.568 401.696 298.831 401.696ZM306.03 401.5V391.7H312.204V393.072H307.542V395.886H311.812V397.258H307.542V400.128H312.274V401.5H306.03ZM315.85 401.5V391.7H322.024V393.072H317.362V395.886H321.632V397.258H317.362V400.128H322.094V401.5H315.85ZM325.306 401.5V400.156H326.622V393.044H325.306V391.7H329.226C330.533 391.7 331.532 392.031 332.222 392.694C332.922 393.357 333.272 394.355 333.272 395.69V397.524C333.272 398.859 332.922 399.857 332.222 400.52C331.532 401.173 330.533 401.5 329.226 401.5H325.306ZM328.148 400.128H329.24C330.09 400.128 330.72 399.913 331.13 399.484C331.541 399.055 331.746 398.415 331.746 397.566V395.634C331.746 394.775 331.541 394.136 331.13 393.716C330.72 393.296 330.09 393.086 329.24 393.086H328.148V400.128Z" fill="white"/>
<path d="M534.251 401.696C533.112 401.696 532.202 401.374 531.521 400.73C530.849 400.077 530.513 399.097 530.513 397.79V395.41C530.513 394.131 530.849 393.161 531.521 392.498C532.202 391.835 533.112 391.504 534.251 391.504C535.399 391.504 536.309 391.835 536.981 392.498C537.662 393.161 538.003 394.131 538.003 395.41V397.79C538.003 399.097 537.662 400.077 536.981 400.73C536.309 401.374 535.399 401.696 534.251 401.696ZM534.251 400.38C535.026 400.38 535.6 400.161 535.973 399.722C536.346 399.274 536.533 398.649 536.533 397.846V395.326C536.533 394.523 536.332 393.907 535.931 393.478C535.53 393.039 534.97 392.82 534.251 392.82C533.523 392.82 532.963 393.044 532.571 393.492C532.179 393.931 531.983 394.542 531.983 395.326V397.846C531.983 398.667 532.17 399.297 532.543 399.736C532.926 400.165 533.495 400.38 534.251 400.38ZM545.275 401.696C544.136 401.696 543.226 401.374 542.545 400.73C541.873 400.077 541.537 399.097 541.537 397.79V395.41C541.537 394.131 541.873 393.161 542.545 392.498C543.226 391.835 544.136 391.504 545.275 391.504C546.423 391.504 547.333 391.835 548.005 392.498C548.686 393.161 549.027 394.131 549.027 395.41V397.79C549.027 399.097 548.686 400.077 548.005 400.73C547.333 401.374 546.423 401.696 545.275 401.696ZM545.275 400.38C546.049 400.38 546.623 400.161 546.997 399.722C547.37 399.274 547.557 398.649 547.557 397.846V395.326C547.557 394.523 547.356 393.907 546.955 393.478C546.553 393.039 545.993 392.82 545.275 392.82C544.547 392.82 543.987 393.044 543.595 393.492C543.203 393.931 543.007 394.542 543.007 395.326V397.846C543.007 398.667 543.193 399.297 543.567 399.736C543.949 400.165 544.519 400.38 545.275 400.38ZM551.678 404.3L555.794 391.7H557.236L553.12 404.3H551.678ZM563.603 401.696C562.464 401.696 561.554 401.374 560.873 400.73C560.201 400.077 559.865 399.097 559.865 397.79V395.41C559.865 394.131 560.201 393.161 560.873 392.498C561.554 391.835 562.464 391.504 563.603 391.504C564.751 391.504 565.661 391.835 566.333 392.498C567.014 393.161 567.355 394.131 567.355 395.41V397.79C567.355 399.097 567.014 400.077 566.333 400.73C565.661 401.374 564.751 401.696 563.603 401.696ZM563.603 400.38C564.377 400.38 564.951 400.161 565.325 399.722C565.698 399.274 565.885 398.649 565.885 397.846V395.326C565.885 394.523 565.684 393.907 565.283 393.478C564.881 393.039 564.321 392.82 563.603 392.82C562.875 392.82 562.315 393.044 561.923 393.492C561.531 393.931 561.335 394.542 561.335 395.326V397.846C561.335 398.667 561.521 399.297 561.895 399.736C562.277 400.165 562.847 400.38 563.603 400.38ZM574.626 401.696C573.487 401.696 572.577 401.374 571.896 400.73C571.224 400.077 570.888 399.097 570.888 397.79V395.41C570.888 394.131 571.224 393.161 571.896 392.498C572.577 391.835 573.487 391.504 574.626 391.504C575.774 391.504 576.684 391.835 577.356 392.498C578.037 393.161 578.378 394.131 578.378 395.41V397.79C578.378 399.097 578.037 400.077 577.356 400.73C576.684 401.374 575.774 401.696 574.626 401.696ZM574.626 400.38C575.401 400.38 575.975 400.161 576.348 399.722C576.721 399.274 576.908 398.649 576.908 397.846V395.326C576.908 394.523 576.707 393.907 576.306 393.478C575.905 393.039 575.345 392.82 574.626 392.82C573.898 392.82 573.338 393.044 572.946 393.492C572.554 393.931 572.358 394.542 572.358 395.326V397.846C572.358 398.667 572.545 399.297 572.918 399.736C573.301 400.165 573.87 400.38 574.626 400.38Z" fill="white"/>
</g>
</g>
</g>
<rect x="390" y="641" width="115" height="4" rx="2" fill="#ADB5BE"/>
<rect x="511" y="641" width="22" height="4" rx="2" fill="#ADB5BE"/>
<rect x="539" y="641" width="22" height="4" rx="2" fill="#ADB5BE"/>
<rect x="567" y="641" width="9" height="4" rx="2" fill="#ADB5BE"/>
<rect width="115" height="4" rx="2" transform="matrix(-1 0 0 1 576 663)" fill="#ADB5BE"/>
<rect width="22" height="4" rx="2" transform="matrix(-1 0 0 1 455 663)" fill="#ADB5BE"/>
<rect width="22" height="4" rx="2" transform="matrix(-1 0 0 1 427 663)" fill="#ADB5BE"/>
<rect width="9" height="4" rx="2" transform="matrix(-1 0 0 1 399 663)" fill="#ADB5BE"/>
<rect x="432" y="652" width="60" height="4" rx="2" fill="#ADB5BE"/>
<rect x="404" y="652" width="22" height="4" rx="2" fill="#ADB5BE"/>
<rect x="498" y="652" width="46" height="4" rx="2" fill="#ADB5BE"/>
<rect x="550" y="652" width="9" height="4" rx="2" fill="#ADB5BE"/>
<defs>
<filter id="filter0_f_0_224" x="-221.332" y="-227.298" width="768.527" height="768.527" filterUnits="userSpaceOnUse" color-interpolation-filters="sRGB">
<feFlood flood-opacity="0" result="BackgroundImageFix"/>
<feBlend mode="normal" in="SourceGraphic" in2="BackgroundImageFix" result="shape"/>
<feGaussianBlur stdDeviation="67.957" result="effect1_foregroundBlur_0_224"/>
</filter>
<filter id="filter1_f_0_224" x="-70.332" y="-180.298" width="768.527" height="768.527" filterUnits="userSpaceOnUse" color-interpolation-filters="sRGB">
<feFlood flood-opacity="0" result="BackgroundImageFix"/>
<feBlend mode="normal" in="SourceGraphic" in2="BackgroundImageFix" result="shape"/>
<feGaussianBlur stdDeviation="67.957" result="effect1_foregroundBlur_0_224"/>
</filter>
<filter id="filter2_f_0_224" x="-285.298" y="56.2364" width="768.527" height="768.527" filterUnits="userSpaceOnUse" color-interpolation-filters="sRGB">
<feFlood flood-opacity="0" result="BackgroundImageFix"/>
<feBlend mode="normal" in="SourceGraphic" in2="BackgroundImageFix" result="shape"/>
<feGaussianBlur stdDeviation="67.957" result="effect1_foregroundBlur_0_224"/>
</filter>
<filter id="filter3_d_0_224" x="104" y="166" width="661" height="647" filterUnits="userSpaceOnUse" color-interpolation-filters="sRGB">
<feFlood flood-opacity="0" result="BackgroundImageFix"/>
<feColorMatrix in="SourceAlpha" type="matrix" values="0 0 0 0 0 0 0 0 0 0 0 0 0 0 0 0 0 0 127 0" result="hardAlpha"/>
<feOffset dy="39"/>
<feGaussianBlur stdDeviation="30"/>
<feColorMatrix type="matrix" values="0 0 0 0 0 0 0 0 0 0 0 0 0 0 0 0 0 0 0.142481 0"/>
<feBlend mode="normal" in2="BackgroundImageFix" result="effect1_dropShadow_0_224"/>
<feBlend mode="normal" in="SourceGraphic" in2="effect1_dropShadow_0_224" result="shape"/>
</filter>
<filter id="filter4_f_0_224" x="220.177" y="32.1768" width="432.957" height="432.957" filterUnits="userSpaceOnUse" color-interpolation-filters="sRGB">
<feFlood flood-opacity="0" result="BackgroundImageFix"/>
<feBlend mode="normal" in="SourceGraphic" in2="BackgroundImageFix" result="shape"/>
<feGaussianBlur stdDeviation="40" result="effect1_foregroundBlur_0_224"/>
</filter>
<filter id="filter5_f_0_224" x="319.177" y="27.1768" width="432.957" height="432.957" filterUnits="userSpaceOnUse" color-interpolation-filters="sRGB">
<feFlood flood-opacity="0" result="BackgroundImageFix"/>
<feBlend mode="normal" in="SourceGraphic" in2="BackgroundImageFix" result="shape"/>
<feGaussianBlur stdDeviation="40" result="effect1_foregroundBlur_0_224"/>
</filter>
<filter id="filter6_f_0_224" x="188.177" y="184.177" width="432.957" height="432.957" filterUnits="userSpaceOnUse" color-interpolation-filters="sRGB">
<feFlood flood-opacity="0" result="BackgroundImageFix"/>
<feBlend mode="normal" in="SourceGraphic" in2="BackgroundImageFix" result="shape"/>
<feGaussianBlur stdDeviation="40" result="effect1_foregroundBlur_0_224"/>
</filter>
<linearGradient id="paint0_linear_0_224" x1="168.95" y1="493.404" x2="196.435" y2="745.127" gradientUnits="userSpaceOnUse">
<stop stop-color="white"/>
<stop offset="1" stop-color="#D2D3D9"/>
</linearGradient>
<linearGradient id="paint1_linear_0_224" x1="35.4078" y1="222.241" x2="76.2208" y2="481.081" gradientUnits="userSpaceOnUse">
<stop stop-color="#6348FE"/>
<stop offset="1" stop-color="#610595"/>
</linearGradient>
<clipPath id="clip0_0_224">
<rect width="381" height="69" fill="white" transform="translate(832 275)"/>
</clipPath>
<clipPath id="clip1_0_224">
<rect width="381" height="45" fill="white" transform="translate(832 299)"/>
</clipPath>
<clipPath id="clip2_0_224">
<rect width="381" height="69" fill="white" transform="translate(832 370)"/>
</clipPath>
<clipPath id="clip3_0_224">
<rect width="381" height="45" fill="white" transform="translate(832 394)"/>
</clipPath>
<clipPath id="clip4_0_224">
<rect width="170" height="69" fill="white" transform="translate(832 465)"/>
</clipPath>
<clipPath id="clip5_0_224">
<rect width="80" height="45" fill="white" transform="translate(832 489)"/>
</clipPath>
<clipPath id="clip6_0_224">
<rect width="80" height="45" fill="white" transform="translate(922 489)"/>
</clipPath>
<clipPath id="clip7_0_224">
<rect width="191" height="69" fill="white" transform="translate(1022 465)"/>
</clipPath>
<clipPath id="clip8_0_224">
<rect width="381" height="53" fill="white" transform="translate(832 574)"/>
</clipPath>
<clipPath id="clip9_0_224">
<rect width="361" height="38" fill="white" transform="translate(303 570)"/>
</clipPath>
<clipPath id="clip10_0_224">
<rect width="447" height="245" fill="white" transform="translate(164 187)"/>
</clipPath>
<clipPath id="clip11_0_224">
<rect width="383.142" height="18" fill="white" transform="translate(196 387.5)"/>
</clipPath>
</defs>
</svg>
